<mxfile host="Electron" modified="2024-03-26T16:40:42.471Z" agent="Mozilla/5.0 (Macintosh; Intel Mac OS X 10_15_7) AppleWebKit/537.36 (KHTML, like Gecko) draw.io/21.2.1 Chrome/112.0.5615.87 Electron/24.1.2 Safari/537.36" etag="OoNhXeEEutrNRFGTkw60" version="21.2.1" type="device">
  <diagram id="4AhkvA5cc18UMYQi5OJ3" name="Page-2">
    <mxGraphModel dx="2474" dy="814" grid="0" gridSize="10" guides="1" tooltips="1" connect="1" arrows="1" fold="1" page="0" pageScale="1" pageWidth="827" pageHeight="1169" math="0" shadow="0">
      <root>
        <mxCell id="0" />
        <mxCell id="1" parent="0" />
        <mxCell id="zkf6LBNEYV9gsRVNjPlm-1" value="" style="rounded=1;whiteSpace=wrap;html=1;sketch=1;curveFitting=1;jiggle=2;" vertex="1" parent="1">
          <mxGeometry x="-4" y="470" width="281" height="258" as="geometry" />
        </mxCell>
        <mxCell id="zXF7Ft334l2uaVNhPG58-2" value="" style="shape=image;aspect=fixed;image=data:image/svg+xml,PD94bWwgdmVyc2lvbj0iMS4wIiBlbmNvZGluZz0iVVRGLTgiIHN0YW5kYWxvbmU9Im5vIj8+CjwhRE9DVFlQRSBzdmcgUFVCTElDICItLy9XM0MvL0RURCBTVkcgMS4xLy9FTiIgImh0dHA6Ly93d3cudzMub3JnL0dyYXBoaWNzL1NWRy8xLjEvRFREL3N2ZzExLmR0ZCI+CjwhLS0gQ3JlYXRlZCB3aXRoIElua3NjYXBlIChodHRwOi8vd3d3Lmlua3NjYXBlLm9yZy8pIGJ5IE1hcnN1cGlsYW1pIC0tPgo8c3ZnCiAgIHhtbG5zOnN2Zz0iaHR0cDovL3d3dy53My5vcmcvMjAwMC9zdmciCiAgIHhtbG5zPSJodHRwOi8vd3d3LnczLm9yZy8yMDAwL3N2ZyIKICAgdmVyc2lvbj0iMS4xIgogICB3aWR0aD0iNzE5IgogICBoZWlnaHQ9Ijc2OCIKICAgdmlld0JveD0iLTEuNzMzODY3MSAtMS43MzM4NjcxIDYxLjI2MzMwNDIgNjUuNDA4MjI5MiIKICAgaWQ9InN2ZzQ1NDUzIj4KICA8ZGVmcwogICAgIGlkPSJkZWZzNDU0NTUiIC8+CiAgPHBhdGgKICAgICBkPSJtIDU0LjIyNzgyLDExLjk4NjYxNSBjIC0wLjU3MjUsLTEuMTgyNSAtMS4yMzUsLTIuMzIzNzUwNCAtMi4wMDM3NSwtMy40MDAwMDA0IGwgLTguMjEyNSwyLjk4ODc1MDQgYyAwLjk1NSwwLjk3NzUgMS43NTc1LDIuMDc2MjUgMi40MTM3NSwzLjI1MTI1IGwgNy44MDI1LC0yLjg0IHogbSAtMzYuMzAyODcsOS4wODMzOCAtOC4yMTUsMi45ODg3NSBjIDAuMTA1LDEuMzE3NSAwLjMzMjUsMi42MTg3NSAwLjY1MTI1LDMuODkzNzUgbCA3LjgwMzc1LC0yLjg0MTI1IGMgLTAuMjUzNzUsLTEuMzIgLTAuMzQzNzUsLTIuNjggLTAuMjQsLTQuMDQxMjUiCiAgICAgaWQ9InBhdGg0NDU2MCIKICAgICBzdHlsZT0iZmlsbDojYzIyMTMzO2ZpbGwtb3BhY2l0eToxO2ZpbGwtcnVsZTpub256ZXJvO3N0cm9rZTpub25lIiAvPgogIDxwYXRoCiAgICAgZD0ibSAzNi4xNTYyLDkuNjYwMTE0NiBjIDEuNzA4NzUsMC43OTc1MDA0IDMuMTg4NzUsMS44ODUwMDA0IDQuNDM3NSwzLjE2MDAwMDQgbCA4LjIxMjUsLTIuOTg4NzUwNCBjIC0yLjI3NSwtMy4xOTI1IC01LjM3Mzc1LC01Ljg2IC05LjE3LC03LjYzMTI1IC0xMS43NDEyNSwtNS40NzUgLTI1Ljc0ODc1LC0wLjM3NzUgLTMxLjIyMjUsMTEuMzYyNTAwNCAtMS43NzI1LDMuNzk4NzUgLTIuNDMxMjUsNy44MzM3NSAtMi4xMjEyNSwxMS43NDEyNSBsIDguMjEzNzUsLTIuOTg4NzUgYyAwLjEzNjI1LC0xLjc4IDAuNTcsLTMuNTYzNzUgMS4zNjYyNSwtNS4yNzM3NSBDIDE5LjQyOTk1LDkuNDEzODY0NiAyOC41Mjg3LDYuMTAzODY0NiAzNi4xNTYyLDkuNjYwMTE0NiIKICAgICBpZD0icGF0aDQ0NTY0IgogICAgIHN0eWxlPSJmaWxsOiNkYjIxMmU7ZmlsbC1vcGFjaXR5OjE7ZmlsbC1ydWxlOm5vbnplcm87c3Ryb2tlOm5vbmUiIC8+CiAgPHBhdGgKICAgICBkPSJtIDQ0LjkxNTgyLDI0LjY2ODI0NSBjIC0wLjEzMTI1LDEuNzc4NzUgLTAuNTgsMy41NjI1IC0xLjM3ODc1LDUuMjczNzUgLTMuNTU2MjUsNy42Mjg3NSAtMTIuNjU2MjUsMTAuOTM4NzUgLTIwLjI4MjUsNy4zODI1IC0xLjcxMTI1LC0wLjc5ODc1IC0zLjIwMjUsLTEuODc3NSAtNC40NDYyNSwtMy4xNTUgbCAtOC4xOTYyNSwyLjk4MjUgYyAyLjI3LDMuMTkyNSA1LjM2NSw1Ljg2MTI1IDkuMTYzNzUsNy42MzM3NSAxMS43NDEyNSw1LjQ3Mzc1IDI1Ljc0NjI1LDAuMzc2MjUgMzEuMjIxMjUsLTExLjM2NSAxLjc3Mzc1LC0zLjc5NjI1IDIuNDI3NSwtNy44MzEyNSAyLjExNSwtMTEuNzM1IGwgLTguMTk2MjUsMi45ODI1IHoiCiAgICAgaWQ9InBhdGg0NDU3MiIKICAgICBzdHlsZT0iZmlsbDojZGIyMTJlO2ZpbGwtb3BhY2l0eToxO2ZpbGwtcnVsZTpub256ZXJvO3N0cm9rZTpub25lIiAvPgogIDxwYXRoCiAgICAgZD0ibSA0Ni45MzU0NSwxNC42NDExMTUgLTcuODAzNzUsMi44NCBjIDEuNDUsMi41OTc1IDIuMTM1LDUuNTg3NSAxLjkxLDguNTk1IGwgOC4xOTYyNSwtMi45ODEyNSBjIC0wLjIzNSwtMi45NDEyNSAtMS4wMTg3NSwtNS44MTI1IC0yLjMwMjUsLTguNDUzNzUgbSAtMzYuMDYyNzUsMTMuMTI0IC03LjgwMzc1LDIuODQyNSBjIDAuNzE2MjUsMi44NDUgMS45Niw1LjU0ODc1IDMuNjcsNy45NTUgbCA4LjE5NSwtMi45ODM3NSBjIC0yLjEwMzc1LC0yLjE2IC0zLjUwMjUsLTQuODkzNzUgLTQuMDYxMjUsLTcuODEzNzUiCiAgICAgaWQ9InBhdGg0NDU3NiIKICAgICBzdHlsZT0iZmlsbDojZWIyMTI2O2ZpbGwtb3BhY2l0eToxO2ZpbGwtcnVsZTpub256ZXJvO3N0cm9rZTpub25lIiAvPgogIDxwYXRoCiAgICAgZD0ibSA1My4wMzgzMiw5LjgyMjk5NDYgYyAtMC4yNTg3NSwtMC40MiAtMC41Mjc1LC0wLjgzMzc1IC0wLjgxMzc1LC0xLjIzNjI1IGwgLTguMjEyNSwyLjk4ODc1MDQgYyAwLjM2MTI1LDAuMzcgMC42OTM3NSwwLjc2MjUgMS4wMTEyNSwxLjE2NSBsIDguMDE1LC0yLjkxNzUwMDQgeiBNIDE3Ljg5MzU3LDIyLjcxOTM2NSBjIC0wLjAyLC0wLjU0NzUgLTAuMDExMywtMS4wOTc1IDAuMDMxMiwtMS42NDg3NSBsIC04LjIxNSwyLjk4ODc1IGMgMC4wNDI1LDAuNTI2MjUgMC4xMDg3NSwxLjA0ODc1IDAuMTg3NSwxLjU3IGwgNy45OTYyNSwtMi45MSB6IgogICAgIGlkPSJwYXRoNDQ1ODQiCiAgICAgc3R5bGU9ImZpbGw6I2FkMjEzYjtmaWxsLW9wYWNpdHk6MTtmaWxsLXJ1bGU6bm9uemVybztzdHJva2U6bm9uZSIgLz4KICA8cGF0aAogICAgIGQ9Im0gNTMuMTExNTcsMjEuNjg1NjE1IC04LjE5NjI1LDIuOTgyNSBjIC0wLjA4NjMsMS4xOCAtMC4zMTYyNSwyLjM2MjUgLTAuNjkyNSwzLjUyNSBsIDguOTIxMjUsLTMuMjUyNSBjIDAuMDYzOCwtMS4wOSAwLjA1MzcsLTIuMTc3NSAtMC4wMzI1LC0zLjI1NSBtIC00Mi40OTg3NSwxNS40Njc1IGMgMC42MzEyNSwwLjg4ODc1IDEuMzMsMS43MzYyNSAyLjA4ODc1LDIuNTM2MjUgbCA4LjkyMjUsLTMuMjUzNzUgYyAtMS4wNDI1LC0wLjY1MjUgLTEuOTg1LC0xLjQxMzc1IC0yLjgxNjI1LC0yLjI2NjI1IGwgLTguMTk1LDIuOTgzNzUgeiIKICAgICBpZD0icGF0aDQ0NTg4IgogICAgIHN0eWxlPSJmaWxsOiNiYTIxMzM7ZmlsbC1vcGFjaXR5OjE7ZmlsbC1ydWxlOm5vbnplcm87c3Ryb2tlOm5vbmUiIC8+CiAgPHBhdGgKICAgICBkPSJtIDUyLjY4OTMyLDU0LjUzMjExNSAwLDAuNzQgMi4xNDYyNSwwIDAsNi41NTM3NSAwLjgxMjUsMCAwLC02LjU1Mzc1IDIuMTQ3NSwwIDAsLTAuNzQgLTUuMTA2MjUsMCB6IG0gLTQuOTI4NSwwLjczOTM4IDAsMi40MTc1IDIsMCAwLDAuNzQgLTIsMCAwLDMuMzk2MjUgLTAuODEyNSwwIDAsLTcuMjkyNSA0LjI4MjUsMCAwLDAuNzM4NzUgLTMuNDcsMCB6IG0gLTMuNzE3NzUsLTAuNzM4NSAwLjgxMjUsMCAwLDcuMjkzNzUgLTAuODEyNSwwIDAsLTcuMjkzNzUgeiBtIC0yLjkwNDI1LDcuMjkyODcgMCwtMy40Mzg3NSAtMy42MjYyNSwwIDAsMy40Mzg3NSAtMC44MTI1LDAgMCwtNy4yOTM3NSAwLjgxMjUsMCAwLDMuMTE2MjUgMy42MjYyNSwwIDAsLTMuMTE2MjUgMC44MTI1LDAgMCw3LjI5Mzc1IC0wLjgxMjUsMCB6IG0gLTguNjY2NzUsMC4xMTQ2MyBjIC0wLjk5LDAgLTEuODc2MjUsLTAuNDI3NSAtMi40NDg3NSwtMS4wMSBsIDAuNTQyNSwtMC42MDUgYyAwLjU1MTI1LDAuNTMxMjUgMS4xODc1LDAuODc2MjUgMS45Mzc1LDAuODc2MjUgMC45Njg3NSwwIDEuNTczNzUsLTAuNDggMS41NzM3NSwtMS4yNTEyNSAwLC0wLjY3NzUgLTAuNDA2MjUsLTEuMDYyNSAtMS43NCwtMS41NDI1IC0xLjU3Mzc1LC0wLjU2MjUgLTIuMTA1LC0xLjA3MjUgLTIuMTA1LC0yLjEyNSAwLC0xLjE2NzUgMC45MTYyNSwtMS44NjYyNSAyLjI4MTI1LC0xLjg2NjI1IDAuOTgsMCAxLjYwNSwwLjI5MjUgMi4yMiwwLjc4MjUgbCAtMC41MjEyNSwwLjYzNSBjIC0wLjUzMTI1LC0wLjQzNzUgLTEuMDIxMjUsLTAuNjc3NSAtMS43NSwtMC42Nzc1IC0xLjAwMTI1LDAgLTEuNDE3NSwwLjUgLTEuNDE3NSwxLjA3Mzc1IDAsMC42MDUgMC4yNzEyNSwwLjk0NzUgMS43MywxLjQ3IDEuNjE1LDAuNTgyNSAyLjExNSwxLjEyNSAyLjExNSwyLjIwODc1IDAsMS4xNDYyNSAtMC44OTYyNSwyLjAzMTI1IC0yLjQxNzUsMi4wMzEyNSBtIC01Ljc0MTUsLTAuMTE0NjMgLTIuNjc3NSwtMy45OCBjIC0wLjE3NzUsLTAuMjcxMjUgLTAuNDE3NSwtMC42MzYyNSAtMC41MTEyNSwtMC44MjM3NSAwLDAuMjcxMjUgMC4wMjEyLDEuMTg3NSAwLjAyMTIsMS41OTM3NSBsIDAsMy4yMSAtMS40Mzg3NSwwIDAsLTcuMjkzNzUgMS4zOTYyNSwwIDIuNTg1LDMuODU1IGMgMC4xNzc1LDAuMjcxMjUgMC40MTYyNSwwLjYzNjI1IDAuNTEsMC44MjM3NSAwLC0wLjI3MTI1IC0wLjAyLC0xLjE4NzUgLTAuMDIsLTEuNTk1IGwgMCwtMy4wODM3NSAxLjQzNzUsMCAwLDcuMjkzNzUgLTEuMzAyNSwwIHogbSAtMTEuNTAxMTIsMCAwLC03LjI5Mzc1IDUuMDYzNzUsMCAwLDEuNDI3NSAtMy42MDUsMCAwLDEuMjYxMjUgMi4wOTUsMCAwLDEuNDE2MjUgLTIuMDk1LDAgMCwxLjc2MTI1IDMuNzYxMjUsMCAwLDEuNDI3NSAtNS4yMiwwIHogbSAtNC4xNDQ3NSwtMi41ODM2MiAtMS42MDUsMCAwLDIuNTgzNzUgLTEuNDU4NzUsMCAwLC03LjI5Mzc1IDMuMTg4NzUsMCBjIDEuMzc1LDAgMi41MTEyNSwwLjc2MTI1IDIuNTExMjUsMi4zMTI1IDAsMS42ODg3NSAtMS4xMjUsMi4zOTc1IC0yLjYzNjI1LDIuMzk3NSBtIDAuMDczOCwtMy4yOTI1IC0xLjY3ODc1LDAgMCwxLjg3NSAxLjY5ODc1LDAgYyAwLjY3NzUsMCAxLjA0MjUsLTAuMzEzNzUgMS4wNDI1LC0wLjk0ODc1IDAsLTAuNjM1IC0wLjQxNzUsLTAuOTI2MjUgLTEuMDYyNSwtMC45MjYyNSBNIDMuMjEsNjEuOTQwNDk1IGMgLTEuOTA3NSwwIC0zLjIxLC0xLjM5NjI1IC0zLjIxLC0zLjc1MTI1IDAsLTIuMzU1IDEuMzIzNzUsLTMuNzcyNSAzLjIzMTI1LC0zLjc3MjUgMS44OTYyNSwwIDMuMTk4NzUsMS4zOTc1IDMuMTk4NzUsMy43NTI1IDAsMi4zNTUgLTEuMzIzNzUsMy43NzEyNSAtMy4yMiwzLjc3MTI1IG0gLTAuMDEsLTYuMDc1IGMgLTEuMDIxMjUsMCAtMS42OTg3NSwwLjgyMzc1IC0xLjY5ODc1LDIuMzAzNzUgMCwxLjQ4IDAuNzA4NzUsMi4zMjI1IDEuNzMsMi4zMjI1IDEuMDIxMjUsMCAxLjY5NzUsLTAuODIyNSAxLjY5NzUsLTIuMzAyNSAwLC0xLjQ4IC0wLjcwNzUsLTIuMzIzNzUgLTEuNzI4NzUsLTIuMzIzNzUiCiAgICAgaWQ9InBhdGg0NDYyMiIKICAgICBzdHlsZT0iZmlsbDojMjQxZjIxO2ZpbGwtb3BhY2l0eToxO2ZpbGwtcnVsZTpub256ZXJvO3N0cm9rZTpub25lIiAvPgo8L3N2Zz4KPCEtLSB2ZXJzaW9uOiAyMDExMDMxMSwgb3JpZ2luYWwgc2l6ZTogNTcuNzk1NTcgNjEuOTQwNDk1LCBib3JkZXI6IDMlIC0tPgo=;imageBackground=default;" vertex="1" parent="1">
          <mxGeometry x="-17.65" y="445" width="98.3" height="105" as="geometry" />
        </mxCell>
        <mxCell id="zkf6LBNEYV9gsRVNjPlm-12" style="edgeStyle=orthogonalEdgeStyle;rounded=0;orthogonalLoop=1;jettySize=auto;html=1;entryX=1;entryY=0.25;entryDx=0;entryDy=0;curved=1;sketch=1;curveFitting=1;jiggle=2;" edge="1" parent="1" source="zkf6LBNEYV9gsRVNjPlm-2" target="zkf6LBNEYV9gsRVNjPlm-1">
          <mxGeometry relative="1" as="geometry" />
        </mxCell>
        <mxCell id="zkf6LBNEYV9gsRVNjPlm-2" value="" style="rounded=1;whiteSpace=wrap;html=1;sketch=1;curveFitting=1;jiggle=2;" vertex="1" parent="1">
          <mxGeometry x="324" y="497" width="197" height="205" as="geometry" />
        </mxCell>
        <mxCell id="zkf6LBNEYV9gsRVNjPlm-11" style="edgeStyle=orthogonalEdgeStyle;rounded=0;orthogonalLoop=1;jettySize=auto;html=1;curved=1;sketch=1;curveFitting=1;jiggle=2;entryX=0;entryY=0.75;entryDx=0;entryDy=0;" edge="1" parent="1" source="zkf6LBNEYV9gsRVNjPlm-4" target="zkf6LBNEYV9gsRVNjPlm-2">
          <mxGeometry relative="1" as="geometry" />
        </mxCell>
        <mxCell id="zkf6LBNEYV9gsRVNjPlm-4" value="" style="rounded=1;whiteSpace=wrap;html=1;sketch=1;curveFitting=1;jiggle=2;" vertex="1" parent="1">
          <mxGeometry x="-4" y="630" width="281" height="99" as="geometry" />
        </mxCell>
        <mxCell id="zkf6LBNEYV9gsRVNjPlm-7" value="" style="shape=image;verticalLabelPosition=bottom;labelBackgroundColor=default;verticalAlign=top;aspect=fixed;imageAspect=0;image=data:image/png,iVBORw0KGgoAAAANSUhEUgAAAQAAAAEACAYAAABccqhmAAAACXBIWXMAAAD7AAAA+wFieMcIAAAAGXRFWHRTb2Z0d2FyZQB3d3cuaW5rc2NhcGUub3Jnm+48GgAAGmpJREFUeJzt3XmUFfWVwPHvbXaxHRgwQCIjimAUWRS3RBMbGhSNOhpH0KARWTqYAyMBASNR0ThJxIUzjp7IFqOiUTAmIcQoLkkwjjGD7KIssqMNTYvgwtp95496DQ308paq+lXVu59z3qHhvVe/S3ff+279qupXgok1VW0GnJR6tAFaA8cDrY54NE69pWXqz8ZA89TXXwD7Ul/vSP25Fyg/4rE99SgF1gPrRGR3AP8tExJxHYCpn6o2Ak4FugFnACcDHVKPNs4C82wF1pEqCMCy1GOliOx3GJdJgxWAiEl9op8NnIeX8F2B0zn0CR4X+4AVeMVgKfAOsMA6hmixAuCYqrYBzgV6AhcAFwJNnQYVnAPAEuAt4F3gryKy0W1I+c0KQMhUtSFwPnA50Ac4i/z+OawFXgPmAvNEZK/jePJKPv/ihUZVTwCuAC4FenNo8s0c7nPgdeBl4I8issVxPIlnBSAgqtoauAy4ES/pC9xGFDuVwNvAbGC2iHzkOJ5EsgLgo1TSDwD64+3LW9L7oxKYD8wCZolIueN4EsMKgA9UtSdQgvdp38xxOEm3F5gDTAVeFxF1HE+sWQHIkqq2BW4ChgKnOA4nX60BngFmiMgm18HEkRWADKnqmcAYvDa/keNwjGc/8DzwkIgsdh1MnFgBSJOqXgiMB76Dfd+i7C3gfmCu7R7Uz36R65A6Zn8jcBve2XgmPpYDDwLPiMgB18FElRWAGqhqAXANcB/Q2XE4JjfrgZ/jzRNUOI4lcqwAVKOqgneG3k+B7o7DMf56H/gFMFNEKl0HExVWAFJUtR/evmM317GYQC0GxovIPNeBREHeFwBV7QT8F3Ct61hMqF4DbhWRFa4DcSlvC4CqtgBuB0YBTRyHY9zYD/wSuEtEdroOxoW8KwCp/fyhwM/wVs8xZhveh8Gv8+3QYV4VAFXtCEwBil3HYiLpTWCYiKx0HUhY8uJiFVVtqKq34i1GYclvavMtYJGqTlTVuK3AlJXEdwCpC3VmYIf1TGYWAUNFZKHrQIKU2A5AVQtSn/r/iyW/ydyZwDupbqCB62CCksgOQFX/DXga+LbrWEwivA3cICJrXQfit8R1AKp6Ld7JHpb8xi/fwJsbuMF1IH5LTAegqs3xZvgHuo7FJNqTwA9F5EvXgfghEQVAVU8BXsRbQ9+YoC0FvisiH7oOJFex3wVQ1cuAf2LJb8LTDVioqle5DiRXsS0AqiqqOh74I4fud2dMWI4DXlTVX6QuH4+lWO4CpPb3f4O31r4xrv0BGCgiX7gOJFOxKwCq2g7vU7+n61iMqWYJcLmIbHYdSCZiVQBUtQvwJ+BE17EYU4MtwHdEZInrQNIVm30XVS3GW/DRkt9E1deAN1OLy8RCLAqAqn4P+DPwL65jMaYehcAfVHWA60DSEfkCoKrD8E7rtTX4TVw0Bp5R1SGuA6lPpAuAqv4QeJyIx2lMDRoA01R1lOtA6hLZxEod43+MCMdoTD0EmKyqd7sOpDaRTC5V/SneEs7GJMFEVb3HdRA1idxhQFWdgHdDDmOS5g4R+bnrIKqLVAFQ1ZHAI67jMCZAt4nIQ66DqBKZAqCqg4BfEaGYjAmAAj8QkWmuA4GIJFvqOP/TRHROwhifVeBdO/C860CcFwBVLQJewTt2aky+2A9cJiKvuQzCaQFQ1dPxTu9t4TIOYxzZBVwoIstcBeCsAKSu6nsbO7ff5Lf1wPkistXF4E72uVX1GOB3WPIb0wH4U2qNi9CFXgBSq6c8B5wX9tjGRFRPYKaLlYVcdAATsZV8jDnSVcCEsAcNdQ5AVS/HWz7JDvcZc7RK4AoReSmsAUMrAKraCW/1XpvxN6Z2O4BzwlpyPJRP4tQEx4tY8htTn5Z4qw0fE8ZgYbXiU4AzQhrLmLjrBjwaxkCB7wKk7qf2dNDjGJNA14vIc0EOEGgBUNX2eMsl2407jMncp0APEdkQ1ACB7QKkjmk+hSW/MdlqATytqg2CGiDIOYA7gKIAt29MPvgWMDaojQeyC6CqPfHO87eVfI3J3X7gPBFZ5PeGfS8AqtoQeAc4y+9tG5PHluCdH7Dfz40GsQswDkt+Y/zWHfB9iXFfOwBV7QwsBpr5uV1jDAC7gW4issavDfrWAaiqAL/Ekt+YoDTDu9mIbx/cfu4CDAV6+7g9Y8zRioBBfm3Ml0qiqi2A1UBrP7ZnjKnTNqCziOzMdUN+dQB3Y8lvTFi+gk9rB+TcAajq14Gl2DF/Y8K0D+gqIqty2YgfHcDDWPIbE7bGwAO5biSnDkBV+wCv5hqEMSZr/UTklWzfnHUBSB2KWIR3goIxxo2FwNkiotm8OZddgGux5DfGtbPwFhTNSlYdQOryxGXAadkObIzxzXt4ZwhWZvrGbDuA72HJb0xUdMHryDOWcQeQ+vR/Dzg1mwHDVlFRQVlZGSLC8ccfT0GBrUhuEmkV0EVEDmTypmyy4fvEIPlLS0sZMWIEbdq0oV27drRt25Z27doxevRotm/f7jo8Y/zWGbgu0zdl1AGkZv6XA6dnOlCYFixYwBVXXEFpaWmNz7dv3565c+fSrVu3kCMzJlDLgO6ZHBHItAO4jIgn/8KFC7nkkktqTX6ATZs2UVRUxIIFC0KMzJjAdQX6ZvKGTAvAmAxfH6qFCxfSt29fPvnkk3pfu2PHDi6++GIrAiZpMsrRtHcBVLU73ok/od5PMF2ZJH91LVu2ZN68eZx99tkBRWZM6M4UkcXpvDCTDmAcCUt+sE7AJNKP0n1hWgmtqm2BjUTwop9ckr866wRMguwD2ovItvpemG4HcDMRTP7ly5dTXFycc/KD1wn069ePJUuW+BCZMU41Bm5K54X1dgCpQ3+rgFNyDMpX+/fvp2vXrqxcudLX7bZq1YrXX3+d7t3tMgcTa6uAr9d3SDCdDqA3EUt+gNmzZ/ue/ADl5eUUFxdbJ2DirjPeXYXqlE4BGJZ7LP6bN29eYNu2ImASot7crbMAqGorcrjUMEgff/xxoNu3ImAS4D9Utc6b89bXAVwPNPEvHv+0bBn8TYetCJiYa0o9VwnWVwCyusQwDBdddFEo41gRMDHXv64naz0KoKrtgE1AYPcmz8Vnn31Gx44dKSsrC2U8OzpgYqoC+JqIbK3pybo6gP5ENPkBCgsLefLJJ2nQIJwQrRMwMdUAuKa2J+srAJF26aWX8uyzz9KwYcNQxisvL6dXr1522rCJm1pzucZdAFU9AdhAMLcP992sWbMYOHAgBw5ktBhK1uy0YRMzlXinBn905BO1JfiVdTwXOf3792fmzJmhdQJ2AZGJmQLg8tqeqEm/4GIJxoABA5g5c2ZocwJWBEzM1JjTR+0CqGpjoBw4NuiIgvDcc89xww03UFFREcp4tjtgYuIzoLWI7Kv+jzV1AN8mpskPcN111zF9+vTQVv+1TsDERCHwzSP/saYsuTT4WII1aNAgZsyYYUXAmMMdlds1ZUjs9v9rMmjQIOsEjDncUQXgsDkAVW0D1L6cbgw98cQTDB06lMrKjO+alBWbEzARpkDb6isFHfnxeGG48QTv5ptvZtq0adYJGON94H+j+j8cmRUXhBdLeAYPHmxFwBjPYTmeFwUAvCIwderUUItA3759rQiYqDksxw/OAahqM+BTvAUFE2vGjBmUlJSENifQokULXn31VZsTMFGxF2ghInvg8A7gHBKe/ABDhgxhypQpoXUCn376qXUCJkqaAD2r/lI9C84NPxY3hg4dyuOPP45IOPc5sSJgIua8qi+qF4C8Wuli2LBhTJkyxYqAyUcHb4tdUNM/5gsrAiZPda36QgBUtRHwOXkwB1CTqVOnMnz4cFTTvq16Tmxi0Di2FzhWRA5UdQBfJ0+TH6CkpMTmBEw+aYJ345CDuwB51/4fqaSkhMmTJ1sRMPmiKxwqAF0cBhIZt956Kw8//HBo41kRMA6dAYcKwMkOA4mUUaNGMXny5NDGsyJgHDkZDhWAkxwGEjlWBEwe6ACHCkAHZ2FE1KhRo2x3wCTZSQCiqs3x1gsLZ/YrZh5++GHGjBkT2nh2iNCERIFjCvA+/S35azF69Ggeeuih0MazTsCERIATC4ATXUcSdaNHj+bBBx8MbTwrAiYkJxUAX3UdRRyMGTPGioBJmnYFQGvXUcTFmDFjeOCBB0Ibz4qACVjrAqCV6yji5LbbbmPSpEmhjWdFwASolRWALIwdO9aKgEkCKwDZGjt2LPfff39o41kRMAFoZXMAORg3bpwVARNnrQuAFq6jiLNx48Zx9913hzaeFQHjo5YFQFPXUcTdxIkTQy8C/fr14/333w9tTJNITQrI44VA/DRx4kTuuuuu0MYrLy/n6quvZt++ffW/2JiaWQHw0z333MOdd94Z2ngrV67kqaeeCm08kziNC/CWBzI+uffee5kwYUJo482dOze0sUziWAcQhPvuu4/hw4eHMtb69etDGcckkhWAIKxcuZI5c+aEMlZhYWEo45hEahLO/bHyyOrVqykuLuajjz4KZbzzzz8/lHFMMomqfgk0cx1IEqxevZpevXqxZcuWUMZr0KABy5Yt47TTTgtlPJM4XxYAdhzJB2vWrAk1+cE76mDJb3KwtwDvLiEmB+vXr6dv376hJn9JSQl33HFHaOOZRNprHUCONmzYQK9evUKdjQ/7TkYmsfZZAcjBhg0bKCoqsuQ3cbW3ANjjOoo4suQ3CbC3ANjhOoq42bhxo7X9Jgk+KQC2u44iTjZu3EhRURHr1q0LbUxLfhOQ7QVAueso4sKS3yRMuXUAaapq+y35TYJYB5COTZs20atXL9auXRvamJb8JgTlVgDqYclvEqy8APjYdRRRVZX8H374YWhjWvKbEJUWAOtdRxFFlvwmD6wTVW0GfIHdIfigzZs3U1RUZMlvksy7PbiI7AbKXEcTFZs3b7ZPfpMPPhaRPVULgoR3bCvCSktLufjii1mzZk1oY1ryG0fWAxRU/0s+Ky0tpXfv3qGutW/JbxxaB4cKQHj9bgRt3brVkt/km7VwqAAsdxiIU5b8Jk8tg0MFYJnDQJypSv4VK1aENqYlv4mIZZA69KeqDYHPyaObhFjymzy2BzhWRCoKAETkAJA3d5rctm0bxcXFlvwmX70nIhVwaBcAYKmjYEK1bds2evfuzXvvvRfamJb8JmIO5nr1ApD4eQBLfmOAapP+1QvAOw4CCU1V22/Jbwz/qPri4G+mqjYBdpLAicCysjJ69+7N8uXhHe205DcRtRdoISJ7oFoHICJ7gUWuogpKWVkZxcXFlvzGeP6vKvnh8F0AgLdCDiZQVcm/bFl40xuW/CbiDsvxxBYAS35janRYjh/2m6qqXwG2hhpOAHbs2EGfPn1YuHBhaGNa8psYUKCNiBy8/P+wDkBEtgHhTZMHYMeOHfTt29eS35ijLa2e/HD0LgDAn0MKxndVyf/uu++GNqYlv4mRo3K7YQ0vehm4LfhY/FVeXk6fPn1YvHhxaGOOGDGCRx55JFbJv2vXLioqKlyHEStNmzalWbNmrsPww8v1vkJVG6vqLo2R8vJy7dGjh+Lt44TyGDFihFZWVrr+r6dl8eLFOmDAAC0sLAz1e5Skx4knnqjjx4/X8vJy1z/ObO1U1Ua1Jn51qvoH19Gmq7y8XM866yxL/lpMmzZNGzZs6DyBkvI44YQTdOnSpa5/rNn4bY3JXhNVvcV1tOnYuXOnJX8dXnnlFS0oKHCeNEl7tG/fPo6dwLAaUr1mqvo1Va1wHXF9rrrqKkv+OnTp0sV5siT1cfvtt7v+8WaiQlXbHZXodVHVN11HXZf58+db8tdh6dKlzpMkyY8OHTq4/hFn4o0j87tKTYcBq8yq4znnXnjhhdDGiuNs/wcffOA6hERbv349u3fvdh1GumrN5boKwGwgsseLVq9eHco4cUx+gC+++MJ1CIkXk+9xBfBibU/WWgBEpBR4M4iI/NC4cePAxygpKYll8htTzRupM3xrVFcHABHeDejRo0eg27cz/ExCPF/Xk+kUgD31vMaJG2+8kUaN0juvIVMjRoyw5DdJsJs62n+opwCISDnwez8j8kvHjh2ZMGGC79uN6z6/MTWYLSI76npBfR0AwDSfgvHdXXfdxeDBg33bniW/SZjp9b0gnQLwFyCcKfcMiQjTp0/nlltuyXlbNuFnEmYV8Pf6XlRvARARBX7lR0RBEBEee+yxnIqATfiZBJqWyt06pdMBADwB7M8tnuDkUgSSmvyFhYWuQ0g0EYny93gf8JSvW1TVp12fz1ifiooKHTx4cGJP783EihUrnJ8um+RHp06dXP+I6/JEvQmdKVXtpqqRz5aKigodMmRIvT/AkSNHJjb5q4R9pWQ+PSZOnOj6x1uX7unkdMZU9VXX/7N0VFZW6qRJk7R58+ZH/eCOO+44ffTRR12HGIr58+dro0aNnCdL0h6nnHKK7toV2TVzMlrSL6MdX1XtR4zWDCwrK2POnDkHbwfWvXt3rrzySlq2bOk4svDMmjWLQYMGxenClUjr3Lkzc+fOpVOnTq5DqU0fEXk93RdnPPOlqouBYFoME4i1a9cyadIkXnrpJbZs2UJlZaXrkGKlSZMmnHrqqVx//fWMHDmS5s2buw6pNkuBHunM/lfJpgDcBPw60/cZYwI3UESezeQN2RSABnj3Djg10/caYwKzCjhdRDK6hD/d8wAOSg3w00zfZ4wJ1E8yTX7IogMAUNUCvDsJd8vm/cYYXy0HuotIxpM7GXcAAKmBrAswJhp+kk3yQ5YdAICqCrAQCHZlDmNMXd4Fzslk5r+6rDoAOHiRUOxuIWZMwvw42+SHHAoAQOqEgz/msg1jTNZeFJFXc9lAzpfAqWpHvMOCTXLdljEmbfuAM0Qkp7U6cuoAAETkQ+B/ct2OMSYjD+Wa/OBDBwCgqoV4JyK09WN7xpg6bQU6i8iuXDeUcwcAICKfAXf4sS1jTL3G+pH84FMHAAcPC84D+vi1TWPMUf4CFOcy81+dr+tgqepJwDIgspdLGRNjXwLdUvNuvvBlF6CKiKzDzhA0Jih3+Zn84HMHAKCqDYF/AD393rYxeWwx3hl/B/zcqK8dAEAqwBIivIqwMTGzDxjkd/JDAAUAQEQWAhOD2LYxeehOEVkSxIYDWww/dcnwa0CvoMYwJg/MB3pnc61/OgK9G4aqngAsAf41yHGMSahP8a7z3xjUAIHsAlQRkc3AD4Icw5gEGx5k8kPABQBARF4Angx6HGMSZpqIPB/0IKHcEE9VmwJvAWeFMZ4xMbcY+KaIBH4zh9DuiKmqJ+KtXtIqrDGNiaFPgLNTJ9UFLvBdgCoisgG4HghkNtOYBKjEW9s/lOSHEAsAQGr1EjtV2Jia/UREXg5zwNB2Aaqkzg94Efj3sMc2JsJ+C1zr11V+6Qq9AACoajPgDeB8F+MbEzELgCIR+SLsgZ0UAABVPR54G+joKgZjImAd8A0R2epi8FDnAKoTkTLgCmCHqxiMcewT4DJXyQ8OCwCAiLwPXA3sdRmHMQ7sB/qLyAcug3BaAABE5G/ATdjhQZM/KoDvpe6r4ZTzAgCQOuVxCN5xUGOSTPHO8X/BdSAQkQIAICJPAv/pOg5jAjZGRKa7DqJKZAoAgIg8Box2HYcxAfmxiEx2HUR1kSoAAKlv0L2u4zDGZ/eIyC9cB3EkZ+cB1EdVxwOR+4YZk4W7RSSSH2qRLQAAqjoceIwIdirGpEGBH4nIf7sOpDaRLgAAqjoQ+DXQ0HEoxmSiAhgmIk+4DqQukS8AAKo6AHgKaOw6FmPSsBe4ISqH+uoSiwIAoKoXAL8HWruOxZg67AC+KyJ/dR1IOmJTAABU9RTgJaCT61iMqcE6vHP7nZ7em4lYTa6JyBrgm3jrCxoTJf/Eu6ovNskPMSsAACKyHbgY+J3rWIxJ+S3e9fzOrurLVuwKAICIfAlcA9yOXURk3FHgfryr+gJfwTcIsZoDqImq9gKeA77iOhaTV8rxFvB8xXUguYh9AQBQ1fZ4bdg5rmMxeWERcE2Yq/cGJZa7AEcSkU3ARUCkT7owiTAN76YdsU9+SEgHUJ2qXgNMxW5Iavy1E7hFRH7jOhA/Ja4AwMFdgqeAIsehmGT4C/D91M1uEyURuwBHSu0S9AZGAfsch2Pi6wBwD9AnickPCe0AqlPVM4Hp2I1JTWYWAENFZInrQIKUyA6gOhFZBJyH1w187jgcE3278c4vOT/pyQ950AFUp6onA48DfV3HYiLpb0CJiKxyHUhYEt8BVCcia4FLgMFA7E7bNIEpBW4SkaJ8Sn7Isw6gOlVtDowFxgNNHYdj3NgP/BK4U0R2uQ7GhbwtAFVSlxj/DLjWdSwmVHOBUSLyoetAXMr7AlBFVfvgXdhhRwuSbQEwXkTecB1IFOTVHEBdROQ1EemJN0G4yHU8xnfvAf2Bcy35D7EOoAaqKsDlwH1AN8fhmNy8j7e8/DMiYpeOH8EKQB1UtQFwPd5koRWCeFkMPAA8JyJ2z8laWAFIk6peiHfE4DvY9y3K3sKby5krIuo6mKizX+QMqWo3YAxwHbZMeVTsA34DPCQiy1wHEydWALKkqi3xDh2OBM5wHE6+WgX8CnhCRLa5DiaOrAD4QFV7AiXAQKC543CSbi8wB2/Nh9etzc+NFQAfVesK+uOtRdDAaUDJUYF3Tf7zwAsi8qnjeBLDCkBAVLUV3oThtUA/7N6GmaoE3gZmA8+LSKnjeBLJCkAIVPWreOcV9AP6AIVuI4qsXcBrwMt4s/gfO44n8awAhExVGwEX4hWDftj5BUvwEv5l4C0R2e84nrxiBcAxVT0OOBevKFyQ+jOpVycewEv4t4C/A38VkTK3IeU3KwARo6pNgbPxikI3oCvQBWjiMq4s7AFWAEuBZcA7wAIR2es0KnMYKwAxoKoN8e6I3A3vnIOTgQ7ASUA7d5EB8DHeXXHXAWuB5XgJv1pEDrgMzNTPCkDMpTqGDnjFoC3QCmiderRKPVoCx6Techze4clGwLGpf/scb3GMCryJOIAv8e51X556lKX+3I63gs56YL2I7Anq/2aC9/8nTfc8BJtYWgAAAABJRU5ErkJggg==;" vertex="1" parent="1">
          <mxGeometry x="4" y="635" width="43" height="43" as="geometry" />
        </mxCell>
        <mxCell id="zkf6LBNEYV9gsRVNjPlm-8" value="ssh userX@bastion" style="text;html=1;strokeColor=none;fillColor=none;align=center;verticalAlign=middle;whiteSpace=wrap;rounded=0;fontFamily=Courier New;fontSize=18;" vertex="1" parent="1">
          <mxGeometry x="39" y="678" width="187" height="30" as="geometry" />
        </mxCell>
        <mxCell id="zkf6LBNEYV9gsRVNjPlm-14" value="" style="html=1;verticalLabelPosition=bottom;align=center;labelBackgroundColor=#ffffff;verticalAlign=top;strokeWidth=2;strokeColor=#0080F0;shadow=0;dashed=0;shape=mxgraph.ios7.icons.folder;" vertex="1" parent="1">
          <mxGeometry x="359" y="562" width="30" height="25" as="geometry" />
        </mxCell>
        <mxCell id="zkf6LBNEYV9gsRVNjPlm-15" value="Scripts" style="text;html=1;strokeColor=none;fillColor=none;align=center;verticalAlign=middle;whiteSpace=wrap;rounded=0;fontSize=14;fontFamily=Courier New;" vertex="1" parent="1">
          <mxGeometry x="399" y="560" width="60" height="30" as="geometry" />
        </mxCell>
        <mxCell id="zkf6LBNEYV9gsRVNjPlm-16" value="" style="html=1;verticalLabelPosition=bottom;align=center;labelBackgroundColor=#ffffff;verticalAlign=top;strokeWidth=2;strokeColor=#0080F0;shadow=0;dashed=0;shape=mxgraph.ios7.icons.folder;" vertex="1" parent="1">
          <mxGeometry x="359" y="595" width="30" height="25" as="geometry" />
        </mxCell>
        <mxCell id="zkf6LBNEYV9gsRVNjPlm-17" value="Assets" style="text;html=1;strokeColor=none;fillColor=none;align=center;verticalAlign=middle;whiteSpace=wrap;rounded=0;fontSize=14;fontFamily=Courier New;" vertex="1" parent="1">
          <mxGeometry x="399" y="595" width="60" height="30" as="geometry" />
        </mxCell>
        <mxCell id="zkf6LBNEYV9gsRVNjPlm-18" value="" style="sketch=0;outlineConnect=0;fontColor=#232F3E;gradientColor=none;fillColor=#D45B07;strokeColor=none;dashed=0;verticalLabelPosition=bottom;verticalAlign=top;align=center;html=1;fontSize=12;fontStyle=0;aspect=fixed;pointerEvents=1;shape=mxgraph.aws4.ecs_copilot_cli;" vertex="1" parent="1">
          <mxGeometry x="358" y="629" width="33.82" height="31" as="geometry" />
        </mxCell>
        <mxCell id="zkf6LBNEYV9gsRVNjPlm-19" value="CLIs" style="text;html=1;strokeColor=none;fillColor=none;align=center;verticalAlign=middle;whiteSpace=wrap;rounded=0;fontSize=14;fontFamily=Courier New;" vertex="1" parent="1">
          <mxGeometry x="399" y="630" width="60" height="30" as="geometry" />
        </mxCell>
        <mxCell id="zkf6LBNEYV9gsRVNjPlm-20" value="" style="shape=image;verticalLabelPosition=bottom;labelBackgroundColor=default;verticalAlign=top;aspect=fixed;imageAspect=0;image=data:image/png,iVBORw0KGgoAAAANSUhEUgAABAAAAAD8CAYAAADpAtbyAAAABGdBTUEAALGPC/xhBQAAACBjSFJNAAB6JgAAgIQAAPoAAACA6AAAdTAAAOpgAAA6mAAAF3CculE8AAAABmJLR0QA/wD/AP+gvaeTAABBM0lEQVR42u3dd7wcVfn48c/ce9PrvakkQBISEiAQQiAkIYQgTZAuRRQVFAQsiPizoYgoFtCvSBUBRURE6aJYUMSEHkqk1wABkgBJbkmvd+f3xxk0hJRbdndmdz/v12tfSW727sw+Mzt7zjPnPAckSZIkSZIkSZIkSZIkSZIkSZIkSZIkSZIkSZIkSZIkSZIkSZIkSZIkSVILRYZAWdEE28RwGDA5hoFAlxiaIngngpdy8HwOnugHLxktSZIkSTIBoBJTDztEcD5wMFDVgl95C7gXuDeG6XXwXASxkZQkSZIkEwDKoBiiRvgq8H2gQzteamEM9wF/a4Y/94e3ja4kSZIkmQAo9U5zVRPsFMMEYDgwMApD5XNAI/B6BM8D02uhKavvoxF6x3AtcHieXzoHPArcEcMdfeA5zxpJkiRJMgFQMuphdASfBY4F+rXgV9YCDxDuit+epXnzjTAkhruAUUXY3KwI7gD+1Bvuj0KCQJIkSZJMAChbGmFoDn4awZHtOF5xBHcDP+8Nf46gOa33kyQy7gIGp7D5eTHcFMMNfcMoAUmSJEkyAaD0NcCpwIVA1zy+7BsRXLgCrh4Ey4v8fiYDfwLqMhDeWTHcEMPv+8ILnm2SJEmSTACo6GKoaYCrIzixgNuYH8FFMVzeBxYX+j3Vw1ERXA90zmDI/xPDDcCNfeBNz0BJkiRJJgBUlM5/I9wKHFakTTbFcFlHuKQHLChQ5//LEfyEli3xl6ZcBPfEcM0iuH0YrPSMlCRJkmQCQAXRAFcAp6Ww6WUx/LIaLu0Nr+TjBZugNoYrYzimBA9FE3BDFfy6NzzmmSlJkiTJBIDy2fn/KvDjlHcjB/wzgit7h4KBa1v7AjFUNcJxwE+BgWVwaJ6O4Joa+F2hRklIkiRJkgmAClEPH4zgr2RrmPxbJEvoxfDA5moFLIK6ZvgI8HlgdBkeptUx3AlcWQd3u6SgJEmSJBMAapX50L0GngGGZHg3m4HnIngJmE2oHbAG6BHBFjGMA3YEairksM2K4coO8OueUO9ZLEmSJMkEgDarAS4BTjcSJWlVBH9qhqv6wt2GQ5IkSZIJAG1QPUyK4H6yXyFfm/cEcMVauKE/LDUckiRJkkwA6L8a4F5gipEoK0ti+HUV/Kw2TJeQJEmSJBMAlawe9o/gH0aibOWAv+bgYqcHSJIkSTIBUMG8+19RHo/gkt7w+ygUT5QkSZIkEwCVYCHsVwX/NBIV503g0mb4RT9YYjgkSZIkmQAocw3wd+CDRqJyT4EILklGBTQaDkmSJEkmAMpQEwzLwSys/C9YGsM1ObigH8wzHJIkSZIKxQ5oCnJwkrFXonsEX6yGl+vh4nrY0pBIkiRJKgRHABRZDDWN8DowyGhoA1YD166BcwbAO4ZDkiRJUr54F7rImuBgO//ahI7AKR3gpUY4ZwH0MCSSJEmSTACUoBhONApqgZ4xfLcaXmuAr78GnQ2JJEmSpPZwCkARNUFtDt4COhkNtdIbwLdq4XcRxIZDkiRJUms5AqCImuEoO/9qo62B3zbC9AbY0XBIkiRJMgGQYRF8zCionaYAM+vhYusDSJIkSWpln1TFsBAGV4Vh3CZdlC+vR/DFWviToZAkSZK0OXZGiySC44y38mxIDHc0wHXzoKvhkCRJkmQCIBsJAIf/q1A+0RkerYfRhkKSJEmSCYAULYTtgHFGQgW0QwQPN8DxhkKSJEmSCYCUePdfRdIduL4Bzo+t7yFJkiTp/X1TFVIMUSO8DAw3GiqiX9TC5yKIDYUkSZIkcARAwdXD7nb+lYLTGuFiwyBJkiTJBECROPxfKTq9Ec4wDJIkSZKS/qkKJYbqJpgbwwCjoZSsBfapg/sMhSRJklTZHAFQQA2wn51/pawGuG5+KBAoSZIkyQSACuSjhkAZMLQGvmEYJEmSpMrmFIACeQ0694K3gV5GQxmwtANs0wMWGApJkiSpMjkCoEB6wmF2/pUh3dfAmYZBkiRJMgGgPIsc/q/sOb3BpJQkSZJkAkD50wS1wEFGQhnTPYIjDIMkSZJkAkB50gxHA52MhLImdmSKJEmSZAJA+ePwf2XYvkugn2GQJEmSTAConRbAIGCqkVBG1ayGQw2DJEmSZAJA7Q/oR4yrsiyCfY2CJEmSZAJA7Q/ocUZBWU8AxBAZCUmSJMkEgNqoCbaJYbyRUJbFMKARRhsJSZIkyQSA2igXhv97Z1WZF8E+RkGSJEkyAaC2+5ghUCmIYbJRkCRJkkwAqA0WwvbAjkZCJWJPQyBJkiSZAFDbAnm8UVAJGdQIQwyDJKmEdTQEkmQCIBUxHGsUVGLnrNMAJEmlooZQwPaTwJXAs8DVhkWSWn8xVTsthPERbGskVGImAzcYBklSBg0Cdk0ek5NHl/We87hhkiQTAEVXDR+NDYNKMwEgSVLaugNj1+nw74XT1CTJBEAWxVDV6PB/laadGqBXHSwyFJKkIqkGtuO9d/fHJj+XJJkAyLYmmAIMNhIqQVUxTAD+YSgkSQUyEBi/Xoe/1rBIkgmAkhTDR42CSthkEwCSpDzpDIwjJJcnABNxKL8krasaaDYBULqd/5oGODIyFCrtBIAqw9+AAyv4/TcBq4GlQCMwO3m8BrwK/Ad429NEapdPAT83DO9zEPDXFLZ7CXBGGcTvTODClM7naz191Q49gd0JydDdCYnRg4CZJgBKVCPsH0F/I6FSFcHEGGoiWGs0VOZ6J3++e83edQPPeR14OHncDTxj2CRJUgtUAzvyv9FPEwj1TqqytqMmANrnOEOgEtetCXYi3P2UKt2Q5PGR5N+zgNuTx8OAC75IagsHi0rlZxDvne60K2FFk8wzAdBGr4V5bocbCZW6OEwDMAEgvd8I4KvJYxbwS+BqoMHQSJJUMToAY4A9+V9B0x1K9c2YAGijnnAw0MtIqAxMBi4zDNJmkwHnA98Grgd+RJgyIEmSykcEjOS9d/fHlFO/2QRAG1XBcY4FVZmYYgikFusGnMr/ikN9G5hvWCRtpkMhKZt6Jh38yYQ7/BOBvuX8hk0AtMEC6BGHEQBSORhcD1v1gTcNhdRiHYFTgGOB7xKqbecMiyRJJWUmMLyS3nCVx7z1auAIoIuRULmIXA5QaqvewM+A+wlDBiVJkkwAlJPY6v8qPyYApPaZRLiL8FlDIUmSTACUiTnQB9jfSMgEgKT1dAN+TlgpoKPhkJSwBoAkEwCl6i9wJGEpCKmcjKkPRVAktd/JwD1Af0MhSZJMAJSwx2E/o6AyVB3D7oZBypvJwHRggKGQJEkmAErTpLdhoGFQWWYAnAYg5dt2SRLA7w2psjkFQJIJgBJ16lJjoPJlAkDKv1HA34E6QyFVrNgQSDIBUHpqgWNfhU6GQmXaOpkQQ7WRkPJuZ+AmoMZQSBXJEQCSTACUoBOALq/DDqthteFQGerZBDsZBqkg9gV+YBgkSZIJgOyLgFMAYuj5B/iPIVE5ip0GIBXSV4GjDYMkSTIBkG17Adu/+4/vQhdDojK1hyGQCiYCrsTlAaVK/OxLkgmAEnLquv9ohDF3wEzDojLkCACpsOqACw2DJEkyAZBNfYEj1//hadBrDawxPCozQ+phS8MgFdTxwCGGQaoYjgCQZAKghHwK6Lz+D1fB8DPhQcOjMuQ0AKnwfux3sCRJMgGQLRFw8sb+8waY9Bi8ZJhUZpwGIBXe9sAxhkGSJJkAyI59gZGb+P+Oh0HVclhmqFQuIhMAUrGc4/ewJEkyAZAdp27uCSthxN7wpKFSGdl5PnQ3DFLB7QAcZhgkSZIJgJTUQ89GGPITmAQc3pLfmQV7fBmmGz2ViZqOsLthkIriREMglT2LAErKTkO/nN9cDDX1MADYshq2ALbKQb8oLMNUmzzqIqiN//fvmhh4MnToO7R0W9fClNEw4ySY4GmlMvjsTAbuMRLKg58B76Sw3b7Jow8wBBgNVGcwPh8C+gELPFUkSZIJgM2YB127wnbNMDyCEREMj2EEMKIRBlYlDb44eX604c7O+9wCg1q5K1VfhZ2HwtP7wk6eWiqDBICUD78Cns3AfnQH9icswXck2RkB1wH4GHCxp4okSTIBsI562DKCXYAxEewcwxhgRA6qo0105lvrAXh+ZajQ3Fqdj4Ut74KXdtt08UAp6ybGUBVBzlCoTCwFbk8e2wNnJcmALCQCDjcBIEkqomrCfdG1hsIEQKY0wTYx7JncjdyTUDApbx39jbk2DFdtSwKAGGoPhNw9MGtMGIkglaJejbAj8JShUBl6Hvgk8Hvgt4RpAmmaBHQBVpRA7Pol34/DgW2Sx1ZAV6Bz8j66AM3AcmAJsIiwWs5cwtK5LyR/zk6ep8Icp22BLYHeQLfkGPVY73kNwPzkMSc5LisNn1Rynfmtk8/8CML05wHAwORa0C+5DtSsc51e13JgVfJ491owP7lmvwY8DTxHSKTLBEB+NULvHHwwgkOBA3MpNcqmhw9Jm+Wgzz6wdjq8Ojo0jqRSNNkEgMrc34Bdkz+3T3E/OgN7AP/KYIy2JSTgpyTXhHyOblsJPEyoN3IP8AiwxtOy1bYH9kqOz3bJMWtrOyYHvJ40+B8GHgQeTToIajuLACpf+gPjgd2Asck1eTjQqR2v2TV5kCQNxmzgOTEhafvYOtfsl1KMww6E2j75UOyVr/ZLjlkhLQP+mtkEwDswoCN8NAeHxjAlakXhvUJYBasWhi/QdsnBgL2g4c/w3B7rjFyQSiwBcIVhUJl7HTg46ez0T3E/9s5QAmAk8JHkMbqA2+mcvO+9ge8R7i79A7guabiYDNiwXsBRwIFJx39AHl+7ChiWPN5donIlMA24E/gT8KaHQCqKiDAac9+kTTaeUNQ2rX1599pwTPKzucAfCaPpHqSwA7TXdwxwboke1wuKsI3X2MRN6FQSADFU1cM+1XBKDEfE0CErqdFn4Q1C9jwf77PuEOh0NTx+VLjLJJVaAkCqBK8BHwbuJb2aAGNSjkE3wpKEJxFq7aShe3IcPkxYFeEG4BociQTh7t6HCHUrDiYkT4qlc5JsOBC4JEkGXAfcQrjLJCl/tiYUrN0X2If8JvjybTDw+eQxG7geuBx428OYbUVt6CyBfg3wg0aYUwX/jEP2pkOWAvI41Oe7UfUZ2OnKcHdJKiVDF7R+NQypVD0A/C7F7Y9KabsDgPMIIyEuS7Hzv75+wBnAE4S7zrtV6HnZF/gu4U7bbYQ7/51T3J+qpFNyLeGGyY+SToCkttsO+CZheP3rwC+Bj2a88/++NiNwdpIIuIo83UxVCScAFsAWjXDhmnCX5ZvAFlkNyMzCFL/peBaMPzfcXZJK6QLhKABVknMIRZDSsA3FHZXXB7g0aWyeTfqFEDcmItQFepQwBL1SEgFDCHfbX0/OyywenzrgG4S23RWYMN7ceSyt3+k/j7BM7vPADyiP0cKdgM8k7+nnyXVClZQAWAL9G+DSang1hjMJQwwzbV7hLtLVl8BenwlD56RSsYchUAWZDdyd0rY7EO6gFFoNcDqheNMXaF/hqGI7GJhBGGLas0zPwZ7A/wEvJ8epawnscwfgNGAW8GkvI9JG1SaflYeSDvLZlG+dsGrgs8CLwMmYBKuMBEA9HLMmZLW+QLrD1VplcYGTIrfC3rvDQ8udN6fSuEA4AkCV5s4Ut13oOyVTgScJd5ZL9a5MFfA5wpJUR5TReRcBnyAskfj/yNj0yBbqQuVO1ZA29dk+APgDMI8wWmZiBb3/vsDVhGKBtZ4OZZoAWAAjG+CeCG5KDnpJWRYyVgU1CyZtC3NnWUlXGRfD2LdLYOSOlEd3p7jtHgV63Q7ADwnLNpXL3abBwO2E6tPdS/y9DAWmEwrrbeFHsGw7gaos3flfsvIuwqoqnSs4HocBMwkrGaicEgCNcHp1uLvwgVINSMciLWGxAkZOgN6/g/94GirDOnTyYq3K8ibFXcpo/QZjITqX04CzSG+Fg0I6jlA4a/sS3f8PJ43iKX70pLIwHDifUL/jcvKwtHgZeff76IOGogwSAG9Dtwb4QxyGFZZ0dqs3rC3WtmLocTqM/Tg8nEuvwSlt7jx1GoAqySqgsUwSAEcCT1P+tTxGEdagPqSE9rkroVL2rTgsVion5wJfx+J3m7r23UF5TeGqvATAEujXEf5FGNpS8gYUvyMe/RUm7gYzlsBST0llkAkAVZoVKW03nwno04GbKf3h8S3VO2lUnlIaTQ3uJVTKllRefgjkDMMmdUq+nw40FCWYAFgAg9bC/cCEcgnIxJRGMMyGiSNh/iOhAJCUJZPi8hw6LG3se7F/SttenofXiAh3oC6hCDVtMnjsfgGckeF93Aa4j/JY7kut+1yqMjxPGNmjTash1IsbbShKKAHwDgyohn/FMLKcArJPKCyUilWwzYEw4mS4vxmaPT2VEb0by3eZGml9fUmvAnt7R4FVEQrJfafCO1o/A76cwX0bT1j+a1s/ZlJZ+z5O7W2JHrg6QOkkAN6ELh3hT5RhYYttYMsIGlLchZrbYM9t4dlXXCVA2eE0AFWKNItezmtnx/cK4OMeQiLgp4QK3FmxG2G6ZH8Pj1T2niL0k7R5IwhJW2U9AdANfhnD7mXaaoi2D8N3UtUEY3aH3heEKRZSqnLlX0RMetehKW57Tjt+93xKY/57MV0CfCgD+7EtcCeFW+ZRJdG8VIX5Ho4CaKkTcGWAbCcA6uFk4GPlHJTPhHkpqYuhxwWw5zh4eEG6oxJU4d6BnY2CKkDHFBMA7wDL2vi73wC+5uF7n2rgd6Q7WnErwp3/AR4OqaLMBP5uGFrsF0AXw5DBBEATDI8qYJjGR2BMlKGK/LNh4vaw9kZ41FNWaegJw7vA1kZCZe40YFBK236ijb93MPADD91G9Qb+TDpzTHsAdyVJAEmV5/uGoMWG4sooRdOqO905uIgKWFKoM3SZBPc+CHtlZZ9y0P+z0P8ieOCPMGpAKFQlFUU36L497DYT3jAaKlO9gLNT3H5bEgBDCEX/XKVj00YAl1L8+ghXA9sbfqVoW+CYMngfpToK8UHgHmAfT8UW+RpwJbDKUGQkAVAf5mYcUimB+SlsPSms45mphtWLMHkHWPRlePCbMClyXpmKpCEUsbrNSKgMVQO/B/qluA8PtPL5HQlLKNV5+FrkeOB2irc812eBjxh2peyg5KH0nGcCoMUGA58iTAdQAbW4cxuFdYUrxigYOhgez+K+xdDrp7DHKHjiOXjN01jFsBjGGgWVqYtSbiSvBaa38nfOp0yL8RbQFRSnCv84rGqt9zWjVaGmYUHv1jjZEGQkAdAIHwAmVlpwfhXm7+Wyun8LYZc9YfCxMH1p24tHSS2yHIYT5tNK5aIHcCPwhZT3YwawuBXP3w34ooev1foBlxd4Gx0I0zI6GW5JCWsBtNyulOEy8yWZAIhDYaSKsztsNwoeyvhudrwbpg6FpRfCA7FLjqhAmkN1VpcDVLn4AKGw6rEZ2JebWvHcasLwyOrsXipoyvBxPxrYs4Cv/yVgtB8vSeu4C3jEMLTYxwxBYW22BkAj9I7hsEoN0PWw9fhQjCLT2fwcDPg+DLgcnvot1OwBO3h6K8+t+q5Jw/mvRkMlqho4EDgLmJyhDnNrEgCfJ9whSdvapEF7P3Af8AKwcJ3Ofw2hWG1/YAKwNyHpskUG9v2C5FqW74T5VsA5fswkbcD3gT8VeBuLgFcJBZtfBxYAq5PrcjXQkzCSszthvv0YYBuyN0XlcK+lKScAkoPQuVIDNBy2Ohqm3RIaL5nXCGMOgXgEzLgBthwRPuBSu6yEVblQbGyy0VAr9SSdJdh6E0atDAFGJZ3Q/cjeCip/A95u4XP7EQpKpeltQnX7XwDzNpMgeDt5PJX8ThUhAfNF4IAUG517AEeS/6KmF5HdlZKagScJtY1mJZ2DemA54SZHN0JhyYGEJV+HE2pMbE92R5uUEmsA6E7Cai9j89c0YwZwL/Cf5LXbUhesO2GVhaMIhUsHZSBWOybthkZPm5QuSA2hMvJxlRykNbBmKLy2AkaWWr9tf5hxFezSKzTCpTZ5Dt7YMzQKVyYdK5doKT1/SzpfypYDgH+28Lk/Ar6R0n6uAL5LKG63Ok8NvF+QXlLxRcJQ/eY8vd54sjfEdwnhjuNNwL+Tf7dWD0Li7AjgUNJJ5m3Kb4FPlsDn/CPAH7zclZxPAdfm8fWOAm5px+8/DfwF+HvS+V+Z5/dbnXzezyH9KZ+HEpImG9OZkOTPh1cpbo2rvQmJ8ULKEUaEbNAmRwDEEDXC/pX+6e8AHW6GtYeEhkIpZcI7/xOmbgONx8G0n8D4riHLL7XKvfAWIQHQmVCA7AGjIrXbM8DdLXxuHWH4f0qXAE4GXs7ze9+LUGPo/KSjWUyjCEsb35Gn1/tWhs6r2cDFwK/a2OlfP4lwe/LonHRkP58kPCS1zu3As7S8TkgOeJBQrPbPhJE7hdRMqFfwj+Sa/zPS6zfsuZkEwErylwApdv20JaQ8umGTRQAXhXkhffy8wh6ww1FhnmPJiaH297D31rD8a3DvKu/eqpXueu8dvz2NiJQX57ai4fGlFDrJAL8j3BF6uQCvnQN+nlxT5qbw3k7P0+vsRDZqJS0CvkJIblyUh87/hhrcvyFMDTiIMORYLeMUAL17zfthC573BPD/CFPYpgCXFaHzv36H+GpC3ZaFKcXKWmZpJQCaYRdD9D9Xwl79wjybUr3q9Psl7LUl1J9rIkCtMOO9tSSsAyC13+O0fA569zx2VlvjYuATwJoCb+cpwnDT54r8/vYhPxX7z8pAB+8uwnz9n5KfKRqb83dCMcpT2MQwU0nvcyPw0gZ+vjh0NRhP6H9dCMxJeV8fJSQ30+gvbOOpklICoMqlbNaPR9W9MLgqVNUsWc0w6JKQCGj8GkxfEYoASRv0Isxd+d4L8WS8myG1RwycScvv/h9DcecnAtzcyn1srzeAfYvc4I2AL7TzNQYkxyctOUJdiIMIU7WKve2rCfUc/uHHWmppM5wfrfPvh4CTCMX3TgMey9j+PkQYrZZGAsC2ZhoJAMKSNnrvN33/G8KXbMnfPW+Ggb+EqVvBis/BtMX5Hy6oMvC991eVrcOhWVJ7XEvrppSdWOT9ez5pkBZ7XuTbhJWHipmU/hjtW+b3o7RsRaVCWEUo0nxBCsdqXXOADxFqOcR+vKXN+h1hWcAdCaOfrgGWZXh/LyQkaYupS+h2qegJgBi2NETvdwCMOTt7Gbo2y0GfP8DewyA+Gqa/semlnVRBlsOqu2C79X9+KHyuMSwbI6l15gFfa8XzhxPmgBbLGsId7bQSwjOBzxZxez0JNQ7a6hMpxend43RzRs7rZsJUiMv9iG+QdzK1/uf324SCgKVgdUqf7V6eKukkACwAuBFfhskHwbRyek8x9LwHpo6FgTvBo9NDlWZVsO/AY7kNrJs+F3aK4YkGuL8hLNUiafNySYexNUWVPlnkzsNVGWiUXgfcU8TtHdnG3xsNjEspRp8mVAXPGtftlsrTjSls05XL0kgARGHJF23E9TB1u/JcDq1qLow/EnYcAU9eAw+vhbUe8cqyEBb9eiND/V+EfslfJwN/aoQZjfDhePPTiqRK9v02dGyLWV1+EfDdjMTqdApffHDdGLdlid+PpBSbS0MTRJKK5nXePyXUBEA5JgAwAbBJEUT3woStYEa5vscG2PkrMHELWPgpmDYnzNFUBTgKXshB7Yb+bxkMX7XO+qsx7B7DrY3wdCMcGTvcUVrfLbS+kFJ/ijvV5nKyU+T2OeCXRdpWP9q2vOk+KcTlKcJSf5JUbC8XeXsmAFJKADQbok2rgZpHYGwpLw/YEs0w8A7Yewz0HQcP/xFm5sJwVpWhK2Dm0zBhE0/p8Ci8soGf7xDDbY3wUGNYP1YSPAycQOsLpO1D8ZJpMfDrjMXtMopXVK6116tuwO5FjkeOUCV8tR+pkmNSXOVgfsb6qSpQYFcYos3rBJ0eh5G18GQFvN2a2TDx0zBuILx1AkybBW96FpSP+2DW2TBqc8+7C+o38d8TYrinAe5qCmtFS5XqMeBA2lbZfr8i7ucDwKyMxe45ildrZ2Irn78n0KHI8biBsCSXJFVCAkCF6sxt5v9dFq6FukO3Z2DbcfD4OxXS4VkLg/8cHvSElz4D9WfAzt2hq2dEaXoCZh8BfeMWDLu6r2WZ2QNysH89XNcRvtbDLw9VlhmE9dkXtfH39yrivi4Dvp7BGBarHTKBcE1r6ci2Yo9wygE/9CMlqQKux0o5ATDXELVcF+j6BOw4Hh6ZU/yhgalaDCN/ClwIy0bCg5+HmmNg507tW19ZRfQMzNkPesTQuyXPf6nl67NGEZywBg5vgLNr4ReR04tU/v5MWKO9rWvadwG2KeL+fjB5VKrehCVPn2vh88cWef/+Ajzvx0qSVOgEwBxD1DrJdIBdJsODs2CPSnv/MXR7Efb4InAGLBoNj54BXQ6HnWs2f74pJX+AZz4PW8dhTewWWQnbrIQVnUNHpaUN7Msa4aR6+Hwfh7KqbC+DXAh8g/atnjKKtlWmV9tNbEUCYGSR9+06D09JswaA8tFnGwpsm1x/tiEs0zyAUDC2jv+NwO2xTh+vKfleWhGabiwG5hFGZL6dPOYQEoyzsMaICYAYnveK1XodoMMMmHQ0TP83TK3gVnCvZ2DPzwCnQMNoeO4k6HAs7NTFaQKZkAvHZsZtYcRKaz/u1Y/D7MmwfSt/b5cIHmiAK9fCV/vDUo+EykQj8Cngjjy81g6Gs+hGtfB5nYEhRdyvJYQRJZIqxxaEaWATk8cutG1Ube/kz3VXdRq7keeuBV5NkgHPEm7UPMSmaz6pDBMAT5sAaJsIolth6tlw78/DWukVfScnhrpnYM8zgTNhxZbwyEdh1adh+wEhg6kiexrmHgON8zdd7X+T7of6yW3+iHBaDRzQACfWwX0eEZW4PwKfA97K0+uZACi+YS183giKW536fmCVh0cqezsDhwOHEuqJFbsbVkMYXTAy2Y+kCc+LhNVsBnmIysMmv8BWwDN+6bTP92Gvi0IV6GVG47+6zIHdfwJTtoe6reG542Ha3+HJNbDG8BTWElh1HDw8FfrPhx3b81r3tX8u/zbAtEb46WvhrppUal4FjgaOzGPnHxtamU8AFNN0D41UtnoSlvd8HHgC+C6wG9mZNhIR6qOcCBzg4aqABMBWYb7Io4apfT4JE+6GuR1cLm+D5+BS2OFvsPfHYOeBsHonePQsuPcpeCUu3hrQZW8prD4LZmwDi/4RhpO1ewmrF6BXPs6BGL7cC2Y2hiFuUil4BziTMAXm1gK8fm9DnNkEQG2R9+sZD03Jc0Ct1teHsLLHXOAKYJwhUSYSAAkzz3kwDkY+D937wUyjsXExdJsL46+EvfaG4f2gYReY8RWYfj88u7Z9RbUq0nxYejI8PBSWXwkTmkOxmLxoCnPU8mX7GB6sh5M9asqwV4HPEOaAX0ThCiaZAEinQd6SQqg9irxfL3lopLLRCfgO8BpwFtDdkKjYNluVPYa/RPAtQ9V+dVD7HPQ8BqZPC4U9zAhvRg76vA59rgGuCQFb1hee2h0W7wdd9oWtt8xvJ7QsrITm38HTl0M8Owzzn1ig49N/JazsnL/h+50juLoeJi+HzyWjkKQsWZJcjnIF3k6toU4tCbA4YwmAeR4WtdG7ld9LXRfKY5rgZOCXhCH1UnYTAHUwozEsETHQcLVfNVTfBlN/AzO+DKNi7/K0SgzdFsC4vxAWRQaogvlbwOu7wbL9oOskGDQMBkcVlmBZCMtvgRdvgLXPhnNrbBE2G70Ob48KS9Pk70XhxG6wyyI4phe87JmvDNkZ+CRwbYG309NQp6JbC55TzDt2OWC5h6XkpdUeOZuwLGmp+ynw5RLe/yrC3P5vUtwColLbEgAR5BrC/MbPG678OQEmTIW5H4A5i9pZiK3S5aD/3PD479pbESztDq8Pg8ax0DwFuu8KW2wNA6vK5OL7Diz/N7z6N1h6L9QuCmvDFn0O/aLC3V3YuRkeaYKjesM9nunKkPOAGynsCJVqw5zZBEAxl7FdibVwpFLWC7geOMRQqGQSAEkH6zdVJgDybigMfgn6Hw/T74YpmBXMmxi6L4HRTwFPAdf9779WdYJ5tVC/NSzfDuIx0GlH6D0E6vpB36wlCFYDL8Jbj8H8GbDiKah5DQatClXCU08eFXikRe8c/K0RPlP7nsMopWpL4EvAjwq4DeudpKMlnftiro7UOVxmTQKUOKd8Vm7n/25CVX+ptBIAfeHRhlCF1jvVedYBOtwEU/8KT5wI/dbCYKNSUJ1WwbC3w4NH3v//zVXwThdo7A1L+sCqrWBtP4jqoGoA1PSDjrXQqRa61EG3btC5Cqp6tWDI7irCLcNmWL0IVjRDbgEsfhuWzYWVb8OaVyB+E2rmQ9clULca+hLqHGSy1kE36FjgTXSM4dpGGNYbvhfZEC41hxOqHBfg8slfgLqU3tfXCXM5FxTo9Rd76qSiJcP7izkkvypJSriUcGnze6syO///tPOvkk0AJFeun0XwK0NWGB+CsbNgyWFw/1OwpxFJTXUOBiwLD+YSRhC0VgRLCXfwogjIhQI263aUO67z75Iu9tWnOPNhoxjObYBhMZwceXe0lDxDqJxfCP9HWEYprcbdt4EvFuj1l3jqpKJTC55T7OKkg3ElgFLnCIDKUgXcBIw3FMrqCdoidWH+yhxDVjg9occ02PNSeKQK5huR0hVD9xh6x9ArFzoKHcv0ra7uF6pmF6sFdUIT/D4Od3+lS4B3Utz+aYTaG4Ww1MOb2Y5asRMAIz0sUkk5BzjAMKjkEwARrI7hZ4as8I6H3V+GjjvDfThsTBnWEeYVu2ZCDEc3wI1x+SZV1HLLKOw8/M3pUMDtL/LwZlZDkbc3xpBLJWMyYXSYVPoJAIA1cCWw0LAVXi30/jdM+QM83alww2eldtkK3kpjuxEc2Qh/fK081gVW+1wJvJni9o+iMNO2vO5nV7GPzd6GvOQ5BaBy+lU/w6LeKqcEwEBYFsPlhq14DoAxs2HQwTCNUBBeyow90j0nD+oFN8WtqGWisrQS+H7K+3BBARr4L3hoM+vlIm9vMsVdelBS25yI8/5VbgkAgBz8FJhn6IqnE3T+Lez9ELw1GB41IsqK46B/yrtwaCP8OvbuSqX7NfBKitvfAzgyz6/5ooc1sxZQ3CkaXYEjDLuUaRFhdRip/BIA/WBJBN8wdMU3CoY8DeMvhUc6whtGRGmqhrcmwKgM7MrHG+C7HpGKtob0z4HzyW9xyhewBkyWzSry9j5lyKVM+yAW7FSJaNPQ2d5wfWOofryHISy+42H3o2HVl2DaTbBbXJxl2KT3OBBerIItsrAvEXy7AebWhfngqkw3EJLTO6S0/W2BU4HL8vR6S4DXgaFF2v9m4BDC3e1K1tL5/Y8BuxZxv/YFxgEz/ahLmXRqitueBfwbeC75+yuElWSWEorlVhGWo+6c/NkTGEQYxbkFsCXhhs6o5O8yAbDBxnbcBKfnwnB0C12koBN0ugL2Pg8WngIPTYO9aNn6xVI+xOfA8Izt0+X1MLsP3OXhqUjNwHeAm1Pch3OA64DFeXq9aYQ5pcVQnXQyv+qp1CL3FrnBHxEqix9p6EuS09TKW2dg/yJv8y1CXbbfAbNb8PyV6/37iY08rzshkb47MCF5bOshLi9t7rz3DlnoXxrCdPWFvrfB/g/BW8PgYRwyqiLoB09sC1tlbLeqI/hdIwzxCFWsW4H/pPvRyOsc0H8Vef8/Bwz0NGpxAqDYjsC1xaUs2gvoVqRtrQK+BgwDftDCzn9rLAUeIYxm+wRhWsPXPMQmAP4rDncKZhvG9I2CoY/DxNvh2X4OEVSBXZLdkT99gJtjR8NUqpj0118+k/wNobyH4iZ1uwLnehq1yBzSWarx50XsaEhqmQ8UaTtvEe7I/yRJBBTLWg9xXqW+hHW7GvF9wjDHjxOGXioDpsKOL8K4W+BpVwxQIQyDhz8IO2e4Bzi+ES72SFWsvwAPpbj9LsB5eXqtecDzRd7/Uwi1ALR5d6ewzeFY60TKmtFF2MZy4HDgScNd8nqUdAIAoA4eIFQ/VobsAzs9DeNvgif6OCJA+bP69zC4BPbz1Ho41sNVsc5OefufBMbk6bVuL/K+R8A1ZKTAZ8b9IaXtHg98yfCXFGsAlLdiFJ/9Cd7YKxe9Sj4BAFAL341DRVxlzH4w9mUY93t4MhkRYI0AtdkR8ODI7M3931hr6/IlocKtKs89ySPN79Yf5+m1rk3hut0v6dx28VTapOnA3JS2fSFwQsbiUUOGR4dJBVJN4VdrWQVcYajLxnZlkQCIYE0uTAVY5jHNpg/Czk/D+Lth1nZh1MYao6LW6AtPXA1TSmmX14YKuapMaY8C+CD5qQo9C7g/hf3fizD6oHOGjmnHjJ1jOdIbBRABvyIsyZwFPYE7gcO89KjCdE+SAIX0HPCOoS4b48siAQDQD16M4VN4hznTxsG2D8LkmTB/D5gehWqf0iZVw7z7Yavqwn/J5VUMRzsVoGI9RKgHkKYf5+l79tqU9v+DwC1ko6hmHaHy/qVk6zp0fbqXZq4gDA2uSXE/dgVmJOeLNswpAOWrGPO5XzPMhW4uFtWehMRR6ScAAPqE6ts/8DzKvqEw+E6Y+hrEp8D0jq7moI1bfhs09g8V9kvRpfXh7pQqz7dJNyk9lrCMUnvdDDSm9B4OBu4jLDmVlpHJPkwAvgDcRHamJzwBTEt5H75CGCUyosjb7UgYafMQGRjSKqWkGKtyWGy9sFYWeXu9gRPLJgEAUAfnRKGxohLQE3qcD1PfgiG/hpnDwhe5Fxr9t/P/G3hxSnEq3BZEBP0jOMtDWZH+A9ya8j6cl4fO6hLgohTfw3jgcUIF6mI7Idn2ukW2Pgz8MzQ5MuGCDOzDBOBp4PtF6JBEwDGEFSrOAzp4qZGdx4IaYpgL29ZNYZvfIn9LBqefAIggXgsnAc96PpVUJyk6HMY9DpMegjf3h+lVMN/IVPYF8bfw0qGwSxm8ly81Fr5Ij7LpO6Sb1NwKOCMPr3Mx0JTi+6gl1AS4Bdi2CNsbC/ybMP1hQ0MlJxPq2WThc30X2Viaq3PSqHyFMPqlTwFe/6Tkvd4EbOPlRSrKVNqdkmuwCmNFCtscCNxBSsWqqwrxov1gSVW4U1DvOVV6RsHQG8OogNoLYcYWYfUARwVUkAiaroeXDg6N8HLQOYYfeWQr0nPADSnvwzeAvu18jUVJEiDlSwNHERL8l1GYaQF7A38k3PXfezPP3Q54kPSTlDHZGAXwrgHA94A5wG3Ace1IBnQnFPb7DTAP+GXSGVHrPzsqT4sJBUELqQvZW/WjnCxMabvjgGcIhfTzUeR2DPD/CEnp6tQuSPUwKQrD9Lp5bpW2N2DeefDSnbD1KrP+Za0LvDQNOm8LW5fZW4sjGFcb5uxWor8BB6aw3eHAqym/9+GE4cppDlW+hPaPBOhNWBUgK/U4YsLc8+uSjmZDG16jI2GKwWGEof1tmce+JElM/DPFWFQlyYgJWb3+EZJhjwIvE+r+1BNWb1qRtNM6Eu5GbUX4np8A7Ei2i7/+FvhkCVx/TyIkT4rt/xGWjCx1PwW+nMJ2P0XLirDOpvDD9BsJBTfTKAj4FUKx0WI7GPhrEbbza1Kek59cj29OrtHPJu2mpbx3dEJV0g4YQJg+sCVhiu44QiK89zrP7QCs3djGClo1tg881ASH50Il5k6oZG0Ng66GQQBPwis/hDn/gu1y4SRUmRgJD94DO3ctz6RdFMNXgeM90hXnleQL/pQU9+E0QgX7We14jSbCOXxNVj5ThKVBpwBXJe/tMWAm4e7zsuSxiFCIs1OSvNiaMHR/p6Th0t72QQ9CO+PkJBmRhhxwOvAwBRpdmYdjNZoSruciZdiLRUgA1BJq2hxI8abojk6+cz5a5sdvdgb2oU/STlh/adeYMMqkVz43VvBlY3rDv+rhk1EYglntNaL07QzDb4ThzdD8R3j8IljxHOwYvzfzpFLqGUPTV+Dps0JDvpwd2wjfqnXVi0p0HuFOYVrr2nckTEM5pp2vc23yPvbOYAdz2+SRRmOxQxKbLYEfphSDRwnJmZP9uEkV5VnggCJsZxdCkvVYQrKxUNfyKYS7/odQGdNXZmV436J8d/6hSFnqPnBTFIY/xV4jykc1VB8Fu94He86HHjfB05Ph3ip4x+iUjsHw6JOwsgI6/wA1OfiSR70izQGuTHkfjgImtfM1YsIdglUe0g02lH4A/Jz0bjh8E+sfacPnpsrXtCJuayvCdKPbCCOo8tI2AvYDLgfeBKYDh1bQeftIpZ2wRRumVhsKyHzTa0T5JgP2g53+DHu9A31vgCf3gOkd4Q2jk00dYfbP4dGnYfyWoRpppbTCTpq/4ariKn8/IgxJT7MTkI95lC8C53o4N+qzhKGyXVLY9gK84SFVmulsYr51gb5LjiQUS50F/B+hhspINj+6u4YwtP+45DvxL4Qbd/8EPgcMrsDjN4v0CgGWdwIAoA7OJ1RDVpknAw6Ene+EqW/D1o/Am2fCfYPD8EjvWqWsBuaeCffNgS2PC8W3Kk33GjjCM6EivUMoxpemyUnDrb1+DNzpId2ow4F/0f7VF9riDsKdNEmVYRFwX0rbHk4o9ngrITm8jLBix0uE6QLvPp5JvgNXJX//fdIn+1DoolW0mLCsrAmAAiYBLohDJU+z4xViBGz1bZjyNIx/A9ZeCDN2h3s7pV8ZvKJ0hDe+CvfNhf7fhik1RagBkmEWAqxcPyZUU07T+bR/RYIc8AlCgUNt2CTCPNltU9j2V6jcFUf0fk4BKH/XZqe5xxbJdW/XdR6jCat8VHmoNuh2EwAF1gd+RpjDmPN8qyzdoduJMOHvsNdbsM3zsPACeGgc3NfZhmwh5PrBzAvgobkw+CyY0iHdpdCyYr/5FTTtQe/RRPgOStNI8rMiQRNwNO9dJkjvNRy4N2kAF9Mq4CNYD0CqFLcQRgKoNN0BrDYBUGB1cFUUKuU2e85VrgHQ9zMw6W6YMg+GPwVv/QAe2hOm9whVVdcYpdbrCLMPh2lPwfwXYdxnYFK1q3Csq6YmP8OwVZouIv35fucQlsZrryeAj1Pc+aelZiChSNeBRd7uS8BhmKCRKsFynPpTypqAP5sAKILasC7zJ+zk6V1bwhafhUl/gqmvw+h5sPYmeOoTMH0YPNQRXsfpIxvUGV4+DKbfDS+/DUN/DXtv6V3ujYpgX6NQsZYQpgKkqT/wtTy91m3Ap3BU3aZ0J9RMOKXI232QMBLAmx0V/5WjCvCTpCOp0vTjSnmjqc8BroPf10NDBDcDPTz3tF6ntst+MGa/dX62GJY8DK/9G5oegqpXoO8yGEp663unogoWDoFZB8HqT8CQUf9bg1stEMMHYqiK7DRVqsuBMwlzJdNyJnAFMDcPr3U90C15PTsbG1YN/AIYAJxXxO3+GfgCYXlCj03FfuWoAjQBFxCq66v0PEKYMraXCYAi6AN3NcJecViKYpDnnzalJ/Q4AMYcsM7PcpB7Fd6cCe88DMuehKrZ0HMRbJmDPmXwttd2htlD4J19oflYGLQTDI/SqXBdLuoWwVhgpqGoSMsJa8ZfluI+dE06op/O0+tdSSgAdREWetqYiFCI+Bbg+SJu9xfASuCXOB2rUs87VYb/A44BxhmKkvR1wooAZf0dmpkq4LXwRD1MjOCvwI6ef2qNKqgaAVuNgK2OfX8rf9kseOs5aHwWVrwE8WvQYQH0WAZ1a8PyJ10y8laWdYa3+kDjcFg+Car3hr5jYVgnGEF4KE9imGICoKJdDXwVGJLiPnwy6bA/lafXu5QwouC3SYJB7/UkoXDirBS2fS2wGLgB6OShkMrSWuAkwgokfs5Lz8PAVYRi9SYAiqEPvNkAe8Zwq/NzlS9dodsYGDFmE89ZCsvmwoI5sGQOLH8FVjVAXA9xE1QthaplULMMOq5IkgWroUuc3MmJoao5DL99V64mrMVKFazuAKsjaO4JK3rB6j6wdgDEA6FqKHTcDnqOgAH9w2gFO/nFSwDsYBQq2mrge8CvUtyHasKQ0YPy+Jq3JUmAOwjD3RVcB3yWMPojLbcBhxBGIPTykEhl6YnkWnONoShJZwEfBIaZACiSOlgUw4cawioBJ3gOqhi6Q7dR4ZHn01kZt50hsFNIGPI3MsV9OBDYD7g7j685A5gE3ArsUuHHeAWh3sKVGdmfu4HdCLWPxvoRrAhOAag8vwZ2Sq49Ki1NhJWiHqRMR9Jlcn5DFO6QngiciisESCqQ2ASAwnDNczOwHz8pwHfya8DE5LUrtdjl/Ukn+8qM7dcsYA/SHX0iqbC+Qqj7odLzJOFGdFmu4JLpAgd1cFVVuDOy0PNQUr5F0H+Bq48IbgSeTnkfxgIfL8DrriYsN7g/MKeCjuky4AxgKvBSRvdxBXAyYTnkcmnnNHo5kf4rR1h69ApDUZJuAT5KGd6MznyFw95wTwy7RGFpBknK90XQebjKAedkYD/Oo3AFSe8BxhCWoltb5sfzruS9XkJpjHy4Htge+A2lvVzcHwjTTiT9Twx8jrD6SKlfeytxJNnNwIeBRSYAiqwPzGmCqXGYTyNJ+dTTEIhQMO/RlPdha+CLBXz9RuDzhNEG/yjDY/g4oZbCgcCrJbbvCwlTH/cBniuxfX8TOIpwp8wRABtmDQD9jDAS660S3Pc1hKlk36/QY3cnsCvwHxMARTYMVvaBT0fwJcKQRkkyAaB8iYFvZ2A/zgL6FngbzxIqHB9KqFZd6mYBxwHjgX+V+HuZRigc9rESSAQsAc4GRhFWNyipdqWU0ud7NKH2R1xC+7wrYSrZ8go+dq8Q6rZ8pxziUHIX6lq4uAomJwdCktp7EexsFJS4C7gv5X3oRfESEXcSVgjYD/g7pTf8fDpwDGH4/I2U9vD5deWA3yeJgI8CT2Vs/xqBHxKWrP0BoZbBu6q9jEib/fycDOxNqDKfVQ8TRix8gPRr5GTFSsLSwTsAN1DCUzpKMlPbGx5rDo2W33kuSmqP5srOaOv9zs7APpyWdK6K5V/AQYR581cBDRk+PssIFf3HJA3oWyjfmgY5wrz6nYHdCfUb0hxi/wxhFObWwLeA+Rt4jgkAqWXuJdzQ/FCGEgFrCUvH7keo53G3h2mDXgeOB7YFLgYWZ2z/Nlu0sGSHavWDJXXw8Sgs0bDUc1FSW0ReP/T+Rlna8+M7Eu6wptHBOxUYmDRKf0M2Ch/NJwyZPTx8/XMalXdH6lFC/YZBwEeA6yjOXOJXkwburoQRCRdvps3lFICNftVIG/S3JBEwBriU4idg4+T68g1gCHA0pT+VqlhmE5KiAwiFAm9MKRnQCPyFkJidCvRmM4nxsrggLYBR1SFLPtZzUVIrDamDNyrgfR4LDEthu1cCTSUWq+2Bw1LehzhpDK5IeT86EeY97gVMASYC3Qq8zXeSBumjhDtQD1OZ1adbYkfC3bo9CMNSRwId2nHOvQzMBB4gTIl5uZWvUUeYK1ws/0ka3Vk3ETgihe3+hfSnNeXDPoQaH8X2V4qfbKxJPs8HEwqajib/I2tmA/cnj78SCnm2xATCyKtiuZnSK+haTRilvldyHEcDw9txXV5XU3LsniUk7J9J/j6bVk6BK5uM5GvQuSecH8HpmIGW1PJv2r49od5ISC1unL57N3hE0rAZkTy6t+J1lhISb2+u83g26fS/YZjbrANhWOoOhNESvdd51CbPWQw0J43Jt4A5SfyfJ3tDWaVK141wg3O35LO9NeFO/RbJNXfdpWPj5HMdAwvWebwJvAC8mFxn3zGsRb8uj0iOW//k0ZdQ86cqOcYdkmO3mFBgdQlhNMjc5PEGYQpcXpTdkKRG2DuGa0jnTpek0pKrhc5RC+ZLSdqsrsmjZ9Iw7ZokDFYkDZfVSaNmZfKnJKn9ehDqGTUbClVkAgBgHnTtBD9KRgM470rSxrxeB0MNgyRJkipBWQ6VHwTL+8AZcVjn+E0Ps6QNicP64ZIkSZIJgFLXB/4ZhwI5V3moJa0vMgEgSZIkEwBllQRYXAenRrBPBC95yCWt4xVDIEmSJBMAZaYW/r0iLMvwEzazNqKkymBSUJIkSRXW/q08DTCGsDb1RE8BqWLFa2CLAS6HI0mSpApRVYlvug6eqoU9gFNxzVupUr1g51+SJEkmACpABHEdXJWDHSK4xVNBqjj3GgJJkiSZAKggfWFuLRwTwQeApzwlpIox3RBIkiTJBEAFqoVptbArcDrQYESk8pZzBIAkSZJMAFSuCNbWwWXVsG0MlwDNRkUqS4/3hbmGQZIkSSYAKlwvaOgDZ+RgJ+AfRkQqO9b9kCRJUsWJDMHmNcKRMfwIGGU0pJIXV8PIXjDLUEiSJKmSOAKgBWrh9tqwWsAJwFtGRCpp99r5lyRJkgkAbVQEuVq4biWMAL4BLDIqUkl+ln9lFCRJklShbWG1xRLovwa+DZwKdDAiUvbFMH85DN0KVhgNSZIkVRpHALRRD5hfB6dXww7A9bhigFQKF7xL7fxLkiSpUjkCIE8WwnZVYUTAcZhYkbJoSTUM7QUNhkKSJEmVyI5qnvSFF+rg+BzsCPwWRwRImRLDhXb+JUmSVMkcAVAg9WHVgG8AHwOqjYiUqoUxDO8Diw2FJEmSKpUjAAqkDzxXB58ExgE3ATmjIqXmXDv/kiRJqnSOACiSJtimGc6I4DNAFyMiFc3MWtg9clqOJEmSTAComBbAoGo4k7B8YA8jIhVUcw726AuPGApJkiSZAFAq6qFnFXwqhq8DWxgRqSDOr4OzDIMkSZJkAiB186BrZ/h0DF+MYFsjIuXNU8nQ/1WGQpIkSTIBkBkxVDXCwXGoE7CvEZHaZWkME/vAs4ZCkiRJMgGQWQtgZBV8PoKTga5GRGqdGI7rAzcaCUmSJMkEQElYAv3WwCnA54BBRkRqkf+rg68aBkmSJMkEQMmJoWMjfBg4DZhqRKSNXtBu7Q3HRpAzGpIkSZIJgJK2AEZWw6eBk4C+RkT6rxkrYZ9BsNxQSJIkSSYAykYMnRrgsCo4JYb9jIgq3Mxq2L8XNBgKSZIkyQRA2WqEsTGcCnwM6GlEVElieKwK9q+FJqMhSZIkmQCoCPOga2f4cAQnxLAPUGVUVOYeiOAQO/+SJEmSCYCKtRAGV8PRcagXMMaIqAzdsQw+uhWsMBSSJEmSCQAB9bBHBCcAHwF6GRGVgctq4UsRNBsKSZIkyQSA1vMmdOkKhwLHRXAQ0NmoqMSsjOCztXCtoZAkSZJMAKgFGqBXBIfHcBxhFYEORkUZ91oVHN0bZhoKSZIkyQSA2qAJamM4NIZjgAOBGqOijF2obo7g1N7QaDQkSZIkEwDKgwUwqCYUDzwC2AuoNipKUX0Mp/WBWwyFJEmSZAJABbII6tbCvlGoG3Ak0N2oqIgXp5tr4As9YL7RkCRJkkwAqEjmQdcucGAyMuBgoM6oqECej+BztTDNUEiSJEkmAJSiGGoWwdQYPhSH1QS2NyrKw3k1P4Jza+HqCNYaEUmSJMkEgDKmEYbGoXjgQcA+OFVArbMUuLgZLugHSwyHJEmSZAJAJSCGmkaYCBxCWF5wnOeZNmIxcEU1/LgXNBgOSZIkyQSAStgCGFQN+0TwgRg+AAwzKhXvdeDnzXCFd/wlSZIkEwAq34TAFlWwZxRGBxwADDUqFeOBGC6ug9ud4y9JkiSZAFCFWQTbroW9gclRmDowyqiUlTnA9Tn4TV94wXBIkiRJJgAkABZD37UwiZAMmAzsBnQzMiWlCfhTFVzXC/4dQc6QSJIkSSYApE1KlhzcOReSAhOAXYDtgGqjkylvA3fEcFsdTItgtSGRJEmSTABI7TIPunaEnarCCgO7EP7cEehkdIpmFfAQcHcO/tkHHvNOvyRJkmQCQCq4GDo0wQ7ALjGMJvx9e0KRQc/z9lsOPAo8GMO9a+C+gbDMsEiSJEkmAKRMmAddu8J2uZAMGB3DdlXhz22AGiO0QauBZ2N4qgoej+DBXvCklfslSZIkEwBSyUlqC2wFDGuGYcDQKPz57mOLCgjDSuDlGF6O4GXgGeDJWnghgjWeJZIkSZIJAKnsvQade8CwGtgiB4Ni6F8Fg2PoH8OgCAYSHnUZfhuNwFzgzSj8OScHb8bwRjW83Dv83Hn7kiRJkgkASZsTQ6d66BtBL8KjJ9Argt6ER8/k570i6Jz8TocIugPkIEqeuyGrojD3/l1NMawgPJpiWBGFvzdGsBCoz8HCZqjvB/XexZckSZIkSZIkSZIkSZIkSZIkSZIkSZIkSZIkSZIkSZIkSZIkSZIkSZIkSZIkSZLa5P8DoOshq5UaXPkAAAAldEVYdGRhdGU6Y3JlYXRlADIwMTktMTEtMjZUMTQ6Mjk6MTkrMDA6MDBBxwOUAAAAJXRFWHRkYXRlOm1vZGlmeQAyMDE5LTExLTI2VDE0OjI5OjE5KzAwOjAwMJq7KAAAAABJRU5ErkJggg==;clipPath=inset(0% 68% 0% 0%);" vertex="1" parent="1">
          <mxGeometry x="307" y="485" width="66.59" height="51.33" as="geometry" />
        </mxCell>
        <mxCell id="zkf6LBNEYV9gsRVNjPlm-21" value="" style="shape=image;verticalLabelPosition=bottom;labelBackgroundColor=default;verticalAlign=top;aspect=fixed;imageAspect=0;image=data:image/webp,UklGRmw4AABXRUJQVlA4WAoAAAAMAAAAdwUAMAMAVlA4IKg2AABwwgGdASp4BTEDPm02mUmkIyKhITKYiIANiWlu++U3bSveTR9/4r+yfupsU3Xv7p+0P9i/dHpLt1Pmf9s/xf9S6Z6xPNE8Q/Qv+N/hPyZ+gH9m/3P87/jXwR/iv+P/53uAfwz+m/6/+0/4b9hPYA9wX7nf7T9QPgD/Qv73+3Pu//5X9tPct/ov8N+yHwB/3X/V//DsEPQc/eL1gP/B+6n//+Vn90f3A+Bn9jP/z/x///3cfSv9Pv7v/eO4n+0/2v8dPafrce2nx0YO7S/4x9pP5n9+/cr81Pvp/b97PyU+e/YF/Gf5D/o/zS/wv7gce3u/mBe/H1b/e/438g/kB+w/5Xof/If6n2Avyv43b8f/0f+T7gn8v/tn+1/yHsMf9P+Z/0/7n+8v9B/z//k/zX+f+RL+Wf2H/s/4D2s/Yt+2fsm/rb/5Ql+ftFMAtur2imAW3V7RTALbq9opgFt1e0UwC26vaKYBbdXtFMAtur2imAW3V7RTALbq9opgFt1e0UwC26vaKYBbdXtFMAtur2imAW3V7RTALbq9opgFt1e0UwC26vaKYBbdXtFMAtur2imAW3V7RTALbq9opgFt1e0UwC26vaKYBbdXtFMAtur2imAW3V7RTALbq9opgFt1e0UwC26vaKYBbdXtFMAtur2imAW3V7RTALbq9opgFt1e0UwC26vaKYBbdXtFMAtur2imAW3V7RTALbq9opgFt1e0UwC26vaKYBbdXtFMAtur2imAW3V7RTALbq9opgFt1e0UwC26vaKYBbdXtFMAtur2imAW3V7RTALbq9opgFt1e0UwC26vaKYBbdXtFMAtur2imAW3V7RTALbq9opgFt1e0UwC26vaKYBbdXtFMAtur2imAW3V7RTALbq9opgFt1e0UwC26vaKYBbdXtFMAtur2imAW3V7RTALbq9opgFt1e0UwC26vaKYBbdXtFMAtur2imAW3V7RTALbq9opgFt1e0UwC26vaKYBbdXtFMAtur2imAW3V7RTALbq9opgFt1e0UwC26vaKYBbdXtFMAtur2imAW3V7RTALbq9opgFt1e0UwC26vaKYBbdXtFMAtur2imAW3V7RTALbq9opgFt1e0UwC26vaKYBbdXrUHRv/d0IyktN3V7RTALbq9opgFt1e0UwC26vaKYBbdXtFMAtur2imAW3V7RE4Ej//qWB/+8iON9b6U4vQWryy92imAW3V7RTALbq9opgFt1e0UwC26vaKYBbdXtFMAtur2ilzwD7//o1d//Vmd15dvbbdcD5NQhg4MLbq9opgFt1e0UwC26vaKYBbdXtFMAtur2imAW3V7RS/qAMBX/8Irrhca6burqPPmHK3eI3aNVUiKYBbdXtFMAtur2imAW3V7RTALbq9opgFt1e0UwC25HStpX3/wa8/kRkALbq9qGcgPX2OvV9DEfYqZ5+0UwC26vaKYBbdXtFMAtur2imAW3V7RTALbq6m/Cb0R77q9opgFt1OraDcPkkSvaKYBbdXtFMAtur2imAW3V7RTALbq9opgFt1e0RQeE/x02Bzebur2imARJufCsv/8/aKYBbdXtFMAtur2imAW3V7RTALbq9opgFt1Md5fsZqKYBEWMEls5Ec4ZDvoLHoAW3UxcjDlUnCV7RTALbq9opgFt1e0UwC26vaKYBbdXtFMAtur2dHfuWssxRwpsZ5khn6DMyT/ch0Zy7qquNQVo/7Np66gxGyzKYolL2P9gLYckomtjzXjlTTIAW3IwQXcId3KVtn7RTALbq9opgFt1e0UwC26vaKYBbchpG82+Y2OIyhaOZ9iH6nE7LtLQKujxikbCx8sg0+7Kr7ufEeCjOduQx+eMU+3QUxs0QnFWhrNC36f8z4mRkLjoKJtN3V7RTALbq9opc+xb1yh/BbOS93V7RTALbq7eoVraDZo+4WpvCwVi5ABZosUVs6H4nqHhsfQCHhAv9YZ+y3/yQzY5alOi6S90ya8KtyyBMOvjPP2dvyylfnz9opf58AEBvQ0bJMuumtkYL3CSIzrpu6vaKYBbTNc5NEBZl1g59AdO7PpxT/+0cdT+0j9jErJBPpsI9z81V0vt/O4R1N0xcjZWFqwYntYC/ItL/oDrWgiUNpejThFTod7CmuXdawPlbi39+ly5SkOACs5j76+RZHrlQ4i6jdDvuOew7UMA+YF6QOLyVG/neTAQmgOHdzZRL4D3Wi1ScCsQlRNaCy3ZcPDcfIC4f5Vxh5rraWq3cMnnUc3vnvSh+TnV/YOBDaMqQODtN3V1MfQc1lkxtdbX6p23SXCFP/7SsUh07bl4QJS2w7Vl2E5SFhgcoYXMFiuVbxiuXi/CUemFMgCxWORE+BAVf4VpVx8PZNUVhMFpuc/mO+RDmarT94FYpcHGCJovF7YANrc+E94fB05AsbzTMtLBQPon/j1958FgMd9r5A1+6Z5t2z4LZDGQIzV9vRjB8z/7Dk9yvZFD9NTPQGr3Qdg4E0na00J2NME2TzNbRTAIlVSXrB/2qAkkoSD1HxhT/C6S92U8TN00y60W95DKSctbG0jkS5LrP8L8BUnxFpqTIBNG4N6Sfr2BJ7YyZT8xJB1rvITgPNMqRKkHvGlks1Hi3xPhfD1gOwLSToRhxMHUS42CtQL4WrSIAHPaXeuaWgi7fCMLZW9/BhNY0g0bif//P2dLgLLBq9YKVE2tDiI/3+1O3bALDT0oV41N3Ia4C534cYeRAukLMaZm1c9FG5vMPU/eWdA1oZ1/C89zj49qt4qyMnRxOpjMprkTPiolefQ+3qNGn+UPidkvgZ1EMUS18O4ZtoN4TSrDTDO92HXsO/78agXF7JfKJbG9YA4gWJE+6r9zJB99IflZb8KWGHroWK6E2MGRWWtA/Urk09ddNnIHXTwAEPiY2i7ZmbYwVtERjeztumc4EGn//TtG/N2/LbJ++UKxjBiGf2mRC8z1K+6OOGtqpmPPDk9H6/M3C5TcWaYuNz1kKmYMxQOc+cHR9IECAFiU0EbLIUFUh1mJp7vzVagpDwhx8OtfCEXnP5ZIEm+KJPwuHTKLq3qF9hdveDlaLZ98U6p3ZPXsDpJN5v/gsdoeRczleEfX7nUS21EY6z1CtEO3ClqXDWgBYBKeqJ1njRUitplswmc69xpzrp/0UnhlTvVF7eyOHV3Xwks3HW7g3LNY5e6YSjB5TByPDnu90z3rLmVCWkU9xcluFxPCddjToTK4A5wJtUjZMH6JY0ljpuQ6+z1P7ZXZO+rCOtuKxd4WzrbHj94m5fDGcvPPi6IZT3YgNd8ZykhNL+zCBsSdXh8MOKU4059R6349MROqfWL9EnJugcsnvwAAimOsjmJ4KKTQTiaaW09jfBfdd6n4To8pD7DUEmImnA/JDxwDe2PkHj+ftFLmDI2b89r6A4mRQbxZrNvqg3XPDGKskyMgcHmV7OLvWyKcSBVr2nnRkpAC8zsiWrxA9p6unm7q9/KWqJmwgBbdcmbVvVXc72r2iy1UzzYiV86/OXo55+0UwC26vaKYBbdXtFMAtur2imAW3V7RTALbq9ZJ349gd26uzuRgG3ihFsP5rMZVfr+hD3D+7nf0vawA+cGCALpMjLrpu6vaKYBbdXtFMAtur2imAW3V7RTALbq9opf0h4SqU8mgj3CNQknKgmTdrd7gdgYfxd+MhKuwlUUUgKyH/voUkXVRF6PdOb9PcygerLOchLvO90Wqq9opgFt1e0UwC26vaKYBbdXtFMAtur2imAW3V7RS/olh0lp95TqszG9MqT7WH4LKhi7kAWTsi9/+pA92rOTrA+PHABl7hAJjflJNbMQOA4I4rglL2r2imAW3V7RTALbq9opgFt1e0UwC26vaKYBbdXtFMAswISrJdK0VUaTD9IH/j/OFmaTtYApC1UpyBf5FbdXtFMAtur2imAW3V7RTALbq9opgFt1e0UwC26vaKYGEnphzyeBvPdF5W7vlfK+V8r5Xyf+D2qWyVkAhl5GXXTd1e0UwC26vaKYBbdXtFMAtur2imAW3V7RTALbq9or/bGLYHVTPP2imAW3V7RTALbq9opgFt1e0UwC26vaKYBbdXtFMAtur2imAW3V7RTALbq9opgFt1e0UwC26vaKYBbdXtFMAtur2imAW3V7RTALbq9opgFt1e0UwC26vaKYBbdXtFMAtur2imAW3V7RTALbq9opgFt1e0UwC26vaKYBbdXtFMAtur2imAW3V7RTALbq9opgFt1e0UwC26vaKYBbdXtFMAtur2imAW3V7RTALbq9opgFt1e0UwC26vaKYBbdXtFMAtur2imAW3V7RTALbq9opgFt1e0UwC26vaKYBbdXtFMAtur2imAW3V7RTALbq9opgFt1e0UwC26vaKYBbdXtFMAtur2imAW3V7RTALbq9opgFt1e0UwC26vaKYBbdXtFMAtur2imAW3V7RTALbq9opgFt1e0UwC26vaKYBbdXtFMAtur2imAW3V7RTALbq9opgFt1e0UwC26vaKYBbdXtFMAtur2imAW3V7RTALbq9opgFt1e0UwC26vaKYBbdXtFMAtur2imAW3V7RTALbq9opgFt1e0UwC26vaKYBbdXtFMAtur2imAW3V7RTALbq9opgFt1e0UwC26vaKYBbdXtFMAtur2imAW3V7RTALbq9opgFt1e0UwC26vaKYBbdXtFMAtur2imAW3V7RTALbq9opgFt1e0UwC26vaKYBbdXtFMAtur2imAW3V7RTALbq9opgFt1e0UwC26vaKYBbdXtFMAtur2imAW3V7RTALbq9opgFt1e0UwC26vaKYBbdXtFMAswAA/v/DMzwzOIOFgAABflgAAAAAAAAAAAAAAAAAAAAAAAAAAAAAAAAAAAAAAAAAAAAAAAAAAAAAATJN5x8KOQLztSIx5ENVyOJz+niIT94ixct0LqF4uMnnvlTANscTjURTb9yTpLAlbFKLvsJh9EgQCmj2a1Ro+B3U9t2BiairW2OYAAABG5X00oERTxs4aWKN1q8VZPJACi6zN67Rodd3WdpcAaBF8kEOtPTSR6Cz4ps3T2L+wc3AGdFNdkEreFqrveTZ1Y0En8U6pZfQHbeax4BCKG/M1Hn8m+Pwiud41FdxKSPyNbSgb4VUvVNHRTzmVaPe3922iDpRNqcAdDvpSRI5jsCqz5/bL5XltuHEHsscocwqLXd4gtuu4i123Tv4tNNN31Kn88rC0w9lR4dCaNZscM6RAUv+AAACV+obcJFe5lcLiYLoo/MQoZFV8abLlNAcRdsO/hFq9sA3G4WMgpJw1xYe8p0yZNgAtQg1mCa0W1ooBMG6sDmHHP8v8mFtztaEnrLIISxMDE84qYYQhme7EAo596o4xdWO4NGziAIkuKq4isAxTmgveUD5G6qAGLmdD2SKCNWO/YL4p9tTp//4D6Nf051LAEJALXX+T08m5TLQD1XScia52/i1pqXCZIQKlSINhGrgqEAcMBxkAAAAZpm937l564nloIcObNemLGiZHOKuEjV/olrlK+ZTbd7/AFz0zr4TO2W+PexICbqviu112yrF2buwgcDCyOdRKGRX6hpp3eh6BKCctJqlckNAp5mCxGzJWsvL9sk6nL6zwxeeoNpKDJ/ABx6w3HW11mtJV+tYRIkOSKSbJEAb0AGmhRVd1JRyWS0A14p2Efa3Jo+S41txjQhSzUk6ov1Ab0mtobuwCrh6+bt2M7JyjtqPOAAAGpg72h1K96Nta1rKfT4irBrGZC/0QSeqOvqyiLTE/rPwaICbrjlhu4D5pMSUOByRftxNK+g7xZ4GgTja6vuC5tSQAvH5sofSZm6+knTrp6ggfohWEvKKXFmf04GGhKlgOPgCqIYKZfynGINVEPGALU1JEfl8ECxcpicDgGNwbC8c968ZpMSYYXNJaR2Qw8rA/m40AicApOeZ2Q0fV9e5iMvcJ6dGuKMfCUesAAANK+HGf6lqtkBZWWmWrXLgQZngD157JkC7v9naj2g7as54/ImZOA8QRuTJmmRt54qHdNeeAK+x1J5fDt7hwsSM/Co5OOoxDq3ufYtRzIVvJxgFff7f1l05D0IXJQAALw6Z11bKTkOZu0gq6Nj3x3nBXMQlaVO01S8ED9+PVsPAbnF5XFrt0CLKOgyWuToHTYkzwLGLlFAk16Nb9FExfhxtuxkADzafx9j6Nc09ideAAAGHipm8lBJhyic4FcnJDuNggUICfVEY/4h9vD5EHmUqh1hsU5+ld0dYHW0e29CB7AuddbOkiqooZcXW31N4cbOF2aqbic8FzeEA5l2q+asn5LE1AfS0LlWPweHQCmtm6Uhb6/5/GSgIyI5iXY2i8Jto4PC+TByYgtGp+cv72deR1JLsRUyml8QlxDSvgGiUDHl6VgliMfnscgK9SVJ66PlMCY8rLf4Z5HFPm/pzoc3sQ3NmDgAAC3zT4MztyCVCsyrUKTvUBuqpyCDLV3ut68R1DhrYXr/llq/ZVfzRkOaew2xfpikRIAW163xkBvztmHcYxqx2phgiXzg/9za81A+OuMOKA5k0zsT80ES0E4nrun7ITxWqWovv9iT7oB6k7Higqgj8JN3zH2EG2+wwY44UYZRmXMWWpnSu7Dl+0VttS8/E7KWWokClTao52Gr+4p3l2BTQ/rEDW/66gAlDqvqWLqdFY/l7x6fSDmV8mmDZv2HJhlfqHnCzHSOfmMPFFzzF+5Vb2kmGjD7Sq4nDE4vrrTQPvlJIzkTkjvSvq+/X5FgoZi7ntggBl6heiNzaw5k7YPMeKry/iX1x0Icfi+ukUJxLxyEe9eipW2LYhgiJeiIIu8B1kK+1Tce4S4kiOUcyuVzHGeizmmy8LYkCYFf6i2uHAf0MqlHF9RpvZFeKHGwVrk83kbfAcR2fe7MI33o7pOnmr/Sl/8S0qZgXGFk7fB+yDpUU3+eZPWeEthzs0auSb4nByR+EGHj3UKVrR4i8MtcO+R0ifexOsWi+LNbLDgRPcZTg9tTEr9efyMlUMsKAAGuOmw0VMXsBHN7AdI8bIgtKIZ/bjKo/cAwrvDu+0H2mxRdxEwwuoUchBYjzDfdI7FC7rBnRx458hMyc6H1jRbR0K7DzbUux/io2ZEbv5grRzuaKIeweOTEljDKERnmwRETMgY3wbaV7VW+W1F1sZHloO/EfLq4mt2/w7oRHucZ7cLyDh+eVlFueM4RfkPqzjPmQmfmrYG4yQQ1mo7JFhEF6/D6Ve/8gP1+y1HxN38MHz11JceOxa4H5wB/kV+hE+0DnCrpPl6Lc47tNtGmXj3TbLi2Xcoi6BK0tJMqhAYoJVsjS1m9tlZ0JabmrqzVmaYAPV+qlG9RjIg7IihksRbUgSklE1egrU+F70+W3Oo168oipcj/emdUsRTc3jy+uKwBCJUb1c2xhC13AHWcSyJv3rZ5FF+wqLsJkGBtp1xTeunwX6zwyvWhabMgOK6qMibD4SAXdeq3ju6cWAX3TRtsfOMIiBGsI8feW9/DFLmkTWjM/bOL13PRA7tKIhv9Vc0OEGWV3w0ajTYf97VNXoXXU148Q6hqI2JMr1FaXN+sH/6oZgpsF2B+ycUblIyETLxyHTjqt8vlfJspB8PLfRPWcMAlR10t92nxD8z6Xo6UDyBIofHgNgQt+k2cXLre52zJCo36Xwzs/i2pkgwr/kBkRi30rdbZkiwyYfLpmEPxn9+G0q8HCWOEKxlk/rHlTUHtnBP960v9Xe0UTSUQvK1y+HrSTW6Uh8sR45EFcwqkhfH9mJ4KwYM83onvcXagcuZrEKKVedufGeRTFJTSuz7n7VyLfQuX6KiHsGotpT59Ku38/ZrilTCVVo7u6//bDm6y78rR8ajc8rqGl9ieI2YOjMacpr+166Tj3wgRYCzzArKSvIYF1FSPBvtc8v29RNql5Vq7JhqVkrhXmJMoL2309Do0reXUW7yz+9hJtNHqQ9IjEs1l8fBs17I9nCEfY9C2IxB5/6BEbN3WyIKeaai/24Kuyf/0tLtC/AvfJpL4+naEO/wlUYUWNj9AIi118AnaRfHaHLmjGPsrkpldkqIrf2CeOtZbjY4QLyOofm3n5X13as3mfOsQslSKAlg2wOxgQDuBZlx9l06yAFnM5lBijUp9Di31+nKecQRMFTbPOK7Gai3AVl5xzS8Yd4YhBAmdwWoIOn/rN+mE++eYWeOt/QY7kdmti/iMyAHB42yD4d+ea3J/qFNtoiMf2RZLeJ+P9lvF/OMZtjmMH8Qp3pPPiHetetjWvlZdUrmm7A4tv3e2U+hkRSdmSR2z4lT6WTAZ7zVcaTxcWiSR2z+FT6UVPgNvYzCnzo5qT690jKPCp7nlT6SVPSLtYbpMjWL0WGf68vm0ZVjk2n3OdFhWow2C+ETI4yWV5Zkkr/RJsx9fXaWxuCGd9VDd+hCPPfZ8MZ73fNgo87IEk/b4XP9KNqpG/F/wFhuXeArzg0THlaOhiwyMR1Qce2ztb/WYArQ1XtcIND6j5HM1WXM7h0UEpTYZkVeXXeV4UadF0GbOdWZNI9i1744/3eOW4CFUXWp+SX2lbZESuucL6TOzMv/f6FhlijQ4vXdYPJKSVx4qvpO2tOY/Atzyn165qU6wdeBtEC8wIlNlpg0cIGdXObtJ8wjKu/lUWQrjKkEzMsxC7K1boIQRnFzHFSz/iyO2u47v0Sfs3Mj0XZTd8TG5NNPE98u4g/D6BZqUeOQzqJZ0qwC53AqimD/i/NBrUc7ONdGaCBBJLa77FnPPr9mSa6nI9pJk46biaoUmDS7WdFmfp3eK2mqP9VzsplkF8SYIAp2XzrE+DnD04UJePXwjFc3a5mb020Guh9zDVo5hSSoSaR3x9/hBaQ10LPHdfGjGaH8Mb7yaLQ85PUaz9MArlOqRhX3KToH9RO3kC2ZZXz3caa9IYGmRrGsPZ7Q4k9jNqPEi8rs3D6dqXjAkh03/LGTarjdZ7Z0BRl/Tq5qHqyNUgyZJEF7aRSPZe6i6NKpl49kG5yNFJbn2GTRdlr9pPBF5SVnCpLi4ne6accWBaZPHJBDkpz9m1NJyPwCk1gPKcmech9cVwaxR86RBDT4QlnYEALrfoM/ZB3wi3BfaUdXgkX4y4qu+YBTbuxC+boa/oJz/02Js102HJKCH1dCnXUAXb57SWkazNXsEBNJlDtn5TrTEj6HZ9k4Zzl2SwlXfN8/Y0kzz2NOI1EY5Acjl2ABvlTjqCm9GxBBQOfu5gmDJxwZz7F88pUHP/s3Y+P0NDR6P5tx6N7Q1VuHD2dEThnfi5xs8Y70eSJHjr1ABt18jWKKVEM/lHqjbPEaueRV82GKPz64JqRv2xmsY6eM5xEzWuIOSaJlGwT1qfhgCKlcxH3L4EMQqBCzq/PEPupM/mQyG81hZCo7QjEy4Q+71ihK7tZpxl1j/DSNfbUg/KC5MvmtWtLNvOIF2BwBnnMHtjKwE1957Z6DvOvo8Pdk5vy1LelwmF62+RU/4/xLnjJJvItYjn+eKYa8u7Bz/qmksU7Y2jJc5+3Pa7A9Lir0mSVEFyTQOHnPR25yz3uTiPBXhy0DO2Nlb87VGeu4g8xnUppsU2voZUOcN77Fzd4pWaXy11Wt1r1bUEi9o3525WGV4BeaTWg2qzS85/ImVdA4/xoQ0q+l3hcjJdGQWTJilCorO1BO7KNMeJpu8b7p0yHx4IJ8XPU974ls/GDiNEjtfKmhsX2NXCkmNGdFrRyl3jMzl1qaCQXbNONh2jQtjO2BkDuCxIfGYj21INjpDuKT7IRzykXN0vaxcE1miPeCcYmaHxyFU3Jpi8Ak0Imx4FHY64/GLVN7Zgz7DunCZuje9bg8GH6v5arsuwoS+EWaFVX/IP2Bj6lIQAXz+Mhgx/GSwdXlMRmBdqadklhcICOSvKdHWl5Ki/HrK2OGWcTVzFCA+Vc08/ZjHQvBfheEICxFxOyE8UclD6S1l3zp+okn6UUEpVmt7fC9iRfc97nfrhSytJ/1+srGMDX7MptFxPjaMN3aXXygQO2oA3Ixuyzy6Ye3on3yYI1ZKRwztZsWS6SHFOpWQJ9piMNZpVKVu6kkRKJm/+4zRCrzMPU2VAlUdZevAx1zWtVtZs4hLJPXGrjQ9k54AOnZrRLvNTJvJQb4VP3WWyz8+zZORxqB5R1LC/IEvydbn0uR7onq8O1xI47xKbBZOyLDQamidCf9Fh4HdsZ6isw/80C94lqogorOoMUcMrRpbcOLQ6f59LmnW6hHSIq5Ek4fgopMdICKk9Ukml3vEwvScVftnMV2d31OqCXhPxhE0bFzWpYyoyu7Np/48pglTVTkSvEnmaXtJwdhhPxq/5vOAf1sHapvRZLJ2roEgV4hSSSsQ3va/HT2NE0pBxyL5AWHAY9LRmGKI/oKlbb5UxZkRCTTsCExJM+Qty+eofX/tV0ZKPIylnqOervqdlLHfj1zLlT10dJtw39Nd7GTfKOu4C/wUu1I2b89s7oWlXfEl4bZm9ltO1SAOMFmrzhhSiMz1FoSsKmEHUPLLNplkxk2RjgGQAFbRLeb2DxBG+jMJJTh9qpzsP2i12E4DeTpqts0XSD8K3fo4lNQmSoK4a8Bu5ZU0IySO+5XwQUs7wuC/Rvx80NDIN+qSd+LKi+zW1tltHFfYMMrVRgyOmMPM7OnIbtyZRI9aePWG9/n/tMT74UHVz/vr2RMkcFnd1v3kwJJF/pfAy/coxc0GPkDZ9rp2h/dUOx3wL607GeNIUJmqdRLKZskFhnnPKba1Wv0DxlsIk/R6LvK9n60qtGKrkKcWWfcZFmV1xlMKG+P22B5pQVbliPrqiLeaYEaBqgW7dAdibJJYuZ1V74mXNBYeTUcGHnpMTvzxOLty0kKePo/ThoQchrv1TgK8gSGFb71aoiXxUzAYjHq+lykm3j08IT0wQieo/zkObpwWYJ9PBl7+Gz91J/agWnIEZi5jRXO2EQrew3yXyqpBLip1eGgEckzP+zGxnLIrqgghjSetG0olVRnqFMB0zzq8R6NWak6D1NsbV2QLHnTTQaNex6M8PtxcxY49/HjEggb9rf2ZIwfC+9VozAtGy/GPbt218MWOIHvnhhCj6TFI+wmWrrUXHADEEms285L0qNWkuCCXDAh6tT/zKxj9AgEeFZFj6zg2nbn5Jf8VPVO68v57C54/PS9kmLJKHr88diJJEnXD7V+b5pMQi8dQ6aMYD+C9f2jNWatGzdv6/irrFez3jaTHzt+UlSPtxO4Cs+U0Il2Dff6q/g3IYtBWwV7h9qGkLJRNMCbgyQkUrnuxvxz4B1GPvAdXqfqj0j5HIe4S1T7KX45FwqlDsCivGm9TiOmJ8WKEfnkPg+ZfCjjQgmcvTnnyJsI0aMKo0anOjiHa4T86UCHnKSfRoZn2OTIrgDLHzENczmovMpy7vLnVRhan6OhXt8qgYEy2fsMt4V4rEhQSEDRgjBrqccOCkPMxKkIInAGilx4mCGB1rfLwQo7a9743TBa94TtFdkFR29ydQuLKS3NC68iHL0J3adWjpi9kPRs5iNK9mNV6OjWswl7L8CUMm3/cLGJw+EV/KJUh5kMEtNiWL4uhIoT+L4IdH2IqfbttuEejO3Wur7z5xVc8lqEnxTg7+r5CviCrHjOawClKilEQu+4NgJfKnhYRKPO6EQO6Xgput4X2purh2Z6cREP+GZHibUQzQmwdfbSsGiUm2bB9Q13aut+qfg2yWB4DSicnXkqqRkkuCXmxBMyLAEKIWLlIpcilSf+qY+31JccsROvjalFmGJCUnU7chF48vO+dBDb6cj7+Ug1ICt4Z9Nbbt4A6pY/sw3l/GcZ6R8gZCeSECSZSyT0RB8XUdwwELAFXGOMNElZzgpMu/zCFqOGhU4E4D+fI1+8tBgzMDziYEOEOW1hWbH+x7lMfUTxcldgLEZQJI+VnuuZRazChYmqlafzPfYS320qamuaa1tKc/TqlWQ5ESb49gCzqhczLACbQUtTW3QfsbnE+ewOjWWr4dZRjFm74mmo23fjJQ8YNCZKXXzms/eiPY9iBYy2YEGYvirSa0c+pk+1WqQeEDjX7/ahqxZj+1RXYCpmy5VHUA66YBdHngMAIBePHKllmU2yO9dsDOFp8Zjj9bj/PgrzSYbcEdA2uBmRPjstlSpxD6Pi05QD+Hx0bEy8VhoAmJrLJEXDmTm0TwERu85q9otpyVH59z+6J0M9o5ciJTBlxJsSzggKAXixjSRayE6OU5X9v3VBPlUiEy6WM0n5KaFvVV/YaJ85Zj3ejVRAkbBT+AOXdgZl2YU6woDZhdrzlXak7ohQCA4v7h8ZCzr3IZ5ZQ/Q4CHKGHv1MqJDkHaITQFxS0YbynGmyQiaDZYxDCYK48i8/FG6RdYvEgyQUVfwmXJVpifjXm99oqAeS2RU122G2C10aN5k8i5YQinyxUgqzztbJrZob1k48ePD22KB0OI7BhhmYa4S0c3dVawRzFuMiM6k4d4B+NWWGe1BTAh8dYKiOBpq1wLbj36mJKsMbZA3WUoQfJlLXyiuX993b4alrsVQsarYioHoh4P3icWKUNT8yqgQn2+R436eYyuZozLwWMy+whqFsXqrNJiQdZBjVm1Qfdxu8fj5QqUyApLeqXoFBw6Lj8m4ZYhwW7NrG/7KgWTaX4xWixBD/sNueemcVv70Yv8gqJYI61KrlzFA5E6Mfg0ZsKwspkJc990feO2azb1dVWHnPb51UgdPfHmX5sWeiL+AS6zfh44B1cPpcldFqzDZi6lyMXMC1wtZsVQT1+OyB95rLDRIsdOkW6af8AlkK2E4GdQtrgb20L2JRl3new1m0cMHnc/RP7Rpa1gMOYSZJkkzjTPffsgRuVWRie+YkTbTRShu/ViE/CeQgRtJUkXfVw/EDUIxhV9gym2Pdy+X+Y3K539EcUFOcarCgwAhCj0gUVJ+kmcufguYgBqAw43NP4Gg3mrN9ACPEW3sfv/myt5pBoWXmfWcfeJyEmZaFU/8Wqchc6IRaG/xQChtADPbQ/eCTppa83tyHDd1DRC/yT4p/uamMzUyyRwk8kXEP4mkkBx9maAfo4eR2lO791Ll7oEAW3JVPUx1KHNsIiGTHSZmxssV1Q3cZEB4E2EwE18EBWBMkhSTJmRFyhHzcGAkZfHUiHku1RZt+XGxeEojvsOggO63zLfNe7fsMC85Ski2jHpwR4FWWwtl4xEHL21gpy4FcvXt/GoJx+G787KzvJueRK3Lr2fTC0PH/n/338q0P4P0SEP5O5aJgAzeCfsOnb8VFU8kqBpFSrZlAJu6owdhh2zkM1AhTY28mZ7U2AhrNcXle6aKCK71fuSdYNipqs2ypm937Vu764mdxZTzXTYFF4kimQAytPDVOcykafxH0/R0K8p8fvyzWSkerYe6o4qnU/IeZo4OJ6POl4SxVCQjn3vWiDG+lCa6fx8tGZcQApHcUNHHnuJ4EtjxyT1KC0A9I5mUxqmBDpCw3p73ztkc1EddSVq16D9G9R4PsqXr97+t55WdBxhiWHHXJK+X7+sT02e2JU13isTvJemlF5o9R9tLc4hQ8ZUDe08VEUY+vpqRYek2H1cUU114Yy/YraWynZ6WuKbhIUxxd8yji5UlyVHLFUAhNnmAIimNXMXfndzMmMV4roWHfteqGKoYtn5na5qGmWbFIqSV8PV2/TKi47Ex2SMjjH+ed4XD/tuf/kfRxFrkf0063CetmRtRTIjR4TWwe5r2jLpg6QMDfKscTCY1Oyyz2Nh72h7w3tU80j1FDptgR/UHJoT8wwrqB1lHqAy/iXiiqjEWzamRbcHyA0pWLT1U6g23wvxQu3GFLYqio7QALziKW+Qas8808JcVaUblepzi59DaG2rn5CX6y1dsT17gJ17rYtTduex74OBPxXCP2SjP3iTpUhlJhr2YGJZ/vA+nP/QP3A9gnMjNgmaH5NlV6KpLtvetFuDZ9GE+lpIaCiB5vKQuOGmk0uedk+/pJSG/CkZd/VZzCsM5gZathmM3MzYLK6Y82kTWZFvFPde7jRPrN8PgzHQwF5hqGRYj9NnryRDg/cyImMNbAOGyHEQbvSdWYkVUTG9rFThuEwt/OMYW3GC3IflTeoyUDAscF3TYTE86dGYdfz8xKnI5WjGyeUHj/Naqu1uHGdTW9wF3rV3QqQSCl3KeZHnyI0hpg4nlcgFv0cb9h9JtsI/OBhV2/dRRn5JCSOlAfj/ej9MDnSatP4IOuRuuSj95+/yGN5PrcebzJOuwFLx6mi+DAkoNbKIifgEuk1QeS+feE5I3hMdPWoJNxXfs00rppGW1dzMxRBnITPoPY3Oatoq9+AciZ1AFC5P/tLvd0CNlljeXOJCTjJ4RHfFjFa0cpKbbLXWY+GbEItBNlDsWcE8MOmiUHN0UroNW4WI830Xs/lXLSlHrEFGqwu8GNydOlRQvzTQMWq8SKb8xLRmm/U3FOt7BI/gzZyx2w37hlrPKHrDhHJPF/+QDeYI3F58UPslKHCM5+wdZevfhu0QAjL75gL8ekpQtwe0l7b1WmWBHZplFJSQEJWvArFk8jwRnMLqmUeeAPyxk3svOjXuWvzzhmSSF0MvBauICdb3eY3J54i1TWUjTFibqitXC57rX8As1CUewZ5hE9hkB2Y10NWsKwmH5eeLioTHg1UAq98bcHN4rnzNLVF9xR5zeFtkZk7/492D2YS+5Oua3hcXg8HNuOlYSnp2hiow9N9JPwICAhCNQp+1SGM3W2ZC1HPOPYuZzgVqzzARsE9OjXFEZvxlfCPRFM8iEmF/s6xWoVNrLZsVAPhUfSqtjiapUkjnA2mNQB0gGljqsTVGCHkEUEzTtFTqWU611krSiDrsdhH4iy+FF3AMc633j1q2z29dZj21oWew6meRJLFXa2AY6beN6nxp5aoTZikyn/rxvbgX92m5Z4SLfxe3pCFtX6Z6l7WM79U9vg32XAurbsH4FKh8vm7nlL2MpU1MeSpLKfptNdZ+EQGmuv3LfdLldzyGOcXRXRp8Uf/4ILPhgtLvAJhDdFpHZgK430N5X+osz1btB2f7wnc1M4tSTZtTvETu8H+qZ/v40zq/CHy15q+fuaY/ErEO82nPdjoiFiUufrUM6BmXMWNI1gHuVF6nLYVxFjZSJiGuj2ekF9qkIMGxlbxjX+1ffC+OZglvOeGFNHbPd2+72wCmNpcZkdIp/dNSBF57F5Uo0M9oWy58Pg0pvjVH63EIvQwFtilgoblxwK99ShwFQlFP3aZynu3Hpx0USy5DRIMCZGUrELqakag6ttRldZ47OO730GegtLEi/6nhf1eM95x3eST1szW+B7W9xDIq9Fjig1h1+YZ7FpZOwfcdSMy1pu6Ix1Wud2EF2MBoMn+5rwhNmAY19wWruEmSat46bGeEdZZjnGa1R6jQd/BqFwPPI4Eap+z3JzqunGnFl1xp2Zqt3rVtz0Swx/bfRlNyIO+OHRoTfu00h8P1sQQBqY+/5dQ/gbaUF1Vnxgx+nokRD832ObAf/9XPEN795HIPyx2bTeW104X7Gmk0PQB+OmAVJQdERQf4B+zlNPHcMCKjqzsAWn4TSZBcvPQLyKkoWaR510I5qOuc5CDYPmh3vn/kxiUFcV47bDXwdzuj9EP/jL5O6VTftxWVmkDjHaL1CQzli22fRtcKc/c7EnJdBqlVxn9zSIx8XmbpBjtNqEs98JjnQKCgV4FGvpxLNVgn6ie/daABWx4RqYwOMOC3v5TGJkNLNJuepKX+U0INaGOqsOBeIzOnH/u/bjrio6kc/Q4epVhkqOuJwMswnzYAKFm+sBEIpLDpiS0bHqjU4ABvGFb1Pj/EpNVlbyk84LpB6t4hmrC9P692Ol0VMxh/xYXKuM7fn+OC8gywCUlwq6UToZhkuH/DJt2FpgUHAXsbVcmlMnDyLWh9TWGNVvrzQ2AwmZ9r2yUqz3KiXfu2a8j53I8f4F4MlKzDzJKEXfp+ClLfFrGXPFi0aVopF3ReazgfCPX50zt3tR0WHYGBdDHAmO619gDryEuhrUCxOp6jm88kWGaOYTPYdTn037JLGye6p4SKuc4yCm2HNKsEk4od+qgjJ/Vlay1xovr94O8LtAGGNferAJyn3EROH9DnvxjYMrDaSgkT3ntvlXdAQNqa17r+KoGbsczNCthw9GV43cFrVHuueJKeomI93aK8wxYIkCgO2ZT28DxiofbAhyegHH9C1fY16JIawRQV1tMJVZgmu3zMyn7wVoFr3FAo49cgfsoiz5SZC8d1pRtu6U8APePrOe4NYeCP5uKuuKIO/7fQgUfXFcnQZ8InYO2de8Ld7d/ugPIBTZHEGKaU02fl2hAAAAAAF2ekLuETCejscma8Eb4tpT1s9iyyi2R1tjAuA03dbi6Bs8cUb+vX4NOu2qbWADmYAf+OjukRKr3aAYDqfbaW2LnHJvS8H/5gRfnWGLv5w5PBin4FKh6ijyXExYt2cnFFYnfAKizoyCxBDw7vMMqUUdgAAAgrYGmyslBuF4B88pXkhdGFE9Lb/diw0DZgTPovZ/6QXm8/QFaFQqBFLW2l+i2wKSHaXVFvnAJO6s4Rrl144tcXzUkYm7xM0R/j1vmPXnRs4kHVKOXYrmQrM93ANer7DFAGpJtkfvh/C9L/E8nF79Nh2dzRFNz7DcuCpqU/H3UGS1YexSSqFOVfvTk6P1qAq6wGzhdeC2XFcOCEMOWLMAMyM5L+zndFOUMQG9TW/WsBdimBjTBuN32aAXQV2idkc96whiVOm4OWm7/f7kFiNpPjcUfZB6+q5SI//hgMCz/qvnhDfQwj1dkgzgv7wn9Zc/K+0dGQZYgOt5KjmZXyvgk2apy32eeatp6CWM+kVAWzhemSCBuWsmEntCTypI+YQZ6NEb/muef6N8+MF/L6bBp3llzNBfd5OfhEN2iS2QAAF1w2fvOt4uIh5tWZNNbvYIGKN+zQGA/iNNYj+3fdIckBezwO8adOD8zG0XB7ekN6f1fm3t4HVz5/mIahCTd01+9zqoYRMl6mVGScOymW25CRzL4/WK9e2OrSbHuWUHepVIaP4QkOllUdKpJLnwazyEHdxPfpR6AKulOV73gVrZ6eI4VWxa/ItwcWI3eAIPTg2r0jGA7Foobto2HFUw3LY5tgyvnCoNRorHjAeIVT7CtOE30+S6uwT934x8SgJjpEDf9jiHFibndDlcckuI5aYjFFoAjaikhi4fK585vR4YzX43v5RZK81vweZogg8RbSs5oqI/kIn1T4PSAdEo/KWJl3VxA95KRWsT67soEYKn/4WjWn7IpWNEMnhibwmrLbXghzVGYBobit0hcRe9FZ8vE9rmThdw/6s9gAJRmCSSwRlSu/mqun5pdU7WHkJPtaZtutoTZdA6KUd9iZ6nyb9Qfrd0DPHiXj2zHqsVUFSGtnT9pnI3c+uwEn6HQlr9XlKp3oDtHm5w6lQMG9OjZIcDMCDvGEVE8Z+UCvg2dwnnV4EN4cD3d3aL/OO0p6CL32KKMrOc8mfgAht4x0lnTbn+BvNQ7GEsqN0exLM15PtN2EwMiW3vpj9/yKSUfOHtG8NuDmvM9FTsIfKhiiJIAAAA3z3sOaEJXeEGJrABM+JeFM+rgkB2Y10NWsMx1mijT40tLxN+ZVSXO3BzeK58q2KcAk7qQo64W1SK8cWfSv1clFOD5kLcHuqMQlYYmVDZAJgjMB0im0UJ0fSiPLP8So62nZCEgwqFNF7CHOdk2m4rPxn1aE6eAwtTUDXqrG5TkW3/+neQY+F88H8prVNiZBAr5bQ32TSxR7qrm3W08gLeuRwuy9Xu5Lr7nNnRvFmslZig3PjbTC95ath5Zw2CHIZ0Y7OLt+XDo4T1V0qYzo8nx362oOqr9IQ+ZKSb34QQqro/3NNCp0Z+sikX36yLu311sSPJQng4VVTgvUjaM0IHSXYP4Z9tJKTcE1vhe8w3tQnBgOSyDWBFc8vFxESYWnhssFSP/izOx30xOec71kUQ8dP4ChNbGjasHQinBxLnYQAF07xjOo+SdpyxwAe85q2CtUtVnaI/2z2uNZABwLxbj90frURH/j2A2Jj0mA/9G7oJAv6j3+q+6b0jC4vNcBQGIK+2pf+z0J3rhuxTs06B8Ez/L7CkZSkLYtPaDviAal0zgTkynhfIIOaxCO4mp6uhqBOYZhR2ij7G7OP6JXytTHIBuYuoRVUzNH45vgPkM7+cOS7XR+e/i5/o7E9Q6aF9TSt3PKXsZS4nZ8144AABrwNp/z1Vk3uAthrZxWhs+cdvPtqeZaVYywAjvflLKPLzg3wjuz/tAuxFATjTx7EDBi8toC+cgFX9AGPFU1PQvOuixb2hu9U+o3nYCWiLA+6A4AmXEcuMfegMsNLVS8+NJ5Pgm6tcXg+TcXUJWtz44PXYilkRwsbtsqnvVw8uKIqvPMclgzMudd3u9G2kfzcVdcUQd/2+i/yHl/2J2EiInYO2de8WLS18anYaXCzj2W7H/RoIxoIUAAAAR2qySDXczF7qjgY3dlwhDM5S7VEt7qpnLvBBjRTtyF0U6X21fLap6Q9K/Fw30/igeZq/kr54AyJAOC8EsRJFaao6fvu/ad04XrfuSwbM2/FmLOkYtwCigptSlQXrAAAAAAAAAAAAAAAAAAAAAAAAAAAAAAAAAAAAAAAAAAAAAAAAAAAAAAAAAAAAAAAAAAAAAAAAAAAABFWElGugAAAEV4aWYAAElJKgAIAAAABgASAQMAAQAAAAEAAAAaAQUAAQAAAFYAAAAbAQUAAQAAAF4AAAAoAQMAAQAAAAIAAAATAgMAAQAAAAEAAABphwQAAQAAAGYAAAAAAAAASAAAAAEAAABIAAAAAQAAAAYAAJAHAAQAAAAwMjEwAZEHAAQAAAABAgMAAKAHAAQAAAAwMTAwAaADAAEAAAD//wAAAqAEAAEAAAB4BQAAA6AEAAEAAAAxAwAAAAAAAFhNUCDbAAAAPD94cGFja2V0IGJlZ2luPSIiIGlkPSJXNU0wTXBDZWhpSHpyZVN6TlRjemtjOWQiPz4KPHg6eG1wbWV0YSB4bWxuczp4PSJhZG9iZTpuczptZXRhLyIgeDp4bXB0az0iR28gWE1QIFNESyAxLjAiPjxyZGY6UkRGIHhtbG5zOnJkZj0iaHR0cDovL3d3dy53My5vcmcvMTk5OS8wMi8yMi1yZGYtc3ludGF4LW5zIyI+PC9yZGY6UkRGPjwveDp4bXBtZXRhPgo8P3hwYWNrZXQgZW5kPSJ3Ij8+AA==;clipPath=inset(23.71% 67.67% 26% 3.33% round 49%);" vertex="1" parent="1">
          <mxGeometry x="55.72" y="561" width="39.55" height="40" as="geometry" />
        </mxCell>
        <mxCell id="zkf6LBNEYV9gsRVNjPlm-22" value="" style="shape=image;verticalLabelPosition=bottom;labelBackgroundColor=default;verticalAlign=top;aspect=fixed;imageAspect=0;image=data:image/webp,UklGRmw4AABXRUJQVlA4WAoAAAAMAAAAdwUAMAMAVlA4IKg2AABwwgGdASp4BTEDPm02mUmkIyKhITKYiIANiWlu++U3bSveTR9/4r+yfupsU3Xv7p+0P9i/dHpLt1Pmf9s/xf9S6Z6xPNE8Q/Qv+N/hPyZ+gH9m/3P87/jXwR/iv+P/53uAfwz+m/6/+0/4b9hPYA9wX7nf7T9QPgD/Qv73+3Pu//5X9tPct/ov8N+yHwB/3X/V//DsEPQc/eL1gP/B+6n//+Vn90f3A+Bn9jP/z/x///3cfSv9Pv7v/eO4n+0/2v8dPafrce2nx0YO7S/4x9pP5n9+/cr81Pvp/b97PyU+e/YF/Gf5D/o/zS/wv7gce3u/mBe/H1b/e/438g/kB+w/5Xof/If6n2Avyv43b8f/0f+T7gn8v/tn+1/yHsMf9P+Z/0/7n+8v9B/z//k/zX+f+RL+Wf2H/s/4D2s/Yt+2fsm/rb/5Ql+ftFMAtur2imAW3V7RTALbq9opgFt1e0UwC26vaKYBbdXtFMAtur2imAW3V7RTALbq9opgFt1e0UwC26vaKYBbdXtFMAtur2imAW3V7RTALbq9opgFt1e0UwC26vaKYBbdXtFMAtur2imAW3V7RTALbq9opgFt1e0UwC26vaKYBbdXtFMAtur2imAW3V7RTALbq9opgFt1e0UwC26vaKYBbdXtFMAtur2imAW3V7RTALbq9opgFt1e0UwC26vaKYBbdXtFMAtur2imAW3V7RTALbq9opgFt1e0UwC26vaKYBbdXtFMAtur2imAW3V7RTALbq9opgFt1e0UwC26vaKYBbdXtFMAtur2imAW3V7RTALbq9opgFt1e0UwC26vaKYBbdXtFMAtur2imAW3V7RTALbq9opgFt1e0UwC26vaKYBbdXtFMAtur2imAW3V7RTALbq9opgFt1e0UwC26vaKYBbdXtFMAtur2imAW3V7RTALbq9opgFt1e0UwC26vaKYBbdXtFMAtur2imAW3V7RTALbq9opgFt1e0UwC26vaKYBbdXtFMAtur2imAW3V7RTALbq9opgFt1e0UwC26vaKYBbdXtFMAtur2imAW3V7RTALbq9opgFt1e0UwC26vaKYBbdXtFMAtur2imAW3V7RTALbq9opgFt1e0UwC26vaKYBbdXrUHRv/d0IyktN3V7RTALbq9opgFt1e0UwC26vaKYBbdXtFMAtur2imAW3V7RE4Ej//qWB/+8iON9b6U4vQWryy92imAW3V7RTALbq9opgFt1e0UwC26vaKYBbdXtFMAtur2ilzwD7//o1d//Vmd15dvbbdcD5NQhg4MLbq9opgFt1e0UwC26vaKYBbdXtFMAtur2imAW3V7RS/qAMBX/8Irrhca6burqPPmHK3eI3aNVUiKYBbdXtFMAtur2imAW3V7RTALbq9opgFt1e0UwC25HStpX3/wa8/kRkALbq9qGcgPX2OvV9DEfYqZ5+0UwC26vaKYBbdXtFMAtur2imAW3V7RTALbq6m/Cb0R77q9opgFt1OraDcPkkSvaKYBbdXtFMAtur2imAW3V7RTALbq9opgFt1e0RQeE/x02Bzebur2imARJufCsv/8/aKYBbdXtFMAtur2imAW3V7RTALbq9opgFt1Md5fsZqKYBEWMEls5Ec4ZDvoLHoAW3UxcjDlUnCV7RTALbq9opgFt1e0UwC26vaKYBbdXtFMAtur2dHfuWssxRwpsZ5khn6DMyT/ch0Zy7qquNQVo/7Np66gxGyzKYolL2P9gLYckomtjzXjlTTIAW3IwQXcId3KVtn7RTALbq9opgFt1e0UwC26vaKYBbchpG82+Y2OIyhaOZ9iH6nE7LtLQKujxikbCx8sg0+7Kr7ufEeCjOduQx+eMU+3QUxs0QnFWhrNC36f8z4mRkLjoKJtN3V7RTALbq9opc+xb1yh/BbOS93V7RTALbq7eoVraDZo+4WpvCwVi5ABZosUVs6H4nqHhsfQCHhAv9YZ+y3/yQzY5alOi6S90ya8KtyyBMOvjPP2dvyylfnz9opf58AEBvQ0bJMuumtkYL3CSIzrpu6vaKYBbTNc5NEBZl1g59AdO7PpxT/+0cdT+0j9jErJBPpsI9z81V0vt/O4R1N0xcjZWFqwYntYC/ItL/oDrWgiUNpejThFTod7CmuXdawPlbi39+ly5SkOACs5j76+RZHrlQ4i6jdDvuOew7UMA+YF6QOLyVG/neTAQmgOHdzZRL4D3Wi1ScCsQlRNaCy3ZcPDcfIC4f5Vxh5rraWq3cMnnUc3vnvSh+TnV/YOBDaMqQODtN3V1MfQc1lkxtdbX6p23SXCFP/7SsUh07bl4QJS2w7Vl2E5SFhgcoYXMFiuVbxiuXi/CUemFMgCxWORE+BAVf4VpVx8PZNUVhMFpuc/mO+RDmarT94FYpcHGCJovF7YANrc+E94fB05AsbzTMtLBQPon/j1958FgMd9r5A1+6Z5t2z4LZDGQIzV9vRjB8z/7Dk9yvZFD9NTPQGr3Qdg4E0na00J2NME2TzNbRTAIlVSXrB/2qAkkoSD1HxhT/C6S92U8TN00y60W95DKSctbG0jkS5LrP8L8BUnxFpqTIBNG4N6Sfr2BJ7YyZT8xJB1rvITgPNMqRKkHvGlks1Hi3xPhfD1gOwLSToRhxMHUS42CtQL4WrSIAHPaXeuaWgi7fCMLZW9/BhNY0g0bif//P2dLgLLBq9YKVE2tDiI/3+1O3bALDT0oV41N3Ia4C534cYeRAukLMaZm1c9FG5vMPU/eWdA1oZ1/C89zj49qt4qyMnRxOpjMprkTPiolefQ+3qNGn+UPidkvgZ1EMUS18O4ZtoN4TSrDTDO92HXsO/78agXF7JfKJbG9YA4gWJE+6r9zJB99IflZb8KWGHroWK6E2MGRWWtA/Urk09ddNnIHXTwAEPiY2i7ZmbYwVtERjeztumc4EGn//TtG/N2/LbJ++UKxjBiGf2mRC8z1K+6OOGtqpmPPDk9H6/M3C5TcWaYuNz1kKmYMxQOc+cHR9IECAFiU0EbLIUFUh1mJp7vzVagpDwhx8OtfCEXnP5ZIEm+KJPwuHTKLq3qF9hdveDlaLZ98U6p3ZPXsDpJN5v/gsdoeRczleEfX7nUS21EY6z1CtEO3ClqXDWgBYBKeqJ1njRUitplswmc69xpzrp/0UnhlTvVF7eyOHV3Xwks3HW7g3LNY5e6YSjB5TByPDnu90z3rLmVCWkU9xcluFxPCddjToTK4A5wJtUjZMH6JY0ljpuQ6+z1P7ZXZO+rCOtuKxd4WzrbHj94m5fDGcvPPi6IZT3YgNd8ZykhNL+zCBsSdXh8MOKU4059R6349MROqfWL9EnJugcsnvwAAimOsjmJ4KKTQTiaaW09jfBfdd6n4To8pD7DUEmImnA/JDxwDe2PkHj+ftFLmDI2b89r6A4mRQbxZrNvqg3XPDGKskyMgcHmV7OLvWyKcSBVr2nnRkpAC8zsiWrxA9p6unm7q9/KWqJmwgBbdcmbVvVXc72r2iy1UzzYiV86/OXo55+0UwC26vaKYBbdXtFMAtur2imAW3V7RTALbq9ZJ349gd26uzuRgG3ihFsP5rMZVfr+hD3D+7nf0vawA+cGCALpMjLrpu6vaKYBbdXtFMAtur2imAW3V7RTALbq9opf0h4SqU8mgj3CNQknKgmTdrd7gdgYfxd+MhKuwlUUUgKyH/voUkXVRF6PdOb9PcygerLOchLvO90Wqq9opgFt1e0UwC26vaKYBbdXtFMAtur2imAW3V7RS/olh0lp95TqszG9MqT7WH4LKhi7kAWTsi9/+pA92rOTrA+PHABl7hAJjflJNbMQOA4I4rglL2r2imAW3V7RTALbq9opgFt1e0UwC26vaKYBbdXtFMAswISrJdK0VUaTD9IH/j/OFmaTtYApC1UpyBf5FbdXtFMAtur2imAW3V7RTALbq9opgFt1e0UwC26vaKYGEnphzyeBvPdF5W7vlfK+V8r5Xyf+D2qWyVkAhl5GXXTd1e0UwC26vaKYBbdXtFMAtur2imAW3V7RTALbq9or/bGLYHVTPP2imAW3V7RTALbq9opgFt1e0UwC26vaKYBbdXtFMAtur2imAW3V7RTALbq9opgFt1e0UwC26vaKYBbdXtFMAtur2imAW3V7RTALbq9opgFt1e0UwC26vaKYBbdXtFMAtur2imAW3V7RTALbq9opgFt1e0UwC26vaKYBbdXtFMAtur2imAW3V7RTALbq9opgFt1e0UwC26vaKYBbdXtFMAtur2imAW3V7RTALbq9opgFt1e0UwC26vaKYBbdXtFMAtur2imAW3V7RTALbq9opgFt1e0UwC26vaKYBbdXtFMAtur2imAW3V7RTALbq9opgFt1e0UwC26vaKYBbdXtFMAtur2imAW3V7RTALbq9opgFt1e0UwC26vaKYBbdXtFMAtur2imAW3V7RTALbq9opgFt1e0UwC26vaKYBbdXtFMAtur2imAW3V7RTALbq9opgFt1e0UwC26vaKYBbdXtFMAtur2imAW3V7RTALbq9opgFt1e0UwC26vaKYBbdXtFMAtur2imAW3V7RTALbq9opgFt1e0UwC26vaKYBbdXtFMAtur2imAW3V7RTALbq9opgFt1e0UwC26vaKYBbdXtFMAtur2imAW3V7RTALbq9opgFt1e0UwC26vaKYBbdXtFMAtur2imAW3V7RTALbq9opgFt1e0UwC26vaKYBbdXtFMAtur2imAW3V7RTALbq9opgFt1e0UwC26vaKYBbdXtFMAtur2imAW3V7RTALbq9opgFt1e0UwC26vaKYBbdXtFMAswAA/v/DMzwzOIOFgAABflgAAAAAAAAAAAAAAAAAAAAAAAAAAAAAAAAAAAAAAAAAAAAAAAAAAAAAATJN5x8KOQLztSIx5ENVyOJz+niIT94ixct0LqF4uMnnvlTANscTjURTb9yTpLAlbFKLvsJh9EgQCmj2a1Ro+B3U9t2BiairW2OYAAABG5X00oERTxs4aWKN1q8VZPJACi6zN67Rodd3WdpcAaBF8kEOtPTSR6Cz4ps3T2L+wc3AGdFNdkEreFqrveTZ1Y0En8U6pZfQHbeax4BCKG/M1Hn8m+Pwiud41FdxKSPyNbSgb4VUvVNHRTzmVaPe3922iDpRNqcAdDvpSRI5jsCqz5/bL5XltuHEHsscocwqLXd4gtuu4i123Tv4tNNN31Kn88rC0w9lR4dCaNZscM6RAUv+AAACV+obcJFe5lcLiYLoo/MQoZFV8abLlNAcRdsO/hFq9sA3G4WMgpJw1xYe8p0yZNgAtQg1mCa0W1ooBMG6sDmHHP8v8mFtztaEnrLIISxMDE84qYYQhme7EAo596o4xdWO4NGziAIkuKq4isAxTmgveUD5G6qAGLmdD2SKCNWO/YL4p9tTp//4D6Nf051LAEJALXX+T08m5TLQD1XScia52/i1pqXCZIQKlSINhGrgqEAcMBxkAAAAZpm937l564nloIcObNemLGiZHOKuEjV/olrlK+ZTbd7/AFz0zr4TO2W+PexICbqviu112yrF2buwgcDCyOdRKGRX6hpp3eh6BKCctJqlckNAp5mCxGzJWsvL9sk6nL6zwxeeoNpKDJ/ABx6w3HW11mtJV+tYRIkOSKSbJEAb0AGmhRVd1JRyWS0A14p2Efa3Jo+S41txjQhSzUk6ov1Ab0mtobuwCrh6+bt2M7JyjtqPOAAAGpg72h1K96Nta1rKfT4irBrGZC/0QSeqOvqyiLTE/rPwaICbrjlhu4D5pMSUOByRftxNK+g7xZ4GgTja6vuC5tSQAvH5sofSZm6+knTrp6ggfohWEvKKXFmf04GGhKlgOPgCqIYKZfynGINVEPGALU1JEfl8ECxcpicDgGNwbC8c968ZpMSYYXNJaR2Qw8rA/m40AicApOeZ2Q0fV9e5iMvcJ6dGuKMfCUesAAANK+HGf6lqtkBZWWmWrXLgQZngD157JkC7v9naj2g7as54/ImZOA8QRuTJmmRt54qHdNeeAK+x1J5fDt7hwsSM/Co5OOoxDq3ufYtRzIVvJxgFff7f1l05D0IXJQAALw6Z11bKTkOZu0gq6Nj3x3nBXMQlaVO01S8ED9+PVsPAbnF5XFrt0CLKOgyWuToHTYkzwLGLlFAk16Nb9FExfhxtuxkADzafx9j6Nc09ideAAAGHipm8lBJhyic4FcnJDuNggUICfVEY/4h9vD5EHmUqh1hsU5+ld0dYHW0e29CB7AuddbOkiqooZcXW31N4cbOF2aqbic8FzeEA5l2q+asn5LE1AfS0LlWPweHQCmtm6Uhb6/5/GSgIyI5iXY2i8Jto4PC+TByYgtGp+cv72deR1JLsRUyml8QlxDSvgGiUDHl6VgliMfnscgK9SVJ66PlMCY8rLf4Z5HFPm/pzoc3sQ3NmDgAAC3zT4MztyCVCsyrUKTvUBuqpyCDLV3ut68R1DhrYXr/llq/ZVfzRkOaew2xfpikRIAW163xkBvztmHcYxqx2phgiXzg/9za81A+OuMOKA5k0zsT80ES0E4nrun7ITxWqWovv9iT7oB6k7Higqgj8JN3zH2EG2+wwY44UYZRmXMWWpnSu7Dl+0VttS8/E7KWWokClTao52Gr+4p3l2BTQ/rEDW/66gAlDqvqWLqdFY/l7x6fSDmV8mmDZv2HJhlfqHnCzHSOfmMPFFzzF+5Vb2kmGjD7Sq4nDE4vrrTQPvlJIzkTkjvSvq+/X5FgoZi7ntggBl6heiNzaw5k7YPMeKry/iX1x0Icfi+ukUJxLxyEe9eipW2LYhgiJeiIIu8B1kK+1Tce4S4kiOUcyuVzHGeizmmy8LYkCYFf6i2uHAf0MqlHF9RpvZFeKHGwVrk83kbfAcR2fe7MI33o7pOnmr/Sl/8S0qZgXGFk7fB+yDpUU3+eZPWeEthzs0auSb4nByR+EGHj3UKVrR4i8MtcO+R0ifexOsWi+LNbLDgRPcZTg9tTEr9efyMlUMsKAAGuOmw0VMXsBHN7AdI8bIgtKIZ/bjKo/cAwrvDu+0H2mxRdxEwwuoUchBYjzDfdI7FC7rBnRx458hMyc6H1jRbR0K7DzbUux/io2ZEbv5grRzuaKIeweOTEljDKERnmwRETMgY3wbaV7VW+W1F1sZHloO/EfLq4mt2/w7oRHucZ7cLyDh+eVlFueM4RfkPqzjPmQmfmrYG4yQQ1mo7JFhEF6/D6Ve/8gP1+y1HxN38MHz11JceOxa4H5wB/kV+hE+0DnCrpPl6Lc47tNtGmXj3TbLi2Xcoi6BK0tJMqhAYoJVsjS1m9tlZ0JabmrqzVmaYAPV+qlG9RjIg7IihksRbUgSklE1egrU+F70+W3Oo168oipcj/emdUsRTc3jy+uKwBCJUb1c2xhC13AHWcSyJv3rZ5FF+wqLsJkGBtp1xTeunwX6zwyvWhabMgOK6qMibD4SAXdeq3ju6cWAX3TRtsfOMIiBGsI8feW9/DFLmkTWjM/bOL13PRA7tKIhv9Vc0OEGWV3w0ajTYf97VNXoXXU148Q6hqI2JMr1FaXN+sH/6oZgpsF2B+ycUblIyETLxyHTjqt8vlfJspB8PLfRPWcMAlR10t92nxD8z6Xo6UDyBIofHgNgQt+k2cXLre52zJCo36Xwzs/i2pkgwr/kBkRi30rdbZkiwyYfLpmEPxn9+G0q8HCWOEKxlk/rHlTUHtnBP960v9Xe0UTSUQvK1y+HrSTW6Uh8sR45EFcwqkhfH9mJ4KwYM83onvcXagcuZrEKKVedufGeRTFJTSuz7n7VyLfQuX6KiHsGotpT59Ku38/ZrilTCVVo7u6//bDm6y78rR8ajc8rqGl9ieI2YOjMacpr+166Tj3wgRYCzzArKSvIYF1FSPBvtc8v29RNql5Vq7JhqVkrhXmJMoL2309Do0reXUW7yz+9hJtNHqQ9IjEs1l8fBs17I9nCEfY9C2IxB5/6BEbN3WyIKeaai/24Kuyf/0tLtC/AvfJpL4+naEO/wlUYUWNj9AIi118AnaRfHaHLmjGPsrkpldkqIrf2CeOtZbjY4QLyOofm3n5X13as3mfOsQslSKAlg2wOxgQDuBZlx9l06yAFnM5lBijUp9Di31+nKecQRMFTbPOK7Gai3AVl5xzS8Yd4YhBAmdwWoIOn/rN+mE++eYWeOt/QY7kdmti/iMyAHB42yD4d+ea3J/qFNtoiMf2RZLeJ+P9lvF/OMZtjmMH8Qp3pPPiHetetjWvlZdUrmm7A4tv3e2U+hkRSdmSR2z4lT6WTAZ7zVcaTxcWiSR2z+FT6UVPgNvYzCnzo5qT690jKPCp7nlT6SVPSLtYbpMjWL0WGf68vm0ZVjk2n3OdFhWow2C+ETI4yWV5Zkkr/RJsx9fXaWxuCGd9VDd+hCPPfZ8MZ73fNgo87IEk/b4XP9KNqpG/F/wFhuXeArzg0THlaOhiwyMR1Qce2ztb/WYArQ1XtcIND6j5HM1WXM7h0UEpTYZkVeXXeV4UadF0GbOdWZNI9i1744/3eOW4CFUXWp+SX2lbZESuucL6TOzMv/f6FhlijQ4vXdYPJKSVx4qvpO2tOY/Atzyn165qU6wdeBtEC8wIlNlpg0cIGdXObtJ8wjKu/lUWQrjKkEzMsxC7K1boIQRnFzHFSz/iyO2u47v0Sfs3Mj0XZTd8TG5NNPE98u4g/D6BZqUeOQzqJZ0qwC53AqimD/i/NBrUc7ONdGaCBBJLa77FnPPr9mSa6nI9pJk46biaoUmDS7WdFmfp3eK2mqP9VzsplkF8SYIAp2XzrE+DnD04UJePXwjFc3a5mb020Guh9zDVo5hSSoSaR3x9/hBaQ10LPHdfGjGaH8Mb7yaLQ85PUaz9MArlOqRhX3KToH9RO3kC2ZZXz3caa9IYGmRrGsPZ7Q4k9jNqPEi8rs3D6dqXjAkh03/LGTarjdZ7Z0BRl/Tq5qHqyNUgyZJEF7aRSPZe6i6NKpl49kG5yNFJbn2GTRdlr9pPBF5SVnCpLi4ne6accWBaZPHJBDkpz9m1NJyPwCk1gPKcmech9cVwaxR86RBDT4QlnYEALrfoM/ZB3wi3BfaUdXgkX4y4qu+YBTbuxC+boa/oJz/02Js102HJKCH1dCnXUAXb57SWkazNXsEBNJlDtn5TrTEj6HZ9k4Zzl2SwlXfN8/Y0kzz2NOI1EY5Acjl2ABvlTjqCm9GxBBQOfu5gmDJxwZz7F88pUHP/s3Y+P0NDR6P5tx6N7Q1VuHD2dEThnfi5xs8Y70eSJHjr1ABt18jWKKVEM/lHqjbPEaueRV82GKPz64JqRv2xmsY6eM5xEzWuIOSaJlGwT1qfhgCKlcxH3L4EMQqBCzq/PEPupM/mQyG81hZCo7QjEy4Q+71ihK7tZpxl1j/DSNfbUg/KC5MvmtWtLNvOIF2BwBnnMHtjKwE1957Z6DvOvo8Pdk5vy1LelwmF62+RU/4/xLnjJJvItYjn+eKYa8u7Bz/qmksU7Y2jJc5+3Pa7A9Lir0mSVEFyTQOHnPR25yz3uTiPBXhy0DO2Nlb87VGeu4g8xnUppsU2voZUOcN77Fzd4pWaXy11Wt1r1bUEi9o3525WGV4BeaTWg2qzS85/ImVdA4/xoQ0q+l3hcjJdGQWTJilCorO1BO7KNMeJpu8b7p0yHx4IJ8XPU974ls/GDiNEjtfKmhsX2NXCkmNGdFrRyl3jMzl1qaCQXbNONh2jQtjO2BkDuCxIfGYj21INjpDuKT7IRzykXN0vaxcE1miPeCcYmaHxyFU3Jpi8Ak0Imx4FHY64/GLVN7Zgz7DunCZuje9bg8GH6v5arsuwoS+EWaFVX/IP2Bj6lIQAXz+Mhgx/GSwdXlMRmBdqadklhcICOSvKdHWl5Ki/HrK2OGWcTVzFCA+Vc08/ZjHQvBfheEICxFxOyE8UclD6S1l3zp+okn6UUEpVmt7fC9iRfc97nfrhSytJ/1+srGMDX7MptFxPjaMN3aXXygQO2oA3Ixuyzy6Ye3on3yYI1ZKRwztZsWS6SHFOpWQJ9piMNZpVKVu6kkRKJm/+4zRCrzMPU2VAlUdZevAx1zWtVtZs4hLJPXGrjQ9k54AOnZrRLvNTJvJQb4VP3WWyz8+zZORxqB5R1LC/IEvydbn0uR7onq8O1xI47xKbBZOyLDQamidCf9Fh4HdsZ6isw/80C94lqogorOoMUcMrRpbcOLQ6f59LmnW6hHSIq5Ek4fgopMdICKk9Ukml3vEwvScVftnMV2d31OqCXhPxhE0bFzWpYyoyu7Np/48pglTVTkSvEnmaXtJwdhhPxq/5vOAf1sHapvRZLJ2roEgV4hSSSsQ3va/HT2NE0pBxyL5AWHAY9LRmGKI/oKlbb5UxZkRCTTsCExJM+Qty+eofX/tV0ZKPIylnqOervqdlLHfj1zLlT10dJtw39Nd7GTfKOu4C/wUu1I2b89s7oWlXfEl4bZm9ltO1SAOMFmrzhhSiMz1FoSsKmEHUPLLNplkxk2RjgGQAFbRLeb2DxBG+jMJJTh9qpzsP2i12E4DeTpqts0XSD8K3fo4lNQmSoK4a8Bu5ZU0IySO+5XwQUs7wuC/Rvx80NDIN+qSd+LKi+zW1tltHFfYMMrVRgyOmMPM7OnIbtyZRI9aePWG9/n/tMT74UHVz/vr2RMkcFnd1v3kwJJF/pfAy/coxc0GPkDZ9rp2h/dUOx3wL607GeNIUJmqdRLKZskFhnnPKba1Wv0DxlsIk/R6LvK9n60qtGKrkKcWWfcZFmV1xlMKG+P22B5pQVbliPrqiLeaYEaBqgW7dAdibJJYuZ1V74mXNBYeTUcGHnpMTvzxOLty0kKePo/ThoQchrv1TgK8gSGFb71aoiXxUzAYjHq+lykm3j08IT0wQieo/zkObpwWYJ9PBl7+Gz91J/agWnIEZi5jRXO2EQrew3yXyqpBLip1eGgEckzP+zGxnLIrqgghjSetG0olVRnqFMB0zzq8R6NWak6D1NsbV2QLHnTTQaNex6M8PtxcxY49/HjEggb9rf2ZIwfC+9VozAtGy/GPbt218MWOIHvnhhCj6TFI+wmWrrUXHADEEms285L0qNWkuCCXDAh6tT/zKxj9AgEeFZFj6zg2nbn5Jf8VPVO68v57C54/PS9kmLJKHr88diJJEnXD7V+b5pMQi8dQ6aMYD+C9f2jNWatGzdv6/irrFez3jaTHzt+UlSPtxO4Cs+U0Il2Dff6q/g3IYtBWwV7h9qGkLJRNMCbgyQkUrnuxvxz4B1GPvAdXqfqj0j5HIe4S1T7KX45FwqlDsCivGm9TiOmJ8WKEfnkPg+ZfCjjQgmcvTnnyJsI0aMKo0anOjiHa4T86UCHnKSfRoZn2OTIrgDLHzENczmovMpy7vLnVRhan6OhXt8qgYEy2fsMt4V4rEhQSEDRgjBrqccOCkPMxKkIInAGilx4mCGB1rfLwQo7a9743TBa94TtFdkFR29ydQuLKS3NC68iHL0J3adWjpi9kPRs5iNK9mNV6OjWswl7L8CUMm3/cLGJw+EV/KJUh5kMEtNiWL4uhIoT+L4IdH2IqfbttuEejO3Wur7z5xVc8lqEnxTg7+r5CviCrHjOawClKilEQu+4NgJfKnhYRKPO6EQO6Xgput4X2purh2Z6cREP+GZHibUQzQmwdfbSsGiUm2bB9Q13aut+qfg2yWB4DSicnXkqqRkkuCXmxBMyLAEKIWLlIpcilSf+qY+31JccsROvjalFmGJCUnU7chF48vO+dBDb6cj7+Ug1ICt4Z9Nbbt4A6pY/sw3l/GcZ6R8gZCeSECSZSyT0RB8XUdwwELAFXGOMNElZzgpMu/zCFqOGhU4E4D+fI1+8tBgzMDziYEOEOW1hWbH+x7lMfUTxcldgLEZQJI+VnuuZRazChYmqlafzPfYS320qamuaa1tKc/TqlWQ5ESb49gCzqhczLACbQUtTW3QfsbnE+ewOjWWr4dZRjFm74mmo23fjJQ8YNCZKXXzms/eiPY9iBYy2YEGYvirSa0c+pk+1WqQeEDjX7/ahqxZj+1RXYCpmy5VHUA66YBdHngMAIBePHKllmU2yO9dsDOFp8Zjj9bj/PgrzSYbcEdA2uBmRPjstlSpxD6Pi05QD+Hx0bEy8VhoAmJrLJEXDmTm0TwERu85q9otpyVH59z+6J0M9o5ciJTBlxJsSzggKAXixjSRayE6OU5X9v3VBPlUiEy6WM0n5KaFvVV/YaJ85Zj3ejVRAkbBT+AOXdgZl2YU6woDZhdrzlXak7ohQCA4v7h8ZCzr3IZ5ZQ/Q4CHKGHv1MqJDkHaITQFxS0YbynGmyQiaDZYxDCYK48i8/FG6RdYvEgyQUVfwmXJVpifjXm99oqAeS2RU122G2C10aN5k8i5YQinyxUgqzztbJrZob1k48ePD22KB0OI7BhhmYa4S0c3dVawRzFuMiM6k4d4B+NWWGe1BTAh8dYKiOBpq1wLbj36mJKsMbZA3WUoQfJlLXyiuX993b4alrsVQsarYioHoh4P3icWKUNT8yqgQn2+R436eYyuZozLwWMy+whqFsXqrNJiQdZBjVm1Qfdxu8fj5QqUyApLeqXoFBw6Lj8m4ZYhwW7NrG/7KgWTaX4xWixBD/sNueemcVv70Yv8gqJYI61KrlzFA5E6Mfg0ZsKwspkJc990feO2azb1dVWHnPb51UgdPfHmX5sWeiL+AS6zfh44B1cPpcldFqzDZi6lyMXMC1wtZsVQT1+OyB95rLDRIsdOkW6af8AlkK2E4GdQtrgb20L2JRl3new1m0cMHnc/RP7Rpa1gMOYSZJkkzjTPffsgRuVWRie+YkTbTRShu/ViE/CeQgRtJUkXfVw/EDUIxhV9gym2Pdy+X+Y3K539EcUFOcarCgwAhCj0gUVJ+kmcufguYgBqAw43NP4Gg3mrN9ACPEW3sfv/myt5pBoWXmfWcfeJyEmZaFU/8Wqchc6IRaG/xQChtADPbQ/eCTppa83tyHDd1DRC/yT4p/uamMzUyyRwk8kXEP4mkkBx9maAfo4eR2lO791Ll7oEAW3JVPUx1KHNsIiGTHSZmxssV1Q3cZEB4E2EwE18EBWBMkhSTJmRFyhHzcGAkZfHUiHku1RZt+XGxeEojvsOggO63zLfNe7fsMC85Ski2jHpwR4FWWwtl4xEHL21gpy4FcvXt/GoJx+G787KzvJueRK3Lr2fTC0PH/n/338q0P4P0SEP5O5aJgAzeCfsOnb8VFU8kqBpFSrZlAJu6owdhh2zkM1AhTY28mZ7U2AhrNcXle6aKCK71fuSdYNipqs2ypm937Vu764mdxZTzXTYFF4kimQAytPDVOcykafxH0/R0K8p8fvyzWSkerYe6o4qnU/IeZo4OJ6POl4SxVCQjn3vWiDG+lCa6fx8tGZcQApHcUNHHnuJ4EtjxyT1KC0A9I5mUxqmBDpCw3p73ztkc1EddSVq16D9G9R4PsqXr97+t55WdBxhiWHHXJK+X7+sT02e2JU13isTvJemlF5o9R9tLc4hQ8ZUDe08VEUY+vpqRYek2H1cUU114Yy/YraWynZ6WuKbhIUxxd8yji5UlyVHLFUAhNnmAIimNXMXfndzMmMV4roWHfteqGKoYtn5na5qGmWbFIqSV8PV2/TKi47Ex2SMjjH+ed4XD/tuf/kfRxFrkf0063CetmRtRTIjR4TWwe5r2jLpg6QMDfKscTCY1Oyyz2Nh72h7w3tU80j1FDptgR/UHJoT8wwrqB1lHqAy/iXiiqjEWzamRbcHyA0pWLT1U6g23wvxQu3GFLYqio7QALziKW+Qas8808JcVaUblepzi59DaG2rn5CX6y1dsT17gJ17rYtTduex74OBPxXCP2SjP3iTpUhlJhr2YGJZ/vA+nP/QP3A9gnMjNgmaH5NlV6KpLtvetFuDZ9GE+lpIaCiB5vKQuOGmk0uedk+/pJSG/CkZd/VZzCsM5gZathmM3MzYLK6Y82kTWZFvFPde7jRPrN8PgzHQwF5hqGRYj9NnryRDg/cyImMNbAOGyHEQbvSdWYkVUTG9rFThuEwt/OMYW3GC3IflTeoyUDAscF3TYTE86dGYdfz8xKnI5WjGyeUHj/Naqu1uHGdTW9wF3rV3QqQSCl3KeZHnyI0hpg4nlcgFv0cb9h9JtsI/OBhV2/dRRn5JCSOlAfj/ej9MDnSatP4IOuRuuSj95+/yGN5PrcebzJOuwFLx6mi+DAkoNbKIifgEuk1QeS+feE5I3hMdPWoJNxXfs00rppGW1dzMxRBnITPoPY3Oatoq9+AciZ1AFC5P/tLvd0CNlljeXOJCTjJ4RHfFjFa0cpKbbLXWY+GbEItBNlDsWcE8MOmiUHN0UroNW4WI830Xs/lXLSlHrEFGqwu8GNydOlRQvzTQMWq8SKb8xLRmm/U3FOt7BI/gzZyx2w37hlrPKHrDhHJPF/+QDeYI3F58UPslKHCM5+wdZevfhu0QAjL75gL8ekpQtwe0l7b1WmWBHZplFJSQEJWvArFk8jwRnMLqmUeeAPyxk3svOjXuWvzzhmSSF0MvBauICdb3eY3J54i1TWUjTFibqitXC57rX8As1CUewZ5hE9hkB2Y10NWsKwmH5eeLioTHg1UAq98bcHN4rnzNLVF9xR5zeFtkZk7/492D2YS+5Oua3hcXg8HNuOlYSnp2hiow9N9JPwICAhCNQp+1SGM3W2ZC1HPOPYuZzgVqzzARsE9OjXFEZvxlfCPRFM8iEmF/s6xWoVNrLZsVAPhUfSqtjiapUkjnA2mNQB0gGljqsTVGCHkEUEzTtFTqWU611krSiDrsdhH4iy+FF3AMc633j1q2z29dZj21oWew6meRJLFXa2AY6beN6nxp5aoTZikyn/rxvbgX92m5Z4SLfxe3pCFtX6Z6l7WM79U9vg32XAurbsH4FKh8vm7nlL2MpU1MeSpLKfptNdZ+EQGmuv3LfdLldzyGOcXRXRp8Uf/4ILPhgtLvAJhDdFpHZgK430N5X+osz1btB2f7wnc1M4tSTZtTvETu8H+qZ/v40zq/CHy15q+fuaY/ErEO82nPdjoiFiUufrUM6BmXMWNI1gHuVF6nLYVxFjZSJiGuj2ekF9qkIMGxlbxjX+1ffC+OZglvOeGFNHbPd2+72wCmNpcZkdIp/dNSBF57F5Uo0M9oWy58Pg0pvjVH63EIvQwFtilgoblxwK99ShwFQlFP3aZynu3Hpx0USy5DRIMCZGUrELqakag6ttRldZ47OO730GegtLEi/6nhf1eM95x3eST1szW+B7W9xDIq9Fjig1h1+YZ7FpZOwfcdSMy1pu6Ix1Wud2EF2MBoMn+5rwhNmAY19wWruEmSat46bGeEdZZjnGa1R6jQd/BqFwPPI4Eap+z3JzqunGnFl1xp2Zqt3rVtz0Swx/bfRlNyIO+OHRoTfu00h8P1sQQBqY+/5dQ/gbaUF1Vnxgx+nokRD832ObAf/9XPEN795HIPyx2bTeW104X7Gmk0PQB+OmAVJQdERQf4B+zlNPHcMCKjqzsAWn4TSZBcvPQLyKkoWaR510I5qOuc5CDYPmh3vn/kxiUFcV47bDXwdzuj9EP/jL5O6VTftxWVmkDjHaL1CQzli22fRtcKc/c7EnJdBqlVxn9zSIx8XmbpBjtNqEs98JjnQKCgV4FGvpxLNVgn6ie/daABWx4RqYwOMOC3v5TGJkNLNJuepKX+U0INaGOqsOBeIzOnH/u/bjrio6kc/Q4epVhkqOuJwMswnzYAKFm+sBEIpLDpiS0bHqjU4ABvGFb1Pj/EpNVlbyk84LpB6t4hmrC9P692Ol0VMxh/xYXKuM7fn+OC8gywCUlwq6UToZhkuH/DJt2FpgUHAXsbVcmlMnDyLWh9TWGNVvrzQ2AwmZ9r2yUqz3KiXfu2a8j53I8f4F4MlKzDzJKEXfp+ClLfFrGXPFi0aVopF3ReazgfCPX50zt3tR0WHYGBdDHAmO619gDryEuhrUCxOp6jm88kWGaOYTPYdTn037JLGye6p4SKuc4yCm2HNKsEk4od+qgjJ/Vlay1xovr94O8LtAGGNferAJyn3EROH9DnvxjYMrDaSgkT3ntvlXdAQNqa17r+KoGbsczNCthw9GV43cFrVHuueJKeomI93aK8wxYIkCgO2ZT28DxiofbAhyegHH9C1fY16JIawRQV1tMJVZgmu3zMyn7wVoFr3FAo49cgfsoiz5SZC8d1pRtu6U8APePrOe4NYeCP5uKuuKIO/7fQgUfXFcnQZ8InYO2de8Ld7d/ugPIBTZHEGKaU02fl2hAAAAAAF2ekLuETCejscma8Eb4tpT1s9iyyi2R1tjAuA03dbi6Bs8cUb+vX4NOu2qbWADmYAf+OjukRKr3aAYDqfbaW2LnHJvS8H/5gRfnWGLv5w5PBin4FKh6ijyXExYt2cnFFYnfAKizoyCxBDw7vMMqUUdgAAAgrYGmyslBuF4B88pXkhdGFE9Lb/diw0DZgTPovZ/6QXm8/QFaFQqBFLW2l+i2wKSHaXVFvnAJO6s4Rrl144tcXzUkYm7xM0R/j1vmPXnRs4kHVKOXYrmQrM93ANer7DFAGpJtkfvh/C9L/E8nF79Nh2dzRFNz7DcuCpqU/H3UGS1YexSSqFOVfvTk6P1qAq6wGzhdeC2XFcOCEMOWLMAMyM5L+zndFOUMQG9TW/WsBdimBjTBuN32aAXQV2idkc96whiVOm4OWm7/f7kFiNpPjcUfZB6+q5SI//hgMCz/qvnhDfQwj1dkgzgv7wn9Zc/K+0dGQZYgOt5KjmZXyvgk2apy32eeatp6CWM+kVAWzhemSCBuWsmEntCTypI+YQZ6NEb/muef6N8+MF/L6bBp3llzNBfd5OfhEN2iS2QAAF1w2fvOt4uIh5tWZNNbvYIGKN+zQGA/iNNYj+3fdIckBezwO8adOD8zG0XB7ekN6f1fm3t4HVz5/mIahCTd01+9zqoYRMl6mVGScOymW25CRzL4/WK9e2OrSbHuWUHepVIaP4QkOllUdKpJLnwazyEHdxPfpR6AKulOV73gVrZ6eI4VWxa/ItwcWI3eAIPTg2r0jGA7Foobto2HFUw3LY5tgyvnCoNRorHjAeIVT7CtOE30+S6uwT934x8SgJjpEDf9jiHFibndDlcckuI5aYjFFoAjaikhi4fK585vR4YzX43v5RZK81vweZogg8RbSs5oqI/kIn1T4PSAdEo/KWJl3VxA95KRWsT67soEYKn/4WjWn7IpWNEMnhibwmrLbXghzVGYBobit0hcRe9FZ8vE9rmThdw/6s9gAJRmCSSwRlSu/mqun5pdU7WHkJPtaZtutoTZdA6KUd9iZ6nyb9Qfrd0DPHiXj2zHqsVUFSGtnT9pnI3c+uwEn6HQlr9XlKp3oDtHm5w6lQMG9OjZIcDMCDvGEVE8Z+UCvg2dwnnV4EN4cD3d3aL/OO0p6CL32KKMrOc8mfgAht4x0lnTbn+BvNQ7GEsqN0exLM15PtN2EwMiW3vpj9/yKSUfOHtG8NuDmvM9FTsIfKhiiJIAAAA3z3sOaEJXeEGJrABM+JeFM+rgkB2Y10NWsMx1mijT40tLxN+ZVSXO3BzeK58q2KcAk7qQo64W1SK8cWfSv1clFOD5kLcHuqMQlYYmVDZAJgjMB0im0UJ0fSiPLP8So62nZCEgwqFNF7CHOdk2m4rPxn1aE6eAwtTUDXqrG5TkW3/+neQY+F88H8prVNiZBAr5bQ32TSxR7qrm3W08gLeuRwuy9Xu5Lr7nNnRvFmslZig3PjbTC95ath5Zw2CHIZ0Y7OLt+XDo4T1V0qYzo8nx362oOqr9IQ+ZKSb34QQqro/3NNCp0Z+sikX36yLu311sSPJQng4VVTgvUjaM0IHSXYP4Z9tJKTcE1vhe8w3tQnBgOSyDWBFc8vFxESYWnhssFSP/izOx30xOec71kUQ8dP4ChNbGjasHQinBxLnYQAF07xjOo+SdpyxwAe85q2CtUtVnaI/2z2uNZABwLxbj90frURH/j2A2Jj0mA/9G7oJAv6j3+q+6b0jC4vNcBQGIK+2pf+z0J3rhuxTs06B8Ez/L7CkZSkLYtPaDviAal0zgTkynhfIIOaxCO4mp6uhqBOYZhR2ij7G7OP6JXytTHIBuYuoRVUzNH45vgPkM7+cOS7XR+e/i5/o7E9Q6aF9TSt3PKXsZS4nZ8144AABrwNp/z1Vk3uAthrZxWhs+cdvPtqeZaVYywAjvflLKPLzg3wjuz/tAuxFATjTx7EDBi8toC+cgFX9AGPFU1PQvOuixb2hu9U+o3nYCWiLA+6A4AmXEcuMfegMsNLVS8+NJ5Pgm6tcXg+TcXUJWtz44PXYilkRwsbtsqnvVw8uKIqvPMclgzMudd3u9G2kfzcVdcUQd/2+i/yHl/2J2EiInYO2de8WLS18anYaXCzj2W7H/RoIxoIUAAAAR2qySDXczF7qjgY3dlwhDM5S7VEt7qpnLvBBjRTtyF0U6X21fLap6Q9K/Fw30/igeZq/kr54AyJAOC8EsRJFaao6fvu/ad04XrfuSwbM2/FmLOkYtwCigptSlQXrAAAAAAAAAAAAAAAAAAAAAAAAAAAAAAAAAAAAAAAAAAAAAAAAAAAAAAAAAAAAAAAAAAAAAAAAAAAABFWElGugAAAEV4aWYAAElJKgAIAAAABgASAQMAAQAAAAEAAAAaAQUAAQAAAFYAAAAbAQUAAQAAAF4AAAAoAQMAAQAAAAIAAAATAgMAAQAAAAEAAABphwQAAQAAAGYAAAAAAAAASAAAAAEAAABIAAAAAQAAAAYAAJAHAAQAAAAwMjEwAZEHAAQAAAABAgMAAKAHAAQAAAAwMTAwAaADAAEAAAD//wAAAqAEAAEAAAB4BQAAA6AEAAEAAAAxAwAAAAAAAFhNUCDbAAAAPD94cGFja2V0IGJlZ2luPSIiIGlkPSJXNU0wTXBDZWhpSHpyZVN6TlRjemtjOWQiPz4KPHg6eG1wbWV0YSB4bWxuczp4PSJhZG9iZTpuczptZXRhLyIgeDp4bXB0az0iR28gWE1QIFNESyAxLjAiPjxyZGY6UkRGIHhtbG5zOnJkZj0iaHR0cDovL3d3dy53My5vcmcvMTk5OS8wMi8yMi1yZGYtc3ludGF4LW5zIyI+PC9yZGY6UkRGPjwveDp4bXBtZXRhPgo8P3hwYWNrZXQgZW5kPSJ3Ij8+AA==;clipPath=inset(23.71% 67.67% 26% 3.33% round 49%);" vertex="1" parent="1">
          <mxGeometry x="112.72" y="561" width="39.55" height="40" as="geometry" />
        </mxCell>
        <mxCell id="zkf6LBNEYV9gsRVNjPlm-23" value="" style="shape=image;verticalLabelPosition=bottom;labelBackgroundColor=default;verticalAlign=top;aspect=fixed;imageAspect=0;image=data:image/webp,UklGRmw4AABXRUJQVlA4WAoAAAAMAAAAdwUAMAMAVlA4IKg2AABwwgGdASp4BTEDPm02mUmkIyKhITKYiIANiWlu++U3bSveTR9/4r+yfupsU3Xv7p+0P9i/dHpLt1Pmf9s/xf9S6Z6xPNE8Q/Qv+N/hPyZ+gH9m/3P87/jXwR/iv+P/53uAfwz+m/6/+0/4b9hPYA9wX7nf7T9QPgD/Qv73+3Pu//5X9tPct/ov8N+yHwB/3X/V//DsEPQc/eL1gP/B+6n//+Vn90f3A+Bn9jP/z/x///3cfSv9Pv7v/eO4n+0/2v8dPafrce2nx0YO7S/4x9pP5n9+/cr81Pvp/b97PyU+e/YF/Gf5D/o/zS/wv7gce3u/mBe/H1b/e/438g/kB+w/5Xof/If6n2Avyv43b8f/0f+T7gn8v/tn+1/yHsMf9P+Z/0/7n+8v9B/z//k/zX+f+RL+Wf2H/s/4D2s/Yt+2fsm/rb/5Ql+ftFMAtur2imAW3V7RTALbq9opgFt1e0UwC26vaKYBbdXtFMAtur2imAW3V7RTALbq9opgFt1e0UwC26vaKYBbdXtFMAtur2imAW3V7RTALbq9opgFt1e0UwC26vaKYBbdXtFMAtur2imAW3V7RTALbq9opgFt1e0UwC26vaKYBbdXtFMAtur2imAW3V7RTALbq9opgFt1e0UwC26vaKYBbdXtFMAtur2imAW3V7RTALbq9opgFt1e0UwC26vaKYBbdXtFMAtur2imAW3V7RTALbq9opgFt1e0UwC26vaKYBbdXtFMAtur2imAW3V7RTALbq9opgFt1e0UwC26vaKYBbdXtFMAtur2imAW3V7RTALbq9opgFt1e0UwC26vaKYBbdXtFMAtur2imAW3V7RTALbq9opgFt1e0UwC26vaKYBbdXtFMAtur2imAW3V7RTALbq9opgFt1e0UwC26vaKYBbdXtFMAtur2imAW3V7RTALbq9opgFt1e0UwC26vaKYBbdXtFMAtur2imAW3V7RTALbq9opgFt1e0UwC26vaKYBbdXtFMAtur2imAW3V7RTALbq9opgFt1e0UwC26vaKYBbdXtFMAtur2imAW3V7RTALbq9opgFt1e0UwC26vaKYBbdXtFMAtur2imAW3V7RTALbq9opgFt1e0UwC26vaKYBbdXrUHRv/d0IyktN3V7RTALbq9opgFt1e0UwC26vaKYBbdXtFMAtur2imAW3V7RE4Ej//qWB/+8iON9b6U4vQWryy92imAW3V7RTALbq9opgFt1e0UwC26vaKYBbdXtFMAtur2ilzwD7//o1d//Vmd15dvbbdcD5NQhg4MLbq9opgFt1e0UwC26vaKYBbdXtFMAtur2imAW3V7RS/qAMBX/8Irrhca6burqPPmHK3eI3aNVUiKYBbdXtFMAtur2imAW3V7RTALbq9opgFt1e0UwC25HStpX3/wa8/kRkALbq9qGcgPX2OvV9DEfYqZ5+0UwC26vaKYBbdXtFMAtur2imAW3V7RTALbq6m/Cb0R77q9opgFt1OraDcPkkSvaKYBbdXtFMAtur2imAW3V7RTALbq9opgFt1e0RQeE/x02Bzebur2imARJufCsv/8/aKYBbdXtFMAtur2imAW3V7RTALbq9opgFt1Md5fsZqKYBEWMEls5Ec4ZDvoLHoAW3UxcjDlUnCV7RTALbq9opgFt1e0UwC26vaKYBbdXtFMAtur2dHfuWssxRwpsZ5khn6DMyT/ch0Zy7qquNQVo/7Np66gxGyzKYolL2P9gLYckomtjzXjlTTIAW3IwQXcId3KVtn7RTALbq9opgFt1e0UwC26vaKYBbchpG82+Y2OIyhaOZ9iH6nE7LtLQKujxikbCx8sg0+7Kr7ufEeCjOduQx+eMU+3QUxs0QnFWhrNC36f8z4mRkLjoKJtN3V7RTALbq9opc+xb1yh/BbOS93V7RTALbq7eoVraDZo+4WpvCwVi5ABZosUVs6H4nqHhsfQCHhAv9YZ+y3/yQzY5alOi6S90ya8KtyyBMOvjPP2dvyylfnz9opf58AEBvQ0bJMuumtkYL3CSIzrpu6vaKYBbTNc5NEBZl1g59AdO7PpxT/+0cdT+0j9jErJBPpsI9z81V0vt/O4R1N0xcjZWFqwYntYC/ItL/oDrWgiUNpejThFTod7CmuXdawPlbi39+ly5SkOACs5j76+RZHrlQ4i6jdDvuOew7UMA+YF6QOLyVG/neTAQmgOHdzZRL4D3Wi1ScCsQlRNaCy3ZcPDcfIC4f5Vxh5rraWq3cMnnUc3vnvSh+TnV/YOBDaMqQODtN3V1MfQc1lkxtdbX6p23SXCFP/7SsUh07bl4QJS2w7Vl2E5SFhgcoYXMFiuVbxiuXi/CUemFMgCxWORE+BAVf4VpVx8PZNUVhMFpuc/mO+RDmarT94FYpcHGCJovF7YANrc+E94fB05AsbzTMtLBQPon/j1958FgMd9r5A1+6Z5t2z4LZDGQIzV9vRjB8z/7Dk9yvZFD9NTPQGr3Qdg4E0na00J2NME2TzNbRTAIlVSXrB/2qAkkoSD1HxhT/C6S92U8TN00y60W95DKSctbG0jkS5LrP8L8BUnxFpqTIBNG4N6Sfr2BJ7YyZT8xJB1rvITgPNMqRKkHvGlks1Hi3xPhfD1gOwLSToRhxMHUS42CtQL4WrSIAHPaXeuaWgi7fCMLZW9/BhNY0g0bif//P2dLgLLBq9YKVE2tDiI/3+1O3bALDT0oV41N3Ia4C534cYeRAukLMaZm1c9FG5vMPU/eWdA1oZ1/C89zj49qt4qyMnRxOpjMprkTPiolefQ+3qNGn+UPidkvgZ1EMUS18O4ZtoN4TSrDTDO92HXsO/78agXF7JfKJbG9YA4gWJE+6r9zJB99IflZb8KWGHroWK6E2MGRWWtA/Urk09ddNnIHXTwAEPiY2i7ZmbYwVtERjeztumc4EGn//TtG/N2/LbJ++UKxjBiGf2mRC8z1K+6OOGtqpmPPDk9H6/M3C5TcWaYuNz1kKmYMxQOc+cHR9IECAFiU0EbLIUFUh1mJp7vzVagpDwhx8OtfCEXnP5ZIEm+KJPwuHTKLq3qF9hdveDlaLZ98U6p3ZPXsDpJN5v/gsdoeRczleEfX7nUS21EY6z1CtEO3ClqXDWgBYBKeqJ1njRUitplswmc69xpzrp/0UnhlTvVF7eyOHV3Xwks3HW7g3LNY5e6YSjB5TByPDnu90z3rLmVCWkU9xcluFxPCddjToTK4A5wJtUjZMH6JY0ljpuQ6+z1P7ZXZO+rCOtuKxd4WzrbHj94m5fDGcvPPi6IZT3YgNd8ZykhNL+zCBsSdXh8MOKU4059R6349MROqfWL9EnJugcsnvwAAimOsjmJ4KKTQTiaaW09jfBfdd6n4To8pD7DUEmImnA/JDxwDe2PkHj+ftFLmDI2b89r6A4mRQbxZrNvqg3XPDGKskyMgcHmV7OLvWyKcSBVr2nnRkpAC8zsiWrxA9p6unm7q9/KWqJmwgBbdcmbVvVXc72r2iy1UzzYiV86/OXo55+0UwC26vaKYBbdXtFMAtur2imAW3V7RTALbq9ZJ349gd26uzuRgG3ihFsP5rMZVfr+hD3D+7nf0vawA+cGCALpMjLrpu6vaKYBbdXtFMAtur2imAW3V7RTALbq9opf0h4SqU8mgj3CNQknKgmTdrd7gdgYfxd+MhKuwlUUUgKyH/voUkXVRF6PdOb9PcygerLOchLvO90Wqq9opgFt1e0UwC26vaKYBbdXtFMAtur2imAW3V7RS/olh0lp95TqszG9MqT7WH4LKhi7kAWTsi9/+pA92rOTrA+PHABl7hAJjflJNbMQOA4I4rglL2r2imAW3V7RTALbq9opgFt1e0UwC26vaKYBbdXtFMAswISrJdK0VUaTD9IH/j/OFmaTtYApC1UpyBf5FbdXtFMAtur2imAW3V7RTALbq9opgFt1e0UwC26vaKYGEnphzyeBvPdF5W7vlfK+V8r5Xyf+D2qWyVkAhl5GXXTd1e0UwC26vaKYBbdXtFMAtur2imAW3V7RTALbq9or/bGLYHVTPP2imAW3V7RTALbq9opgFt1e0UwC26vaKYBbdXtFMAtur2imAW3V7RTALbq9opgFt1e0UwC26vaKYBbdXtFMAtur2imAW3V7RTALbq9opgFt1e0UwC26vaKYBbdXtFMAtur2imAW3V7RTALbq9opgFt1e0UwC26vaKYBbdXtFMAtur2imAW3V7RTALbq9opgFt1e0UwC26vaKYBbdXtFMAtur2imAW3V7RTALbq9opgFt1e0UwC26vaKYBbdXtFMAtur2imAW3V7RTALbq9opgFt1e0UwC26vaKYBbdXtFMAtur2imAW3V7RTALbq9opgFt1e0UwC26vaKYBbdXtFMAtur2imAW3V7RTALbq9opgFt1e0UwC26vaKYBbdXtFMAtur2imAW3V7RTALbq9opgFt1e0UwC26vaKYBbdXtFMAtur2imAW3V7RTALbq9opgFt1e0UwC26vaKYBbdXtFMAtur2imAW3V7RTALbq9opgFt1e0UwC26vaKYBbdXtFMAtur2imAW3V7RTALbq9opgFt1e0UwC26vaKYBbdXtFMAtur2imAW3V7RTALbq9opgFt1e0UwC26vaKYBbdXtFMAtur2imAW3V7RTALbq9opgFt1e0UwC26vaKYBbdXtFMAtur2imAW3V7RTALbq9opgFt1e0UwC26vaKYBbdXtFMAtur2imAW3V7RTALbq9opgFt1e0UwC26vaKYBbdXtFMAtur2imAW3V7RTALbq9opgFt1e0UwC26vaKYBbdXtFMAswAA/v/DMzwzOIOFgAABflgAAAAAAAAAAAAAAAAAAAAAAAAAAAAAAAAAAAAAAAAAAAAAAAAAAAAAATJN5x8KOQLztSIx5ENVyOJz+niIT94ixct0LqF4uMnnvlTANscTjURTb9yTpLAlbFKLvsJh9EgQCmj2a1Ro+B3U9t2BiairW2OYAAABG5X00oERTxs4aWKN1q8VZPJACi6zN67Rodd3WdpcAaBF8kEOtPTSR6Cz4ps3T2L+wc3AGdFNdkEreFqrveTZ1Y0En8U6pZfQHbeax4BCKG/M1Hn8m+Pwiud41FdxKSPyNbSgb4VUvVNHRTzmVaPe3922iDpRNqcAdDvpSRI5jsCqz5/bL5XltuHEHsscocwqLXd4gtuu4i123Tv4tNNN31Kn88rC0w9lR4dCaNZscM6RAUv+AAACV+obcJFe5lcLiYLoo/MQoZFV8abLlNAcRdsO/hFq9sA3G4WMgpJw1xYe8p0yZNgAtQg1mCa0W1ooBMG6sDmHHP8v8mFtztaEnrLIISxMDE84qYYQhme7EAo596o4xdWO4NGziAIkuKq4isAxTmgveUD5G6qAGLmdD2SKCNWO/YL4p9tTp//4D6Nf051LAEJALXX+T08m5TLQD1XScia52/i1pqXCZIQKlSINhGrgqEAcMBxkAAAAZpm937l564nloIcObNemLGiZHOKuEjV/olrlK+ZTbd7/AFz0zr4TO2W+PexICbqviu112yrF2buwgcDCyOdRKGRX6hpp3eh6BKCctJqlckNAp5mCxGzJWsvL9sk6nL6zwxeeoNpKDJ/ABx6w3HW11mtJV+tYRIkOSKSbJEAb0AGmhRVd1JRyWS0A14p2Efa3Jo+S41txjQhSzUk6ov1Ab0mtobuwCrh6+bt2M7JyjtqPOAAAGpg72h1K96Nta1rKfT4irBrGZC/0QSeqOvqyiLTE/rPwaICbrjlhu4D5pMSUOByRftxNK+g7xZ4GgTja6vuC5tSQAvH5sofSZm6+knTrp6ggfohWEvKKXFmf04GGhKlgOPgCqIYKZfynGINVEPGALU1JEfl8ECxcpicDgGNwbC8c968ZpMSYYXNJaR2Qw8rA/m40AicApOeZ2Q0fV9e5iMvcJ6dGuKMfCUesAAANK+HGf6lqtkBZWWmWrXLgQZngD157JkC7v9naj2g7as54/ImZOA8QRuTJmmRt54qHdNeeAK+x1J5fDt7hwsSM/Co5OOoxDq3ufYtRzIVvJxgFff7f1l05D0IXJQAALw6Z11bKTkOZu0gq6Nj3x3nBXMQlaVO01S8ED9+PVsPAbnF5XFrt0CLKOgyWuToHTYkzwLGLlFAk16Nb9FExfhxtuxkADzafx9j6Nc09ideAAAGHipm8lBJhyic4FcnJDuNggUICfVEY/4h9vD5EHmUqh1hsU5+ld0dYHW0e29CB7AuddbOkiqooZcXW31N4cbOF2aqbic8FzeEA5l2q+asn5LE1AfS0LlWPweHQCmtm6Uhb6/5/GSgIyI5iXY2i8Jto4PC+TByYgtGp+cv72deR1JLsRUyml8QlxDSvgGiUDHl6VgliMfnscgK9SVJ66PlMCY8rLf4Z5HFPm/pzoc3sQ3NmDgAAC3zT4MztyCVCsyrUKTvUBuqpyCDLV3ut68R1DhrYXr/llq/ZVfzRkOaew2xfpikRIAW163xkBvztmHcYxqx2phgiXzg/9za81A+OuMOKA5k0zsT80ES0E4nrun7ITxWqWovv9iT7oB6k7Higqgj8JN3zH2EG2+wwY44UYZRmXMWWpnSu7Dl+0VttS8/E7KWWokClTao52Gr+4p3l2BTQ/rEDW/66gAlDqvqWLqdFY/l7x6fSDmV8mmDZv2HJhlfqHnCzHSOfmMPFFzzF+5Vb2kmGjD7Sq4nDE4vrrTQPvlJIzkTkjvSvq+/X5FgoZi7ntggBl6heiNzaw5k7YPMeKry/iX1x0Icfi+ukUJxLxyEe9eipW2LYhgiJeiIIu8B1kK+1Tce4S4kiOUcyuVzHGeizmmy8LYkCYFf6i2uHAf0MqlHF9RpvZFeKHGwVrk83kbfAcR2fe7MI33o7pOnmr/Sl/8S0qZgXGFk7fB+yDpUU3+eZPWeEthzs0auSb4nByR+EGHj3UKVrR4i8MtcO+R0ifexOsWi+LNbLDgRPcZTg9tTEr9efyMlUMsKAAGuOmw0VMXsBHN7AdI8bIgtKIZ/bjKo/cAwrvDu+0H2mxRdxEwwuoUchBYjzDfdI7FC7rBnRx458hMyc6H1jRbR0K7DzbUux/io2ZEbv5grRzuaKIeweOTEljDKERnmwRETMgY3wbaV7VW+W1F1sZHloO/EfLq4mt2/w7oRHucZ7cLyDh+eVlFueM4RfkPqzjPmQmfmrYG4yQQ1mo7JFhEF6/D6Ve/8gP1+y1HxN38MHz11JceOxa4H5wB/kV+hE+0DnCrpPl6Lc47tNtGmXj3TbLi2Xcoi6BK0tJMqhAYoJVsjS1m9tlZ0JabmrqzVmaYAPV+qlG9RjIg7IihksRbUgSklE1egrU+F70+W3Oo168oipcj/emdUsRTc3jy+uKwBCJUb1c2xhC13AHWcSyJv3rZ5FF+wqLsJkGBtp1xTeunwX6zwyvWhabMgOK6qMibD4SAXdeq3ju6cWAX3TRtsfOMIiBGsI8feW9/DFLmkTWjM/bOL13PRA7tKIhv9Vc0OEGWV3w0ajTYf97VNXoXXU148Q6hqI2JMr1FaXN+sH/6oZgpsF2B+ycUblIyETLxyHTjqt8vlfJspB8PLfRPWcMAlR10t92nxD8z6Xo6UDyBIofHgNgQt+k2cXLre52zJCo36Xwzs/i2pkgwr/kBkRi30rdbZkiwyYfLpmEPxn9+G0q8HCWOEKxlk/rHlTUHtnBP960v9Xe0UTSUQvK1y+HrSTW6Uh8sR45EFcwqkhfH9mJ4KwYM83onvcXagcuZrEKKVedufGeRTFJTSuz7n7VyLfQuX6KiHsGotpT59Ku38/ZrilTCVVo7u6//bDm6y78rR8ajc8rqGl9ieI2YOjMacpr+166Tj3wgRYCzzArKSvIYF1FSPBvtc8v29RNql5Vq7JhqVkrhXmJMoL2309Do0reXUW7yz+9hJtNHqQ9IjEs1l8fBs17I9nCEfY9C2IxB5/6BEbN3WyIKeaai/24Kuyf/0tLtC/AvfJpL4+naEO/wlUYUWNj9AIi118AnaRfHaHLmjGPsrkpldkqIrf2CeOtZbjY4QLyOofm3n5X13as3mfOsQslSKAlg2wOxgQDuBZlx9l06yAFnM5lBijUp9Di31+nKecQRMFTbPOK7Gai3AVl5xzS8Yd4YhBAmdwWoIOn/rN+mE++eYWeOt/QY7kdmti/iMyAHB42yD4d+ea3J/qFNtoiMf2RZLeJ+P9lvF/OMZtjmMH8Qp3pPPiHetetjWvlZdUrmm7A4tv3e2U+hkRSdmSR2z4lT6WTAZ7zVcaTxcWiSR2z+FT6UVPgNvYzCnzo5qT690jKPCp7nlT6SVPSLtYbpMjWL0WGf68vm0ZVjk2n3OdFhWow2C+ETI4yWV5Zkkr/RJsx9fXaWxuCGd9VDd+hCPPfZ8MZ73fNgo87IEk/b4XP9KNqpG/F/wFhuXeArzg0THlaOhiwyMR1Qce2ztb/WYArQ1XtcIND6j5HM1WXM7h0UEpTYZkVeXXeV4UadF0GbOdWZNI9i1744/3eOW4CFUXWp+SX2lbZESuucL6TOzMv/f6FhlijQ4vXdYPJKSVx4qvpO2tOY/Atzyn165qU6wdeBtEC8wIlNlpg0cIGdXObtJ8wjKu/lUWQrjKkEzMsxC7K1boIQRnFzHFSz/iyO2u47v0Sfs3Mj0XZTd8TG5NNPE98u4g/D6BZqUeOQzqJZ0qwC53AqimD/i/NBrUc7ONdGaCBBJLa77FnPPr9mSa6nI9pJk46biaoUmDS7WdFmfp3eK2mqP9VzsplkF8SYIAp2XzrE+DnD04UJePXwjFc3a5mb020Guh9zDVo5hSSoSaR3x9/hBaQ10LPHdfGjGaH8Mb7yaLQ85PUaz9MArlOqRhX3KToH9RO3kC2ZZXz3caa9IYGmRrGsPZ7Q4k9jNqPEi8rs3D6dqXjAkh03/LGTarjdZ7Z0BRl/Tq5qHqyNUgyZJEF7aRSPZe6i6NKpl49kG5yNFJbn2GTRdlr9pPBF5SVnCpLi4ne6accWBaZPHJBDkpz9m1NJyPwCk1gPKcmech9cVwaxR86RBDT4QlnYEALrfoM/ZB3wi3BfaUdXgkX4y4qu+YBTbuxC+boa/oJz/02Js102HJKCH1dCnXUAXb57SWkazNXsEBNJlDtn5TrTEj6HZ9k4Zzl2SwlXfN8/Y0kzz2NOI1EY5Acjl2ABvlTjqCm9GxBBQOfu5gmDJxwZz7F88pUHP/s3Y+P0NDR6P5tx6N7Q1VuHD2dEThnfi5xs8Y70eSJHjr1ABt18jWKKVEM/lHqjbPEaueRV82GKPz64JqRv2xmsY6eM5xEzWuIOSaJlGwT1qfhgCKlcxH3L4EMQqBCzq/PEPupM/mQyG81hZCo7QjEy4Q+71ihK7tZpxl1j/DSNfbUg/KC5MvmtWtLNvOIF2BwBnnMHtjKwE1957Z6DvOvo8Pdk5vy1LelwmF62+RU/4/xLnjJJvItYjn+eKYa8u7Bz/qmksU7Y2jJc5+3Pa7A9Lir0mSVEFyTQOHnPR25yz3uTiPBXhy0DO2Nlb87VGeu4g8xnUppsU2voZUOcN77Fzd4pWaXy11Wt1r1bUEi9o3525WGV4BeaTWg2qzS85/ImVdA4/xoQ0q+l3hcjJdGQWTJilCorO1BO7KNMeJpu8b7p0yHx4IJ8XPU974ls/GDiNEjtfKmhsX2NXCkmNGdFrRyl3jMzl1qaCQXbNONh2jQtjO2BkDuCxIfGYj21INjpDuKT7IRzykXN0vaxcE1miPeCcYmaHxyFU3Jpi8Ak0Imx4FHY64/GLVN7Zgz7DunCZuje9bg8GH6v5arsuwoS+EWaFVX/IP2Bj6lIQAXz+Mhgx/GSwdXlMRmBdqadklhcICOSvKdHWl5Ki/HrK2OGWcTVzFCA+Vc08/ZjHQvBfheEICxFxOyE8UclD6S1l3zp+okn6UUEpVmt7fC9iRfc97nfrhSytJ/1+srGMDX7MptFxPjaMN3aXXygQO2oA3Ixuyzy6Ye3on3yYI1ZKRwztZsWS6SHFOpWQJ9piMNZpVKVu6kkRKJm/+4zRCrzMPU2VAlUdZevAx1zWtVtZs4hLJPXGrjQ9k54AOnZrRLvNTJvJQb4VP3WWyz8+zZORxqB5R1LC/IEvydbn0uR7onq8O1xI47xKbBZOyLDQamidCf9Fh4HdsZ6isw/80C94lqogorOoMUcMrRpbcOLQ6f59LmnW6hHSIq5Ek4fgopMdICKk9Ukml3vEwvScVftnMV2d31OqCXhPxhE0bFzWpYyoyu7Np/48pglTVTkSvEnmaXtJwdhhPxq/5vOAf1sHapvRZLJ2roEgV4hSSSsQ3va/HT2NE0pBxyL5AWHAY9LRmGKI/oKlbb5UxZkRCTTsCExJM+Qty+eofX/tV0ZKPIylnqOervqdlLHfj1zLlT10dJtw39Nd7GTfKOu4C/wUu1I2b89s7oWlXfEl4bZm9ltO1SAOMFmrzhhSiMz1FoSsKmEHUPLLNplkxk2RjgGQAFbRLeb2DxBG+jMJJTh9qpzsP2i12E4DeTpqts0XSD8K3fo4lNQmSoK4a8Bu5ZU0IySO+5XwQUs7wuC/Rvx80NDIN+qSd+LKi+zW1tltHFfYMMrVRgyOmMPM7OnIbtyZRI9aePWG9/n/tMT74UHVz/vr2RMkcFnd1v3kwJJF/pfAy/coxc0GPkDZ9rp2h/dUOx3wL607GeNIUJmqdRLKZskFhnnPKba1Wv0DxlsIk/R6LvK9n60qtGKrkKcWWfcZFmV1xlMKG+P22B5pQVbliPrqiLeaYEaBqgW7dAdibJJYuZ1V74mXNBYeTUcGHnpMTvzxOLty0kKePo/ThoQchrv1TgK8gSGFb71aoiXxUzAYjHq+lykm3j08IT0wQieo/zkObpwWYJ9PBl7+Gz91J/agWnIEZi5jRXO2EQrew3yXyqpBLip1eGgEckzP+zGxnLIrqgghjSetG0olVRnqFMB0zzq8R6NWak6D1NsbV2QLHnTTQaNex6M8PtxcxY49/HjEggb9rf2ZIwfC+9VozAtGy/GPbt218MWOIHvnhhCj6TFI+wmWrrUXHADEEms285L0qNWkuCCXDAh6tT/zKxj9AgEeFZFj6zg2nbn5Jf8VPVO68v57C54/PS9kmLJKHr88diJJEnXD7V+b5pMQi8dQ6aMYD+C9f2jNWatGzdv6/irrFez3jaTHzt+UlSPtxO4Cs+U0Il2Dff6q/g3IYtBWwV7h9qGkLJRNMCbgyQkUrnuxvxz4B1GPvAdXqfqj0j5HIe4S1T7KX45FwqlDsCivGm9TiOmJ8WKEfnkPg+ZfCjjQgmcvTnnyJsI0aMKo0anOjiHa4T86UCHnKSfRoZn2OTIrgDLHzENczmovMpy7vLnVRhan6OhXt8qgYEy2fsMt4V4rEhQSEDRgjBrqccOCkPMxKkIInAGilx4mCGB1rfLwQo7a9743TBa94TtFdkFR29ydQuLKS3NC68iHL0J3adWjpi9kPRs5iNK9mNV6OjWswl7L8CUMm3/cLGJw+EV/KJUh5kMEtNiWL4uhIoT+L4IdH2IqfbttuEejO3Wur7z5xVc8lqEnxTg7+r5CviCrHjOawClKilEQu+4NgJfKnhYRKPO6EQO6Xgput4X2purh2Z6cREP+GZHibUQzQmwdfbSsGiUm2bB9Q13aut+qfg2yWB4DSicnXkqqRkkuCXmxBMyLAEKIWLlIpcilSf+qY+31JccsROvjalFmGJCUnU7chF48vO+dBDb6cj7+Ug1ICt4Z9Nbbt4A6pY/sw3l/GcZ6R8gZCeSECSZSyT0RB8XUdwwELAFXGOMNElZzgpMu/zCFqOGhU4E4D+fI1+8tBgzMDziYEOEOW1hWbH+x7lMfUTxcldgLEZQJI+VnuuZRazChYmqlafzPfYS320qamuaa1tKc/TqlWQ5ESb49gCzqhczLACbQUtTW3QfsbnE+ewOjWWr4dZRjFm74mmo23fjJQ8YNCZKXXzms/eiPY9iBYy2YEGYvirSa0c+pk+1WqQeEDjX7/ahqxZj+1RXYCpmy5VHUA66YBdHngMAIBePHKllmU2yO9dsDOFp8Zjj9bj/PgrzSYbcEdA2uBmRPjstlSpxD6Pi05QD+Hx0bEy8VhoAmJrLJEXDmTm0TwERu85q9otpyVH59z+6J0M9o5ciJTBlxJsSzggKAXixjSRayE6OU5X9v3VBPlUiEy6WM0n5KaFvVV/YaJ85Zj3ejVRAkbBT+AOXdgZl2YU6woDZhdrzlXak7ohQCA4v7h8ZCzr3IZ5ZQ/Q4CHKGHv1MqJDkHaITQFxS0YbynGmyQiaDZYxDCYK48i8/FG6RdYvEgyQUVfwmXJVpifjXm99oqAeS2RU122G2C10aN5k8i5YQinyxUgqzztbJrZob1k48ePD22KB0OI7BhhmYa4S0c3dVawRzFuMiM6k4d4B+NWWGe1BTAh8dYKiOBpq1wLbj36mJKsMbZA3WUoQfJlLXyiuX993b4alrsVQsarYioHoh4P3icWKUNT8yqgQn2+R436eYyuZozLwWMy+whqFsXqrNJiQdZBjVm1Qfdxu8fj5QqUyApLeqXoFBw6Lj8m4ZYhwW7NrG/7KgWTaX4xWixBD/sNueemcVv70Yv8gqJYI61KrlzFA5E6Mfg0ZsKwspkJc990feO2azb1dVWHnPb51UgdPfHmX5sWeiL+AS6zfh44B1cPpcldFqzDZi6lyMXMC1wtZsVQT1+OyB95rLDRIsdOkW6af8AlkK2E4GdQtrgb20L2JRl3new1m0cMHnc/RP7Rpa1gMOYSZJkkzjTPffsgRuVWRie+YkTbTRShu/ViE/CeQgRtJUkXfVw/EDUIxhV9gym2Pdy+X+Y3K539EcUFOcarCgwAhCj0gUVJ+kmcufguYgBqAw43NP4Gg3mrN9ACPEW3sfv/myt5pBoWXmfWcfeJyEmZaFU/8Wqchc6IRaG/xQChtADPbQ/eCTppa83tyHDd1DRC/yT4p/uamMzUyyRwk8kXEP4mkkBx9maAfo4eR2lO791Ll7oEAW3JVPUx1KHNsIiGTHSZmxssV1Q3cZEB4E2EwE18EBWBMkhSTJmRFyhHzcGAkZfHUiHku1RZt+XGxeEojvsOggO63zLfNe7fsMC85Ski2jHpwR4FWWwtl4xEHL21gpy4FcvXt/GoJx+G787KzvJueRK3Lr2fTC0PH/n/338q0P4P0SEP5O5aJgAzeCfsOnb8VFU8kqBpFSrZlAJu6owdhh2zkM1AhTY28mZ7U2AhrNcXle6aKCK71fuSdYNipqs2ypm937Vu764mdxZTzXTYFF4kimQAytPDVOcykafxH0/R0K8p8fvyzWSkerYe6o4qnU/IeZo4OJ6POl4SxVCQjn3vWiDG+lCa6fx8tGZcQApHcUNHHnuJ4EtjxyT1KC0A9I5mUxqmBDpCw3p73ztkc1EddSVq16D9G9R4PsqXr97+t55WdBxhiWHHXJK+X7+sT02e2JU13isTvJemlF5o9R9tLc4hQ8ZUDe08VEUY+vpqRYek2H1cUU114Yy/YraWynZ6WuKbhIUxxd8yji5UlyVHLFUAhNnmAIimNXMXfndzMmMV4roWHfteqGKoYtn5na5qGmWbFIqSV8PV2/TKi47Ex2SMjjH+ed4XD/tuf/kfRxFrkf0063CetmRtRTIjR4TWwe5r2jLpg6QMDfKscTCY1Oyyz2Nh72h7w3tU80j1FDptgR/UHJoT8wwrqB1lHqAy/iXiiqjEWzamRbcHyA0pWLT1U6g23wvxQu3GFLYqio7QALziKW+Qas8808JcVaUblepzi59DaG2rn5CX6y1dsT17gJ17rYtTduex74OBPxXCP2SjP3iTpUhlJhr2YGJZ/vA+nP/QP3A9gnMjNgmaH5NlV6KpLtvetFuDZ9GE+lpIaCiB5vKQuOGmk0uedk+/pJSG/CkZd/VZzCsM5gZathmM3MzYLK6Y82kTWZFvFPde7jRPrN8PgzHQwF5hqGRYj9NnryRDg/cyImMNbAOGyHEQbvSdWYkVUTG9rFThuEwt/OMYW3GC3IflTeoyUDAscF3TYTE86dGYdfz8xKnI5WjGyeUHj/Naqu1uHGdTW9wF3rV3QqQSCl3KeZHnyI0hpg4nlcgFv0cb9h9JtsI/OBhV2/dRRn5JCSOlAfj/ej9MDnSatP4IOuRuuSj95+/yGN5PrcebzJOuwFLx6mi+DAkoNbKIifgEuk1QeS+feE5I3hMdPWoJNxXfs00rppGW1dzMxRBnITPoPY3Oatoq9+AciZ1AFC5P/tLvd0CNlljeXOJCTjJ4RHfFjFa0cpKbbLXWY+GbEItBNlDsWcE8MOmiUHN0UroNW4WI830Xs/lXLSlHrEFGqwu8GNydOlRQvzTQMWq8SKb8xLRmm/U3FOt7BI/gzZyx2w37hlrPKHrDhHJPF/+QDeYI3F58UPslKHCM5+wdZevfhu0QAjL75gL8ekpQtwe0l7b1WmWBHZplFJSQEJWvArFk8jwRnMLqmUeeAPyxk3svOjXuWvzzhmSSF0MvBauICdb3eY3J54i1TWUjTFibqitXC57rX8As1CUewZ5hE9hkB2Y10NWsKwmH5eeLioTHg1UAq98bcHN4rnzNLVF9xR5zeFtkZk7/492D2YS+5Oua3hcXg8HNuOlYSnp2hiow9N9JPwICAhCNQp+1SGM3W2ZC1HPOPYuZzgVqzzARsE9OjXFEZvxlfCPRFM8iEmF/s6xWoVNrLZsVAPhUfSqtjiapUkjnA2mNQB0gGljqsTVGCHkEUEzTtFTqWU611krSiDrsdhH4iy+FF3AMc633j1q2z29dZj21oWew6meRJLFXa2AY6beN6nxp5aoTZikyn/rxvbgX92m5Z4SLfxe3pCFtX6Z6l7WM79U9vg32XAurbsH4FKh8vm7nlL2MpU1MeSpLKfptNdZ+EQGmuv3LfdLldzyGOcXRXRp8Uf/4ILPhgtLvAJhDdFpHZgK430N5X+osz1btB2f7wnc1M4tSTZtTvETu8H+qZ/v40zq/CHy15q+fuaY/ErEO82nPdjoiFiUufrUM6BmXMWNI1gHuVF6nLYVxFjZSJiGuj2ekF9qkIMGxlbxjX+1ffC+OZglvOeGFNHbPd2+72wCmNpcZkdIp/dNSBF57F5Uo0M9oWy58Pg0pvjVH63EIvQwFtilgoblxwK99ShwFQlFP3aZynu3Hpx0USy5DRIMCZGUrELqakag6ttRldZ47OO730GegtLEi/6nhf1eM95x3eST1szW+B7W9xDIq9Fjig1h1+YZ7FpZOwfcdSMy1pu6Ix1Wud2EF2MBoMn+5rwhNmAY19wWruEmSat46bGeEdZZjnGa1R6jQd/BqFwPPI4Eap+z3JzqunGnFl1xp2Zqt3rVtz0Swx/bfRlNyIO+OHRoTfu00h8P1sQQBqY+/5dQ/gbaUF1Vnxgx+nokRD832ObAf/9XPEN795HIPyx2bTeW104X7Gmk0PQB+OmAVJQdERQf4B+zlNPHcMCKjqzsAWn4TSZBcvPQLyKkoWaR510I5qOuc5CDYPmh3vn/kxiUFcV47bDXwdzuj9EP/jL5O6VTftxWVmkDjHaL1CQzli22fRtcKc/c7EnJdBqlVxn9zSIx8XmbpBjtNqEs98JjnQKCgV4FGvpxLNVgn6ie/daABWx4RqYwOMOC3v5TGJkNLNJuepKX+U0INaGOqsOBeIzOnH/u/bjrio6kc/Q4epVhkqOuJwMswnzYAKFm+sBEIpLDpiS0bHqjU4ABvGFb1Pj/EpNVlbyk84LpB6t4hmrC9P692Ol0VMxh/xYXKuM7fn+OC8gywCUlwq6UToZhkuH/DJt2FpgUHAXsbVcmlMnDyLWh9TWGNVvrzQ2AwmZ9r2yUqz3KiXfu2a8j53I8f4F4MlKzDzJKEXfp+ClLfFrGXPFi0aVopF3ReazgfCPX50zt3tR0WHYGBdDHAmO619gDryEuhrUCxOp6jm88kWGaOYTPYdTn037JLGye6p4SKuc4yCm2HNKsEk4od+qgjJ/Vlay1xovr94O8LtAGGNferAJyn3EROH9DnvxjYMrDaSgkT3ntvlXdAQNqa17r+KoGbsczNCthw9GV43cFrVHuueJKeomI93aK8wxYIkCgO2ZT28DxiofbAhyegHH9C1fY16JIawRQV1tMJVZgmu3zMyn7wVoFr3FAo49cgfsoiz5SZC8d1pRtu6U8APePrOe4NYeCP5uKuuKIO/7fQgUfXFcnQZ8InYO2de8Ld7d/ugPIBTZHEGKaU02fl2hAAAAAAF2ekLuETCejscma8Eb4tpT1s9iyyi2R1tjAuA03dbi6Bs8cUb+vX4NOu2qbWADmYAf+OjukRKr3aAYDqfbaW2LnHJvS8H/5gRfnWGLv5w5PBin4FKh6ijyXExYt2cnFFYnfAKizoyCxBDw7vMMqUUdgAAAgrYGmyslBuF4B88pXkhdGFE9Lb/diw0DZgTPovZ/6QXm8/QFaFQqBFLW2l+i2wKSHaXVFvnAJO6s4Rrl144tcXzUkYm7xM0R/j1vmPXnRs4kHVKOXYrmQrM93ANer7DFAGpJtkfvh/C9L/E8nF79Nh2dzRFNz7DcuCpqU/H3UGS1YexSSqFOVfvTk6P1qAq6wGzhdeC2XFcOCEMOWLMAMyM5L+zndFOUMQG9TW/WsBdimBjTBuN32aAXQV2idkc96whiVOm4OWm7/f7kFiNpPjcUfZB6+q5SI//hgMCz/qvnhDfQwj1dkgzgv7wn9Zc/K+0dGQZYgOt5KjmZXyvgk2apy32eeatp6CWM+kVAWzhemSCBuWsmEntCTypI+YQZ6NEb/muef6N8+MF/L6bBp3llzNBfd5OfhEN2iS2QAAF1w2fvOt4uIh5tWZNNbvYIGKN+zQGA/iNNYj+3fdIckBezwO8adOD8zG0XB7ekN6f1fm3t4HVz5/mIahCTd01+9zqoYRMl6mVGScOymW25CRzL4/WK9e2OrSbHuWUHepVIaP4QkOllUdKpJLnwazyEHdxPfpR6AKulOV73gVrZ6eI4VWxa/ItwcWI3eAIPTg2r0jGA7Foobto2HFUw3LY5tgyvnCoNRorHjAeIVT7CtOE30+S6uwT934x8SgJjpEDf9jiHFibndDlcckuI5aYjFFoAjaikhi4fK585vR4YzX43v5RZK81vweZogg8RbSs5oqI/kIn1T4PSAdEo/KWJl3VxA95KRWsT67soEYKn/4WjWn7IpWNEMnhibwmrLbXghzVGYBobit0hcRe9FZ8vE9rmThdw/6s9gAJRmCSSwRlSu/mqun5pdU7WHkJPtaZtutoTZdA6KUd9iZ6nyb9Qfrd0DPHiXj2zHqsVUFSGtnT9pnI3c+uwEn6HQlr9XlKp3oDtHm5w6lQMG9OjZIcDMCDvGEVE8Z+UCvg2dwnnV4EN4cD3d3aL/OO0p6CL32KKMrOc8mfgAht4x0lnTbn+BvNQ7GEsqN0exLM15PtN2EwMiW3vpj9/yKSUfOHtG8NuDmvM9FTsIfKhiiJIAAAA3z3sOaEJXeEGJrABM+JeFM+rgkB2Y10NWsMx1mijT40tLxN+ZVSXO3BzeK58q2KcAk7qQo64W1SK8cWfSv1clFOD5kLcHuqMQlYYmVDZAJgjMB0im0UJ0fSiPLP8So62nZCEgwqFNF7CHOdk2m4rPxn1aE6eAwtTUDXqrG5TkW3/+neQY+F88H8prVNiZBAr5bQ32TSxR7qrm3W08gLeuRwuy9Xu5Lr7nNnRvFmslZig3PjbTC95ath5Zw2CHIZ0Y7OLt+XDo4T1V0qYzo8nx362oOqr9IQ+ZKSb34QQqro/3NNCp0Z+sikX36yLu311sSPJQng4VVTgvUjaM0IHSXYP4Z9tJKTcE1vhe8w3tQnBgOSyDWBFc8vFxESYWnhssFSP/izOx30xOec71kUQ8dP4ChNbGjasHQinBxLnYQAF07xjOo+SdpyxwAe85q2CtUtVnaI/2z2uNZABwLxbj90frURH/j2A2Jj0mA/9G7oJAv6j3+q+6b0jC4vNcBQGIK+2pf+z0J3rhuxTs06B8Ez/L7CkZSkLYtPaDviAal0zgTkynhfIIOaxCO4mp6uhqBOYZhR2ij7G7OP6JXytTHIBuYuoRVUzNH45vgPkM7+cOS7XR+e/i5/o7E9Q6aF9TSt3PKXsZS4nZ8144AABrwNp/z1Vk3uAthrZxWhs+cdvPtqeZaVYywAjvflLKPLzg3wjuz/tAuxFATjTx7EDBi8toC+cgFX9AGPFU1PQvOuixb2hu9U+o3nYCWiLA+6A4AmXEcuMfegMsNLVS8+NJ5Pgm6tcXg+TcXUJWtz44PXYilkRwsbtsqnvVw8uKIqvPMclgzMudd3u9G2kfzcVdcUQd/2+i/yHl/2J2EiInYO2de8WLS18anYaXCzj2W7H/RoIxoIUAAAAR2qySDXczF7qjgY3dlwhDM5S7VEt7qpnLvBBjRTtyF0U6X21fLap6Q9K/Fw30/igeZq/kr54AyJAOC8EsRJFaao6fvu/ad04XrfuSwbM2/FmLOkYtwCigptSlQXrAAAAAAAAAAAAAAAAAAAAAAAAAAAAAAAAAAAAAAAAAAAAAAAAAAAAAAAAAAAAAAAAAAAAAAAAAAAABFWElGugAAAEV4aWYAAElJKgAIAAAABgASAQMAAQAAAAEAAAAaAQUAAQAAAFYAAAAbAQUAAQAAAF4AAAAoAQMAAQAAAAIAAAATAgMAAQAAAAEAAABphwQAAQAAAGYAAAAAAAAASAAAAAEAAABIAAAAAQAAAAYAAJAHAAQAAAAwMjEwAZEHAAQAAAABAgMAAKAHAAQAAAAwMTAwAaADAAEAAAD//wAAAqAEAAEAAAB4BQAAA6AEAAEAAAAxAwAAAAAAAFhNUCDbAAAAPD94cGFja2V0IGJlZ2luPSIiIGlkPSJXNU0wTXBDZWhpSHpyZVN6TlRjemtjOWQiPz4KPHg6eG1wbWV0YSB4bWxuczp4PSJhZG9iZTpuczptZXRhLyIgeDp4bXB0az0iR28gWE1QIFNESyAxLjAiPjxyZGY6UkRGIHhtbG5zOnJkZj0iaHR0cDovL3d3dy53My5vcmcvMTk5OS8wMi8yMi1yZGYtc3ludGF4LW5zIyI+PC9yZGY6UkRGPjwveDp4bXBtZXRhPgo8P3hwYWNrZXQgZW5kPSJ3Ij8+AA==;clipPath=inset(23.71% 67.67% 26% 3.33% round 49%);" vertex="1" parent="1">
          <mxGeometry x="169.72" y="561" width="39.55" height="40" as="geometry" />
        </mxCell>
      </root>
    </mxGraphModel>
  </diagram>
</mxfile>
